<svg width="269" height="91" viewBox="0 0 269 91" fill="none" xmlns="http://www.w3.org/2000/svg">
<g clip-path="url(#clip0_4355_34832)">
<path d="M82.6067 41.7082C82.5375 49.6125 80.1126 57.3195 75.6377 63.8581C71.1628 70.3968 64.838 75.4744 57.4604 78.4512C50.0828 81.4281 41.9826 82.1708 34.1804 80.5859C26.3782 79.001 19.2233 75.1594 13.6172 69.5451C8.01106 63.9309 4.20467 56.7952 2.67768 49.0374C1.15069 41.2795 1.97141 33.2466 5.03643 25.951C8.10145 18.6553 13.2736 12.4234 19.9011 8.04047C26.5286 3.65755 34.315 1.31979 42.2789 1.32178C47.5988 1.34457 52.8621 2.40736 57.7681 4.44946C62.6742 6.49156 67.1268 9.47295 70.8718 13.2233C74.6167 16.9737 77.5806 21.4197 79.5941 26.3072C81.6076 31.1947 82.6313 36.428 82.6067 41.7082Z" fill="white"/>
<path fill-rule="evenodd" clip-rule="evenodd" d="M3.17773 41.5922C3.18004 33.9243 5.4729 26.4292 9.76643 20.0545C14.06 13.6798 20.1614 8.71178 27.2993 5.77845C34.4372 2.84512 42.2911 2.07823 49.8681 3.57473C57.4451 5.07123 64.4049 8.76393 69.8677 14.186C75.3305 19.608 79.051 26.5159 80.5587 34.0364C82.0665 41.5569 81.2938 49.3522 78.3384 56.4369C75.3831 63.5216 70.3777 69.5775 63.9551 73.839C57.5325 78.1005 49.9811 80.3763 42.2555 80.3786C31.8924 80.3755 21.9546 76.2881 14.6268 69.0149C7.29894 61.7417 3.18083 51.8781 3.17773 41.5922Z" fill="#711F7E"/>
<path d="M42.2553 80.576C34.4828 80.5829 26.883 78.3014 20.4172 74.0203C13.9515 69.7391 8.91037 63.6506 5.93172 56.5252C2.95307 49.3997 2.17071 41.5574 3.68364 33.9905C5.19657 26.4236 8.93679 19.4721 14.4311 14.0155C19.9254 8.55897 26.9269 4.84251 34.5498 3.33637C42.1726 1.83022 50.0743 2.60208 57.2551 5.55427C64.4359 8.50647 70.5731 13.5063 74.8903 19.9213C79.2075 26.3363 81.5106 33.8781 81.5083 41.5926C81.4959 51.9238 77.3571 61.8288 69.9991 69.1363C62.6411 76.4438 52.6642 80.5576 42.2553 80.576ZM42.2553 2.99178C34.5619 2.98489 27.0393 5.24294 20.6391 9.48026C14.2389 13.7176 9.24874 19.7438 6.29981 26.7966C3.35088 33.8493 2.57571 41.6117 4.07236 49.1019C5.56901 56.592 9.27024 63.4732 14.7078 68.8751C20.1454 74.277 27.075 77.9568 34.6201 79.4491C42.1651 80.9413 49.9866 80.1789 57.095 77.2584C64.2034 74.3378 70.2794 69.3902 74.5543 63.0416C78.8293 56.693 81.1111 49.2286 81.1111 41.5926C81.1049 31.3629 77.0103 21.5535 69.7258 14.3167C62.4412 7.08002 52.5618 3.00713 42.2553 2.99178Z" fill="#711F7E"/>
<path d="M17.0215 41.5923C17.0215 36.6387 18.5014 31.7963 21.2742 27.6775C24.0469 23.5588 27.988 20.3486 32.5989 18.4529C37.2098 16.5572 42.2836 16.0612 47.1785 17.0276C52.0734 17.994 56.5697 20.3794 60.0988 23.8822C63.6278 27.3849 66.0311 31.8476 67.0048 36.7061C67.9784 41.5645 67.4787 46.6004 65.5688 51.1769C63.6589 55.7534 60.4246 59.6651 56.2749 62.4172C52.1251 65.1692 47.2464 66.6381 42.2556 66.6381C35.564 66.6351 29.1474 63.9953 24.4158 59.299C19.6842 54.6026 17.0246 48.2339 17.0215 41.5923Z" fill="white"/>
<path d="M42.2553 66.8817C37.2229 66.8886 32.3014 65.4142 28.1133 62.6449C23.9251 59.8756 20.6584 55.9358 18.7262 51.3238C16.7939 46.7118 16.283 41.6346 17.258 36.7343C18.233 31.8341 20.6501 27.3309 24.2036 23.7941C27.7572 20.2573 32.2876 17.8458 37.2219 16.8646C42.1563 15.8834 47.273 16.3766 51.925 18.2817C56.577 20.1868 60.5554 23.4183 63.357 27.5675C66.1586 31.7168 67.6577 36.5975 67.6646 41.5923C67.6708 48.2893 64.998 54.7148 60.2335 59.4568C55.469 64.1989 49.0026 66.8694 42.2553 66.8817ZM42.2553 16.7784C37.2984 16.7738 32.4517 18.2291 28.3286 20.9601C24.2056 23.691 20.9916 27.5748 19.0936 32.1197C17.1957 36.6647 16.699 41.6664 17.6666 46.4916C18.6342 51.3168 21.0226 55.7486 24.5292 59.2258C28.0359 62.7031 32.5032 65.0695 37.3656 66.0253C42.228 66.9812 47.2668 66.4836 51.8441 64.5956C56.4214 62.7075 60.3314 59.5139 63.079 55.419C65.8266 51.3242 67.2883 46.5122 67.2791 41.5923C67.2729 35.0049 64.6352 28.6886 59.9444 24.0284C55.2535 19.3682 48.8923 16.7443 42.2553 16.732V16.7784Z" fill="#711F7E"/>
<path d="M42.2555 83.1149C33.9686 83.1218 25.8659 80.6885 18.9729 76.123C12.0799 71.5574 6.70643 65.0649 3.53251 57.467C0.358599 49.8691 -0.473064 41.5075 1.14278 33.4403C2.75862 25.3731 6.74933 17.963 12.6098 12.1478C18.4704 6.33262 25.9373 2.37375 34.0655 0.772214C42.1938 -0.829322 50.618 -0.00152578 58.2721 3.15084C65.9262 6.3032 72.466 11.6384 77.064 18.4813C81.6619 25.3242 84.1113 33.3671 84.102 41.5921C84.0804 52.6001 79.6643 63.1509 71.8209 70.9336C63.9775 78.7163 53.3462 83.0966 42.2555 83.1149ZM42.2555 1.19407C34.2124 1.1872 26.3479 3.54774 19.6564 7.97719C12.965 12.4066 7.74719 18.7061 4.66283 26.0789C1.57847 33.4516 0.766093 41.5667 2.32842 49.3977C3.89076 57.2287 7.75763 64.4241 13.44 70.0739C19.1225 75.7236 26.3652 79.5741 34.2524 81.1382C42.1396 82.7024 50.317 81.9101 57.7505 78.8614C65.184 75.8128 71.5397 70.6448 76.014 64.0109C80.4883 57.377 82.8801 49.5752 82.887 41.5921C82.8778 30.896 78.5951 20.64 70.9782 13.0734C63.3613 5.50684 53.032 1.24728 42.2555 1.22886V1.19407Z" fill="#008641"/>
<path d="M42.2552 65.7223C37.4319 65.7269 32.7157 64.3107 28.7038 61.6532C24.6919 58.9956 21.5648 55.2161 19.7184 50.7934C17.8721 46.3707 17.3896 41.5036 18.332 36.8086C19.2744 32.1135 21.5994 27.8016 25.0124 24.4188C28.4255 21.0361 32.7731 18.7347 37.5049 17.8061C42.2366 16.8775 47.1395 17.3634 51.5928 19.2023C56.0461 21.0413 59.8494 24.1505 62.5212 28.1363C65.193 32.1221 66.613 36.8051 66.6014 41.5925C66.5829 47.9925 64.0108 54.1246 59.448 58.6468C54.8852 63.1691 48.7033 65.7131 42.2552 65.7223ZM42.2552 18.5758C37.679 18.5712 33.2041 19.9133 29.3962 22.4325C25.5883 24.9517 22.6184 28.5348 20.8618 32.729C19.1052 36.9231 18.6408 41.5401 19.5274 45.9961C20.4139 50.4522 22.6116 54.5473 25.8426 57.7639C29.0736 60.9806 33.1929 63.1742 37.6797 64.0676C42.1665 64.9611 46.8195 64.5141 51.0505 62.7834C55.2815 61.0526 58.9005 58.1157 61.4501 54.3438C63.9998 50.572 65.3655 46.1346 65.3747 41.5925C65.3717 35.5053 62.9356 29.668 58.6012 25.3616C54.2668 21.0552 48.3881 18.6314 42.2552 18.6222V18.5758Z" fill="#008641"/>
<path d="M49.4636 59.8203H35.0357L22.1851 41.9287H32.3722L32.489 42.0679L42.2205 54.011L52.0688 41.9287H62.2675L49.4636 59.8203ZM35.4446 59.0434H49.0547L60.7371 42.7056H52.4192L42.2789 55.2865L32.045 42.7056H23.7622L35.4446 59.0434Z" fill="#008641"/>
<path fill-rule="evenodd" clip-rule="evenodd" d="M49.2651 23.7471L61.5083 40.8618H52.2675L42.2206 28.5475L32.2321 40.8618H23.0029L35.2344 23.7471H49.2651Z" fill="#008641"/>
<path d="M61.8819 41.0592H52.1738L42.2203 28.8609L32.3253 41.0592H22.6172L35.1408 23.5503H49.3583V23.6315L61.8819 41.0592ZM52.4191 40.665H61.1809L49.1597 23.9793H35.3394L23.3882 40.665H32.1384L42.2203 28.2348L52.4191 40.665Z" fill="#008641"/>
<path fill-rule="evenodd" clip-rule="evenodd" d="M9.36908 53.2689C9.45409 53.5218 9.6077 53.7464 9.81302 53.9182C9.92984 53.9994 10.1752 53.9182 10.5256 53.8371L14.5795 52.2949C14.9066 52.1558 15.1052 52.0282 15.1636 51.8775C15.1982 51.6138 15.1619 51.3458 15.0584 51.1006H15.222L16.2617 53.7675L16.0865 53.8371C16.0088 53.5807 15.8539 53.3541 15.6426 53.1877C15.5024 53.1066 15.2687 53.1877 14.9299 53.2689L10.8878 54.8111C10.5256 54.9386 10.327 55.0778 10.2803 55.2169C10.2574 55.4814 10.2974 55.7475 10.3971 55.9938L10.2336 56.0634L9.19385 53.3269L9.36908 53.2689Z" fill="white"/>
<path fill-rule="evenodd" clip-rule="evenodd" d="M11.2969 58.1274C11.5422 58.4405 11.7525 58.6144 11.9277 58.6376C12.268 58.6028 12.5918 58.4743 12.8623 58.2666L16.5073 55.9475L16.5657 55.7504C16.6282 55.6041 16.6523 55.4446 16.6358 55.2866C16.6055 55.1373 16.546 54.9955 16.4605 54.8691L16.6124 54.7764L17.5003 56.1794L15.5143 61.8147L18.2713 60.0986C18.7269 59.8087 18.9839 59.5652 19.0307 59.3449C19.0443 59.0992 18.9789 58.8555 18.8437 58.6492L18.9956 58.5564L20.1639 60.4813L20.012 60.574C19.8639 60.3475 19.6408 60.1793 19.3811 60.0986C19.042 60.1143 18.7176 60.2407 18.4582 60.4581L14.1007 63.1598L14.0072 63.009L16.2619 56.5736L13.0376 58.568C12.582 58.8463 12.3366 59.1014 12.2782 59.3101C12.2636 59.5507 12.3248 59.7898 12.4535 59.9943L12.3133 60.087L11.145 58.1622L11.2969 58.1274Z" fill="white"/>
<path fill-rule="evenodd" clip-rule="evenodd" d="M22.5353 62.6612L22.4185 62.8003C22.298 62.682 22.1648 62.577 22.0213 62.4872C21.9586 62.454 21.8863 62.4428 21.8164 62.4554C21.7464 62.468 21.6827 62.5038 21.6358 62.5568C21.5642 62.6472 21.5088 62.7492 21.4722 62.8583C21.4722 62.9974 21.3204 63.2409 21.2035 63.5888L20.0353 67.0674L23.54 65.3281L23.9256 65.131C24.0017 65.085 24.0722 65.0305 24.1358 64.9686C24.1944 64.913 24.2338 64.8406 24.2485 64.7615C24.2632 64.6824 24.2524 64.6007 24.2176 64.528C24.1398 64.3903 24.0413 64.2652 23.9256 64.157L24.0424 64.0178L25.5494 65.3977L25.4326 65.5136C25.3035 65.4143 25.1504 65.3504 24.9887 65.3281C24.6929 65.3424 24.4047 65.4258 24.1475 65.5716L18.7736 68.0994L18.6685 68.0414L20.561 62.522C20.6883 62.2191 20.7671 61.8983 20.7947 61.5712C20.7573 61.3855 20.6635 61.2155 20.526 61.0842L20.6428 60.9683L22.5353 62.6612Z" fill="white"/>
<path fill-rule="evenodd" clip-rule="evenodd" d="M23.1077 71.2418C23.3277 71.3558 23.5722 71.4155 23.8204 71.4157C23.9489 71.4157 24.1124 71.207 24.2877 70.8939L26.3905 67.1255C26.5329 66.9351 26.6032 66.7011 26.5891 66.4645C26.5891 66.3138 26.3671 66.1514 26.0751 65.9543L26.1568 65.792L30.6896 68.285L30.0354 69.5141L29.8251 69.3981C29.9493 69.1131 29.978 68.7961 29.9069 68.4937C29.6805 68.1904 29.3786 67.9507 29.0307 67.798L27.8625 67.1602C27.734 67.0907 27.6405 67.0675 27.5938 67.0907C27.5471 67.1139 27.4886 67.1834 27.4302 67.2878L26.3788 69.201L27.6872 69.9315C27.9163 70.0984 28.1987 70.1767 28.4817 70.1518C28.7212 70.0256 28.9289 69.8472 29.0891 69.63L29.2877 69.7344L28.1896 71.694L27.991 71.5201C28.0922 71.2701 28.1322 70.9999 28.1078 70.7316C28.1078 70.5693 27.8625 70.3837 27.5003 70.1982L26.1919 69.4677L25.0236 71.5665C24.9302 71.7288 24.9302 71.8679 25.0236 71.9491C25.3226 72.1677 25.6391 72.3616 25.9699 72.5289C26.3903 72.789 26.8591 72.9625 27.3485 73.0391C27.812 73.0275 28.2558 72.8505 28.5985 72.5405L28.8321 72.668L27.6639 73.8275L23.0493 71.2882L23.1077 71.2418Z" fill="white"/>
<path fill-rule="evenodd" clip-rule="evenodd" d="M31.1573 73.2709C31.1653 73.6693 31.2485 74.0626 31.4026 74.4305C31.5051 74.6846 31.663 74.9131 31.865 75.0996C32.067 75.286 32.308 75.4258 32.5708 75.5088C32.8484 75.6185 33.1578 75.6185 33.4353 75.5088C33.5744 75.4437 33.697 75.3484 33.794 75.23C33.8911 75.1116 33.9601 74.9731 33.9961 74.8247C34.0873 74.5318 34.0579 74.2149 33.9143 73.9435C33.7034 73.6186 33.465 73.3121 33.2017 73.0274L32.5591 72.239C32.3892 72.0491 32.2439 71.8387 32.1269 71.6128C31.9582 71.2742 31.9248 70.8848 32.0334 70.5228C32.0926 70.3049 32.1969 70.1015 32.3398 69.9258C32.4826 69.7501 32.6607 69.6059 32.8629 69.5025C33.0741 69.3944 33.3054 69.3305 33.5425 69.3145C33.7796 69.2986 34.0174 69.3309 34.2414 69.4097C34.5031 69.5005 34.7479 69.6337 34.9657 69.8039C35.1111 69.9229 35.2675 70.0277 35.433 70.117C35.4735 70.1349 35.5173 70.1442 35.5615 70.1442C35.6058 70.1442 35.6496 70.1349 35.69 70.117C35.7626 70.0652 35.8225 69.9978 35.8653 69.9199H36.0639L35.655 71.9491L35.433 71.8795C35.5007 71.3663 35.3759 70.8464 35.0826 70.4185C34.8625 70.1125 34.5523 69.8816 34.1947 69.7576C33.9558 69.6788 33.6976 69.6788 33.4587 69.7576C33.3445 69.8064 33.2425 69.8795 33.1597 69.9716C33.077 70.0638 33.0155 70.1727 32.9797 70.2909C32.8974 70.5117 32.8974 70.7543 32.9797 70.9751C33.1144 71.2456 33.2875 71.4955 33.4937 71.7172L34.1596 72.4709C34.496 72.8089 34.7725 73.2009 34.9774 73.6304C35.094 73.9646 35.094 74.3281 34.9774 74.6624C34.9075 74.8947 34.7878 75.1094 34.6265 75.2915C34.4652 75.4736 34.2661 75.619 34.0428 75.7175C33.5391 75.9106 32.9811 75.9106 32.4774 75.7175C32.171 75.6173 31.883 75.4685 31.6246 75.2769C31.4717 75.1535 31.3074 75.0448 31.1339 74.9522C31.0975 74.9283 31.0549 74.9156 31.0112 74.9156C30.9676 74.9156 30.9249 74.9283 30.8886 74.9522C30.8319 75.006 30.7845 75.0687 30.7484 75.1378H30.5381L30.8769 73.0854L31.1573 73.2709Z" fill="white"/>
<path fill-rule="evenodd" clip-rule="evenodd" d="M37.8276 70.5806L43.33 70.9632L43.2599 72.6097H43.0263C43.0085 72.2382 42.8827 71.8798 42.6641 71.5778C42.3436 71.3638 41.9638 71.2544 41.5776 71.2647H41.0286L40.7365 76.1579C40.7365 76.529 40.7365 76.7725 40.865 76.8768C41.0972 77.0083 41.3574 77.0838 41.6244 77.0971V77.2711L38.7855 77.0739V76.9C38.918 76.9515 39.0626 76.9644 39.2023 76.9372C39.3419 76.91 39.4708 76.8438 39.5739 76.7464C39.6769 76.649 39.7498 76.5244 39.784 76.3873C39.8182 76.2502 39.8122 76.1063 39.7669 75.9724L40.1057 71.1487H39.5683C39.1727 71.0727 38.7629 71.1256 38.4 71.2995C38.1248 71.5635 37.9443 71.9096 37.886 72.2851H37.6523L37.8276 70.5806Z" fill="white"/>
<path fill-rule="evenodd" clip-rule="evenodd" d="M45.141 77.1434C45.4203 77.0982 45.6735 76.954 45.8537 76.7375C45.943 76.4111 45.943 76.0668 45.8537 75.7403L45.0943 71.8791C45.0772 71.642 44.9733 71.4193 44.8023 71.253C44.5491 71.1636 44.2727 71.1636 44.0195 71.253V71.079L45.9121 70.708L49.0079 74.9982L50.1762 69.7919L52.0804 69.4209V69.6064C51.8355 69.6398 51.6091 69.7542 51.4379 69.9311C51.3535 70.1514 51.3535 70.3949 51.4379 70.6152L52.2557 74.8475C52.3257 75.1954 52.4192 75.4041 52.5477 75.4852C52.7847 75.5505 53.0351 75.5505 53.272 75.4852V75.6592L50.5851 76.1694V75.9954C50.8423 75.9612 51.0807 75.8429 51.2626 75.6592C51.3137 75.4413 51.3097 75.2142 51.251 74.9982L50.4098 70.7312L49.0196 76.61H48.8911L45.5032 71.8675L46.2509 75.6592C46.2746 76.022 46.4231 76.3659 46.6714 76.6332C46.8945 76.7337 47.1438 76.7621 47.3841 76.7143V76.8883L45.1644 77.3173L45.141 77.1434Z" fill="white"/>
<path fill-rule="evenodd" clip-rule="evenodd" d="M55.4099 74.7548C55.6303 74.6493 55.8165 74.4846 55.9473 74.2794C55.9473 74.1519 55.9473 73.9316 55.7954 73.5953L53.8912 69.734C53.7393 69.421 53.5991 69.2354 53.459 69.1891C53.2101 69.1592 52.958 69.2036 52.7346 69.3166L52.6646 69.2007L57.3375 66.9512L57.9801 68.1803L57.7581 68.2962C57.5988 68.0259 57.3516 67.8173 57.0572 67.7049C56.6777 67.7158 56.3076 67.8236 55.9824 68.0179L54.8141 68.5977C54.6817 68.6518 54.6116 68.7098 54.6038 68.7716C54.6121 68.8601 54.6358 68.9464 54.6739 69.0267L55.6319 70.9631L56.9754 70.3138C57.3492 70.1283 57.5712 69.966 57.6179 69.8036C57.6523 69.5342 57.6243 69.2606 57.5361 69.0035L57.7347 68.9108L58.7277 70.9284L58.5175 71.0211C58.3731 70.7968 58.1769 70.6099 57.945 70.4761C57.6664 70.4412 57.3843 70.5071 57.1506 70.6617L55.8071 71.311L56.8586 73.4561C56.9403 73.6301 57.0455 73.7112 57.174 73.6881C57.5254 73.5767 57.8657 73.433 58.1904 73.259C58.6261 73.0558 59.0217 72.777 59.3586 72.4358C59.6092 72.0471 59.7127 71.5828 59.6507 71.1255L59.896 71.0095L60.2231 72.6793L55.4917 74.9983L55.4099 74.7548Z" fill="white"/>
<path fill-rule="evenodd" clip-rule="evenodd" d="M62.4543 71.1837C62.7346 70.8939 62.8865 70.662 62.8748 70.488C62.7939 70.1567 62.6196 69.8551 62.3725 69.6184L59.6038 66.3601H59.4052C59.2503 66.336 59.0927 66.336 58.9379 66.3601C58.7955 66.4192 58.6619 66.4972 58.5407 66.592L58.4238 66.4645L59.7089 65.3977L65.5501 66.5572L63.459 64.0758C63.1085 63.67 62.8281 63.4497 62.6061 63.4381C62.356 63.4563 62.1185 63.5538 61.9286 63.7164L61.8234 63.5772L63.5758 62.1162L63.6926 62.2554C63.4837 62.4303 63.3431 62.6723 63.2954 62.9395C63.3688 63.2678 63.5397 63.5667 63.7861 63.7975L67.0805 67.7051L66.952 67.8095L60.2112 66.4992L62.6529 69.3865C63.0033 69.7923 63.2837 70.0126 63.5057 70.0242C63.7474 70.0094 63.9774 69.9156 64.1599 69.7575L64.2767 69.8967L62.5244 71.3577L62.4543 71.1837Z" fill="white"/>
<path fill-rule="evenodd" clip-rule="evenodd" d="M64.1016 61.5365L67.3376 57.1187L68.7161 58.0463L68.5759 58.2318C68.2451 58.0482 67.8677 57.9636 67.4895 57.9883C67.2675 57.9883 66.9871 58.2898 66.6483 58.742L66.3329 59.1826L70.3634 62.0814C70.6671 62.3018 70.9007 62.3945 71.0409 62.3597C71.2774 62.2337 71.4813 62.0551 71.6367 61.8379L71.7769 61.9423L70.1063 64.2614L69.9661 64.157C70.1537 63.947 70.2684 63.6828 70.2933 63.4033C70.2933 63.2642 70.083 63.067 69.7442 62.8235L65.7955 59.9247L65.4801 60.3537C65.2224 60.6427 65.0595 61.0026 65.0128 61.3857C65.0972 61.7516 65.2979 62.0809 65.5852 62.3249L65.445 62.5105L64.1016 61.5365Z" fill="white"/>
<path fill-rule="evenodd" clip-rule="evenodd" d="M72.2794 57.6053C72.672 57.6334 73.0665 57.5981 73.4477 57.501C73.7066 57.4243 73.9455 57.2922 74.1473 57.1139C74.3492 56.9355 74.5092 56.7154 74.6159 56.469C74.7208 56.1925 74.7208 55.8875 74.6159 55.6109C74.5688 55.4665 74.4899 55.3343 74.3848 55.2239C74.2797 55.1136 74.1511 55.0279 74.0084 54.9732C73.8659 54.9142 73.713 54.8838 73.5586 54.8838C73.4042 54.8838 73.2514 54.9142 73.1089 54.9732C72.7558 55.1337 72.4194 55.3279 72.1042 55.553L71.2981 56.0979C71.09 56.2453 70.8619 56.3624 70.6205 56.4458C70.4356 56.523 70.237 56.5627 70.0364 56.5627C69.8358 56.5627 69.6372 56.523 69.4523 56.4458C69.2436 56.3597 69.055 56.2318 68.8982 56.0703C68.7415 55.9087 68.6199 55.7168 68.541 55.5066C68.4677 55.2612 68.4507 55.0026 68.4911 54.7498C68.5315 54.497 68.6284 54.2564 68.7747 54.0456C68.8921 53.7979 69.0544 53.5739 69.2537 53.3846C69.3909 53.2529 69.516 53.1094 69.6275 52.9556C69.6471 52.9159 69.6573 52.8723 69.6573 52.8281C69.6573 52.7839 69.6471 52.7402 69.6275 52.7005C69.5852 52.6186 69.5204 52.5502 69.4406 52.5034L69.5224 52.3179L71.5084 52.9672L71.4149 53.1759C70.9077 53.0544 70.3735 53.116 69.9079 53.3499C69.574 53.5223 69.3071 53.7996 69.1485 54.1383C69.0325 54.3641 69.0074 54.6253 69.0784 54.8688C69.1083 54.9884 69.1678 55.0988 69.2514 55.1899C69.335 55.281 69.4402 55.35 69.5574 55.3906C69.7749 55.4771 70.0175 55.4771 70.235 55.3906C70.5236 55.2932 70.7955 55.1525 71.0411 54.9732L71.8705 54.4166C72.2598 54.1216 72.6989 53.8978 73.1673 53.7557C73.512 53.6749 73.8742 53.7117 74.1953 53.86C74.4191 53.9547 74.6189 54.0974 74.7805 54.2778C74.9421 54.4583 75.0614 54.672 75.1299 54.9036C75.2902 55.4148 75.2441 55.9677 75.0014 56.4458C74.8693 56.7373 74.6875 57.004 74.464 57.2343C74.3218 57.3688 74.1928 57.5163 74.0785 57.6749C74.0547 57.7133 74.0422 57.7574 74.0422 57.8025C74.0422 57.8475 74.0547 57.8916 74.0785 57.93C74.125 57.9956 74.1847 58.0508 74.2537 58.0923L74.1603 58.2895L72.1509 57.7097L72.2794 57.6053Z" fill="white"/>
<path fill-rule="evenodd" clip-rule="evenodd" d="M11.741 34.9366L8.14283 35.5743V35.6903L11.1686 37.6731L11.741 34.9366ZM13.6102 40.8966C13.639 40.73 13.6276 40.5591 13.5768 40.3978C13.526 40.2365 13.4374 40.0896 13.3182 39.9689C12.9879 39.6603 12.6279 39.3845 12.2434 39.1457L5.08203 34.3336L5.17549 33.9394L13.3532 32.3624C13.9691 32.2599 14.575 32.1047 15.164 31.8986C15.3 31.8403 15.418 31.7474 15.5062 31.6294C15.5944 31.5113 15.6497 31.3721 15.6663 31.2261L16.0402 31.3072L15.0472 35.9454L14.685 35.8758C14.7534 35.5676 14.7809 35.2518 14.7668 34.9366C14.7668 34.7897 14.6266 34.6853 14.3462 34.6235C14.1679 34.5993 13.9871 34.5993 13.8088 34.6235L13.2831 34.7047L12.3368 34.8902L11.6592 38.0789L12.6873 38.7166C12.9228 38.8673 13.1784 38.9844 13.4467 39.0645C13.6569 39.0645 13.8322 39.0645 13.9841 38.7514C14.0933 38.526 14.1756 38.2886 14.2294 38.0441L14.5915 38.1137L13.9607 41.0125L13.6102 40.8966Z" fill="white"/>
<path fill-rule="evenodd" clip-rule="evenodd" d="M16.04 30.6694C16.2035 30.428 16.3148 30.1556 16.3671 29.8693C16.3777 29.6976 16.3368 29.5266 16.2494 29.378C16.1621 29.2294 16.0323 29.1099 15.8765 29.0345L9.9418 25.208C9.80972 25.1004 9.64947 25.0323 9.47981 25.0118C9.31016 24.9912 9.13812 25.0191 8.98384 25.0921C8.73478 25.2593 8.52385 25.4766 8.36467 25.7298L8.02588 25.5211L10.8063 21.2656L11.11 21.4743C10.8629 21.8149 10.7135 22.2157 10.6778 22.6339C10.6778 22.8774 10.9465 23.1557 11.4372 23.4687L17.22 27.2024C17.3122 27.2799 17.4226 27.3332 17.5409 27.3575C17.6593 27.3818 17.7819 27.3763 17.8975 27.3416C18.1789 27.1504 18.4111 26.8962 18.5751 26.5995C19.0212 25.9658 19.269 25.2156 19.2878 24.4427C19.204 23.5172 18.8371 22.6393 18.2363 21.9266L18.47 21.5671L20.9233 23.8862L16.2503 30.9361L16.04 30.6694Z" fill="white"/>
<path fill-rule="evenodd" clip-rule="evenodd" d="M22.6757 21.034C23.1547 20.7673 23.4234 20.5007 23.4818 20.2572C23.5144 19.9498 23.4446 19.6402 23.2832 19.3759L19.907 13.3579C19.7201 13.0101 19.5098 12.8246 19.2761 12.813C18.9248 12.8225 18.5807 12.9139 18.2714 13.0797L18.0962 12.7666L21.3089 10.9925L27.1501 15.4799L27.2552 15.4219L26.4725 8.16324L29.6969 6.38916L29.8838 6.71383C29.5708 6.88745 29.309 7.13928 29.1244 7.44433C29.0426 7.65305 29.1244 8.0125 29.4048 8.49951L32.5591 14.1116C32.8278 14.5754 33.0731 14.8421 33.3184 14.9001C33.6767 14.9336 34.0356 14.8435 34.3348 14.645L34.51 14.9697L30.2693 17.2888L30.024 17.0221C30.3277 16.8666 30.5884 16.6397 30.7833 16.3611C30.9157 16.1447 30.869 15.8432 30.6431 15.4567L27.1384 9.2532H27.0449L28.073 18.4483L27.7342 18.6338L20.5261 13.0681H20.4677L23.6804 18.8657C23.8359 19.2027 24.0986 19.4797 24.4281 19.6542C24.6451 19.6859 24.8663 19.6745 25.0788 19.6208C25.2914 19.567 25.4911 19.472 25.6664 19.3411L25.8417 19.6658L22.8509 21.3123L22.6757 21.034Z" fill="white"/>
<path fill-rule="evenodd" clip-rule="evenodd" d="M35.1875 15.0391V14.6796C35.4924 14.6623 35.7905 14.5834 36.0636 14.4477C36.1974 14.3469 36.3 14.2109 36.3598 14.0551C36.4197 13.8994 36.4345 13.7301 36.4024 13.5665L35.9118 6.60927C35.9226 6.44047 35.8829 6.27226 35.7976 6.12578C35.7124 5.97931 35.5855 5.8611 35.4328 5.78601C35.1476 5.68882 34.8457 5.64939 34.5449 5.67005V5.299L42.9563 4.71924L43.0731 7.59487H42.7109C42.5824 6.87069 42.2021 6.21418 41.6362 5.73963C40.8764 5.39473 40.0295 5.28561 39.2062 5.42655C38.9126 5.41068 38.6206 5.47912 38.3651 5.62367C38.3011 5.70003 38.2552 5.78972 38.231 5.88608C38.2067 5.98243 38.2046 6.08298 38.2249 6.18025L38.4585 9.53129C38.7593 9.55145 39.061 9.51156 39.346 9.41397C39.6309 9.31638 39.8932 9.16308 40.1174 8.96312C40.4571 8.44327 40.6507 7.84281 40.6782 7.22383H41.052L41.3908 12.117H41.017C40.9532 11.4866 40.687 10.8931 40.2576 10.4241C40.0022 10.2514 39.7147 10.1306 39.4119 10.0689C39.1091 10.0072 38.797 10.0058 38.4936 10.0647L38.7389 13.5433C38.7343 13.662 38.7572 13.7801 38.8058 13.8887C38.8544 13.9972 38.9274 14.0933 39.0193 14.1694C39.3374 14.2817 39.6787 14.3136 40.0123 14.2622C40.812 14.2298 41.5876 13.9813 42.2553 13.5433C42.9308 12.9838 43.4297 12.2431 43.6923 11.4097H44.0895L43.7156 14.4593L35.1875 15.0391Z" fill="white"/>
<path fill-rule="evenodd" clip-rule="evenodd" d="M44.7202 14.5289L44.8137 14.1695C45.1092 14.2555 45.4196 14.2792 45.7249 14.239C45.8821 14.1847 46.0215 14.0892 46.1284 13.9626C46.2354 13.8361 46.3058 13.6832 46.3324 13.5201L48.1665 6.72527C48.2289 6.56923 48.2444 6.39862 48.2113 6.23402C48.1781 6.06942 48.0977 5.91786 47.9796 5.79764C47.7427 5.61011 47.4677 5.47563 47.1735 5.4034L47.2787 5.04395L55.4564 7.21227L54.6503 10.0647L54.3115 9.97195C54.42 9.24515 54.2714 8.50347 53.8909 7.8732C53.2953 7.26692 52.523 6.86137 51.683 6.71367C51.4076 6.60922 51.1087 6.58116 50.8185 6.6325C50.6783 6.68661 50.5731 6.84895 50.503 7.11951L49.6268 10.3546C49.9043 10.47 50.2022 10.5295 50.503 10.5295C50.8039 10.5295 51.1017 10.47 51.3792 10.3546C51.8679 9.97633 52.2469 9.47619 52.4774 8.90518L52.8278 8.99795L51.5544 13.7404L51.2507 13.6361C51.3884 13.0194 51.3313 12.3757 51.0871 11.7924C50.9059 11.542 50.6762 11.3299 50.4114 11.1686C50.1466 11.0074 49.8521 10.9001 49.5451 10.8532L48.6338 14.2506C48.5814 14.3551 48.5541 14.4702 48.5541 14.5869C48.5541 14.7036 48.5814 14.8187 48.6338 14.9232C48.8983 15.1324 49.2118 15.272 49.5451 15.329C50.3022 15.5677 51.1114 15.5918 51.8816 15.3986C52.7038 15.0943 53.4157 14.5533 53.926 13.8448L54.3232 13.9607L52.9563 16.7204L44.7202 14.5289Z" fill="white"/>
<path fill-rule="evenodd" clip-rule="evenodd" d="M54.1012 16.9406L63.9261 12.6968C63.0265 12.059 62.4775 11.6996 62.2906 11.5952C62.1201 11.5008 61.9446 11.4156 61.7648 11.3401C61.2315 11.089 60.6221 11.0476 60.0592 11.2242C59.5448 11.4351 59.0583 11.7076 58.6106 12.0358L58.2601 11.8039L60.2344 9.48486L66.5196 13.8563L66.3911 14.0418L56.5895 18.3205C57.6363 19.1535 58.8227 19.7972 60.0943 20.2221C60.6147 20.2408 61.1331 20.1468 61.6132 19.9465C62.0934 19.7463 62.5238 19.4446 62.8747 19.0626L63.1784 19.2829L60.8419 21.9266L53.9727 17.1378L54.1012 16.9406Z" fill="white"/>
<path fill-rule="evenodd" clip-rule="evenodd" d="M67.6765 25.0575L69.6508 21.9847L69.5807 21.8919L66.076 22.7384L67.6765 25.0575ZM62.0105 22.3442C62.1112 22.4944 62.2487 22.6169 62.4101 22.7C62.5716 22.7832 62.7516 22.8243 62.9334 22.8196C63.3884 22.7991 63.8394 22.7252 64.2769 22.5993L72.6999 20.686L72.9336 21.0223L68.5059 28.0491C68.1618 28.5648 67.861 29.1078 67.6064 29.6724C67.5599 29.8112 67.5494 29.9595 67.5759 30.1034C67.6025 30.2473 67.6652 30.3822 67.7582 30.4957L67.4545 30.7044L64.7442 26.8547L65.0362 26.646C65.2192 26.9045 65.4352 27.1384 65.6788 27.3417C65.7629 27.3803 65.8567 27.3932 65.9482 27.3788C66.0397 27.3643 66.1249 27.3232 66.1928 27.2606C66.3296 27.1447 66.4513 27.0123 66.5549 26.8663C66.6484 26.7504 66.7419 26.5996 66.8587 26.4257L67.3727 25.6256L65.4918 22.9471L64.3236 23.2602C64.0457 23.3165 63.7805 23.4226 63.5409 23.5733C63.3656 23.6892 63.3189 23.8863 63.4007 24.1762C63.4886 24.4092 63.6106 24.628 63.7628 24.8256L63.4591 25.0459L61.7651 22.5529L62.0105 22.3442Z" fill="white"/>
<path fill-rule="evenodd" clip-rule="evenodd" d="M67.9803 31.122C68.1088 31.6437 68.284 31.9684 68.506 32.0844C68.7937 32.1824 69.1061 32.1824 69.3939 32.0844L76.1697 30.6581C76.5669 30.1132 76.7888 29.7885 76.8589 29.6725C76.9313 29.5334 76.9559 29.3746 76.929 29.2203L77.2912 29.1392L77.9454 32.1539L72.957 38.2995V38.369L77.2094 37.4762C77.5826 37.4368 77.9299 37.2685 78.1907 37.0008C78.3904 36.6482 78.4448 36.2327 78.3426 35.8412L78.7048 35.7601L79.359 38.8212L78.9968 38.8908C78.8974 38.5834 78.7297 38.3021 78.5062 38.0675C78.3543 37.94 78.0506 37.9284 77.6183 38.0675L69.1953 39.8648L69.1135 39.4706L75.4337 31.609V31.5162L69.8144 32.6757C69.4875 32.7155 69.1791 32.8484 68.9266 33.0584C68.7881 33.2349 68.6946 33.4419 68.6539 33.6619C68.6133 33.882 68.6266 34.1085 68.6929 34.3223L68.3074 34.415L67.6064 31.2031L67.9803 31.122Z" fill="white"/>
<path d="M25.7247 85.6431C25.198 85.7533 24.6491 85.6795 24.1709 85.4344L23.0027 84.9822L22.1966 86.965L21.0283 86.5012L23.2597 80.9702L25.5962 81.9326C26.0925 82.092 26.5098 82.4316 26.7644 82.8834C26.8761 83.1213 26.934 83.3805 26.934 83.6429C26.934 83.9054 26.8761 84.1646 26.7644 84.4024C26.698 84.6743 26.5698 84.9275 26.3896 85.1425C26.2094 85.3576 25.9819 85.5288 25.7247 85.6431ZM25.6429 83.3241C25.5225 83.1182 25.3319 82.962 25.1055 82.8834L24.0541 82.466L23.3999 84.1009L24.4513 84.5184C24.6731 84.6033 24.9187 84.6033 25.1405 84.5184C25.2551 84.467 25.3572 84.3917 25.4398 84.2976C25.5225 84.2036 25.5838 84.093 25.6195 83.9734C25.674 83.8702 25.7043 83.7562 25.7084 83.6398C25.7124 83.5234 25.69 83.4075 25.6429 83.3009V83.3241Z" fill="white"/>
<path d="M28.4582 84.5764L27.7223 87.1273C27.6585 87.3137 27.6346 87.5111 27.6522 87.7071C27.6748 87.8299 27.7353 87.9427 27.8253 88.03C27.9152 88.1172 28.0303 88.1745 28.1545 88.1941C28.3149 88.2529 28.4896 88.261 28.6548 88.2174C28.82 88.1738 28.9676 88.0806 29.0774 87.9506C29.2201 87.7659 29.3199 87.552 29.3695 87.3245L30.0354 85.0054L31.2036 85.3301L30.0354 89.574L28.9489 89.2609L29.1125 88.6579L29.0073 88.7623L28.8087 88.8898C28.6227 88.984 28.4207 89.043 28.2129 89.0638C28.0109 89.0746 27.8087 89.0471 27.6171 88.9826C27.3523 88.9392 27.107 88.8175 26.9131 88.6334C26.7192 88.4492 26.5859 88.2112 26.5306 87.9506C26.4873 87.5585 26.5352 87.1618 26.6708 86.7911L27.3134 84.2749L28.4582 84.5764Z" fill="white"/>
<path d="M34.3466 85.8631H34.44L34.2064 87.0226H34.0194H33.8793C33.7038 86.9649 33.5152 86.9593 33.3367 87.0067C33.1581 87.0541 32.9975 87.1524 32.8746 87.2893C32.7232 87.5123 32.6235 87.7657 32.5825 88.0314L32.1736 90.0722L31.0054 89.8519L31.8932 85.4341L32.9797 85.6428L32.8278 86.3965C32.9979 86.2038 33.1945 86.0359 33.412 85.8979C33.6841 85.7671 33.9925 85.7303 34.2881 85.7935L34.3466 85.8631Z" fill="white"/>
<path d="M37.6174 86.4665C37.9122 86.6454 38.1509 86.9024 38.3066 87.2086C38.4522 87.5011 38.5319 87.8216 38.5403 88.1478C38.5644 88.4372 38.5644 88.728 38.5403 89.0174L35.3276 88.6464C35.2957 88.825 35.3113 89.0087 35.3727 89.1795C35.4342 89.3503 35.5394 89.5023 35.6781 89.6204C35.8563 89.7595 36.0714 89.8441 36.2972 89.8639C36.5274 89.9023 36.7639 89.857 36.9631 89.7363C37.0723 89.6644 37.1641 89.5694 37.2318 89.4581L38.4001 89.5972C38.3051 89.8919 38.1217 90.1509 37.8744 90.3393C37.634 90.5344 37.3541 90.6757 37.0537 90.7538C36.7533 90.8318 36.4395 90.8447 36.1337 90.7915C35.5509 90.7502 35.0049 90.4937 34.6033 90.0726C34.3889 89.8234 34.2352 89.5285 34.1541 89.2107C34.0731 88.893 34.0669 88.561 34.136 88.2405C34.1538 87.9223 34.2352 87.6107 34.3756 87.324C34.516 87.0374 34.7126 86.7813 34.9538 86.5708C35.1856 86.3943 35.4512 86.2664 35.7343 86.1946C36.0174 86.1229 36.3123 86.1088 36.601 86.1534C36.9582 86.1856 37.3046 86.2922 37.6174 86.4665ZM35.7715 87.2549C35.576 87.4197 35.4405 87.6439 35.386 87.8927L37.372 88.1246C37.3879 87.9942 37.3763 87.862 37.3381 87.7363C37.2999 87.6106 37.2359 87.494 37.1501 87.3941C36.9764 87.2159 36.7445 87.1049 36.4958 87.081C36.3696 87.0592 36.2401 87.0633 36.1155 87.0932C35.9909 87.1232 35.8738 87.1782 35.7715 87.2549Z" fill="white"/>
<path d="M38.9023 89.6782H40.0706V90.8378H38.9023V89.6782Z" fill="white"/>
<path d="M47.4307 88.1474C47.015 88.4947 46.4904 88.6875 45.947 88.6924L44.697 88.7735L44.8489 90.9187L43.6105 90.9998L43.1899 85.063L45.7601 84.8775C46.2749 84.8133 46.7954 84.9415 47.2204 85.237C47.4224 85.4077 47.583 85.6215 47.6902 85.8625C47.7974 86.1034 47.8484 86.3652 47.8396 86.6284C47.8901 86.8958 47.8796 87.1711 47.8088 87.434C47.7381 87.6968 47.6089 87.9406 47.4307 88.1474ZM46.3208 86.0718C46.1162 85.9424 45.8721 85.889 45.6316 85.9211L44.4633 86.0022L44.6269 87.7531L45.7951 87.672C46.0372 87.669 46.2699 87.5782 46.4493 87.4169C46.5196 87.3146 46.5674 87.1987 46.5896 87.0768C46.6117 86.9549 46.6077 86.8298 46.5779 86.7096C46.5863 86.5909 46.5675 86.4719 46.523 86.3615C46.4785 86.251 46.4094 86.152 46.3208 86.0718Z" fill="white"/>
<path d="M50.7604 85.7009H50.8539L51.0408 86.8605H50.8422H50.7137C50.5269 86.8633 50.3451 86.921 50.1913 87.0262C50.0374 87.1315 49.9184 87.2795 49.8492 87.4518C49.7825 87.7144 49.7825 87.9893 49.8492 88.2519L50.1763 90.3275L49.0081 90.5014L48.3071 86.1531L49.4053 85.9792L49.5221 86.7445C49.6126 86.5032 49.7386 86.2766 49.8959 86.072C50.1039 85.8493 50.3862 85.7092 50.6903 85.6777L50.7604 85.7009Z" fill="white"/>
<path d="M55.7135 88.623C55.3774 89.1622 54.8417 89.5492 54.2215 89.7009C53.6012 89.8527 52.9457 89.7571 52.3957 89.4347C51.9124 89.0674 51.5769 88.5412 51.4494 87.9505C51.2982 87.3705 51.3518 86.7567 51.6013 86.2112C51.9409 85.6755 52.4792 85.2938 53.0999 85.1484C53.7206 85.0031 54.374 85.1058 54.9191 85.4343C55.3995 85.7971 55.7315 86.3201 55.8537 86.9069C56.0097 87.4777 55.9601 88.0846 55.7135 88.623ZM54.6504 88.2288C54.7645 87.8862 54.7645 87.5162 54.6504 87.1736C54.5898 86.8181 54.4133 86.4923 54.148 86.246C54.0307 86.1506 53.8913 86.0858 53.7424 86.0575C53.5934 86.0292 53.4397 86.0381 53.2952 86.0836C53.1477 86.1127 53.0093 86.1763 52.8914 86.269C52.7736 86.3618 52.6797 86.4811 52.6176 86.617C52.5036 86.9557 52.5036 87.3219 52.6176 87.6606C52.6854 88.0195 52.8652 88.3481 53.1317 88.5998C53.25 88.6934 53.3894 88.757 53.5379 88.7853C53.6865 88.8135 53.8397 88.8056 53.9845 88.7622C54.1314 88.7351 54.2692 88.6722 54.3854 88.5791C54.5017 88.486 54.5927 88.3656 54.6504 88.2288Z" fill="white"/>
<path d="M57.092 82.4545L57.3257 82.3965L57.6177 83.2893L57.3023 83.3705C57.1504 83.3705 57.057 83.4864 57.0336 83.5676C57.0042 83.6501 57.0042 83.7402 57.0336 83.8227C57.0336 83.9039 57.1037 84.0198 57.1504 84.1706L57.8747 83.9387L58.1317 84.704L57.4074 84.9475L58.5757 88.3217L57.4775 88.6811L56.3093 85.2953L55.6901 85.504L55.4331 84.7271L56.0406 84.5416L55.9238 84.2749C55.7768 83.9626 55.7518 83.6073 55.8537 83.2777C55.9238 82.9763 56.2742 82.7212 56.8817 82.524L57.092 82.4545Z" fill="white"/>
<path d="M59.1248 82.8253L58.015 83.2428L57.6411 82.2572L58.7393 81.8281L59.1248 82.8253ZM58.2136 83.7414L59.3117 83.3123L60.9005 87.4287L59.8024 87.8461L58.2136 83.7414Z" fill="white"/>
<path d="M60.0829 83.9501L59.7441 83.1964L60.3049 82.9529L59.8142 81.7934L60.8657 81.3296L61.3563 82.4891L62.0222 82.1992L62.361 82.9529L61.6951 83.2428L62.6531 85.4343C62.7232 85.5967 62.7816 85.6894 62.8517 85.7126C62.9954 85.7189 63.1377 85.6826 63.2606 85.6083H63.3657H63.4708L63.8213 86.3967L63.319 86.6286C63.1506 86.7442 62.9587 86.8217 62.7569 86.8557C62.555 86.8898 62.3481 86.8796 62.1507 86.8258C61.9517 86.7267 61.7974 86.557 61.7185 86.3504L60.597 83.695L60.0829 83.9501Z" fill="white"/>
<path d="M63.9146 84.7963L65.0127 84.2397L65.5618 85.3181L64.4636 85.8747L63.9146 84.7963Z" fill="white"/>
<path d="M96.7541 24.4312H94.6045V60.7709H96.7541V24.4312Z" fill="white"/>
<path d="M269 24.4312H266.851V60.7709H269V24.4312Z" fill="white"/>
<path d="M103.752 46.4856C104.156 46.459 104.548 46.3406 104.899 46.1395C105.249 45.9385 105.548 45.6602 105.773 45.326C106.339 44.4098 106.808 43.4384 107.175 42.4272L114.909 23.5269H115.867L123.682 41.6967C124.208 43.0679 124.861 44.3877 125.633 45.6391C125.839 45.926 126.116 46.1548 126.437 46.3033C126.759 46.4517 127.114 46.5145 127.467 46.4856V47.3668H116.205V46.4856C116.959 46.4978 117.711 46.4001 118.437 46.1957C118.799 46.0565 118.974 45.6855 118.974 45.0941C118.942 44.6703 118.852 44.2528 118.705 43.8534C118.589 43.5288 118.437 43.1345 118.238 42.6939L117.362 40.5952H109.546L108.495 43.2737C108.249 43.8938 108.096 44.5461 108.039 45.2101C108.039 45.6971 108.366 46.0565 109.044 46.2885C109.625 46.43 110.222 46.4962 110.82 46.4856V47.3668H103.729L103.752 46.4856ZM116.801 39.2269L113.46 31.2377H113.168L110.025 39.2269H116.801Z" fill="white"/>
<path d="M128.624 46.5436C129.098 46.4559 129.544 46.2528 129.92 45.9522C130.237 45.5168 130.375 44.9777 130.306 44.4449V26.8664C130.369 26.3591 130.24 25.8468 129.944 25.4285C129.56 25.1307 129.105 24.9351 128.624 24.8604V24.0371H135.212V44.4449C135.142 44.9761 135.275 45.5142 135.586 45.9522C135.973 46.2502 136.425 46.4529 136.906 46.5436V47.3669H128.624V46.5436Z" fill="white"/>
<path d="M146.545 46.4856C147.464 46.6017 148.393 46.3515 149.127 45.7899C149.568 45.1994 149.78 44.4706 149.722 43.7375V27.3418C149.769 27.0012 149.732 26.6544 149.614 26.3312C149.496 26.008 149.301 25.7182 149.045 25.4865C148.293 25.1162 147.466 24.9218 146.627 24.9184V24.0371H155.388L162.234 40.0154H162.526L169.326 24.0371H178.099V24.9184C177.25 24.9088 176.413 25.1293 175.681 25.5561C175.249 25.904 175.038 26.7156 175.038 28.0607V43.3317C174.924 44.2137 175.153 45.1058 175.681 45.8247C176.391 46.3048 177.241 46.5372 178.099 46.4856V47.3669H166.545V46.4856C167.354 46.51 168.157 46.3347 168.882 45.9754C169.407 45.6624 169.664 44.9898 169.664 43.9463V27.0751H169.407L160.891 47.3669H159.898L151.335 27.4577H151.183V43.0882C151.108 43.9746 151.334 44.8602 151.825 45.6044C152.217 45.932 152.672 46.1787 153.161 46.33C153.651 46.4813 154.165 46.5342 154.676 46.4856V47.3669H146.498L146.545 46.4856Z" fill="white"/>
<path d="M181.615 33.2554C182.268 32.5505 183.064 31.99 183.949 31.6104C184.835 31.2308 185.791 31.0406 186.756 31.0523C187.896 31.0536 189.014 31.3622 189.992 31.9451C190.994 32.5329 191.805 33.3942 192.328 34.4265C192.786 35.4037 193.074 36.4503 193.181 37.5224C193.249 37.9756 193.288 38.4326 193.298 38.8907H184.431C184.482 40.115 184.71 41.3256 185.109 42.4852C185.296 43.2929 185.754 44.0135 186.408 44.5295C187.061 45.0455 187.872 45.3263 188.707 45.3261C189.547 45.3287 190.365 45.0646 191.043 44.5724C191.618 44.1233 192.143 43.614 192.609 43.0534L193.403 43.5404C192.537 45.0896 191.239 46.3578 189.665 47.1929C188.674 47.6497 187.591 47.8757 186.499 47.8539C184.7 47.8141 182.983 47.097 181.697 45.8479C180.202 44.5144 179.443 42.3693 179.443 39.4473C179.375 38.3239 179.532 37.1984 179.905 36.1356C180.278 35.0729 180.859 34.0939 181.615 33.2554ZM189.01 37.6152C189.062 36.1773 188.9 34.7397 188.531 33.3481C188.425 32.971 188.193 32.6411 187.872 32.4133C187.551 32.1855 187.161 32.0735 186.767 32.0958C186.342 32.0815 185.925 32.2133 185.587 32.4689C185.248 32.7246 185.009 33.0884 184.91 33.4989C184.512 34.8229 184.319 36.199 184.337 37.5804L189.01 37.6152Z" fill="white"/>
<path d="M196.884 33.2556C197.536 32.549 198.331 31.9873 199.217 31.6076C200.103 31.2278 201.059 31.0387 202.024 31.0525C203.161 31.0524 204.276 31.3611 205.249 31.9453C206.25 32.5342 207.061 33.3952 207.585 34.4267C208.045 35.4024 208.329 36.45 208.426 37.5226C208.497 37.9757 208.54 38.4327 208.555 38.8909H199.618C199.672 40.1157 199.904 41.3264 200.307 42.4854C200.492 43.2921 200.948 44.0125 201.6 44.5286C202.251 45.0447 203.06 45.326 203.894 45.3263C204.734 45.3305 205.553 45.0662 206.23 44.5726C206.835 44.1244 207.387 43.6111 207.877 43.042L208.683 43.529C207.817 45.0782 206.519 46.3464 204.945 47.1815C203.954 47.6371 202.871 47.8631 201.779 47.8425C199.976 47.8056 198.255 47.0883 196.966 45.8365C195.471 44.503 194.723 42.3579 194.723 39.4359C194.655 38.3152 194.811 37.1923 195.182 36.1317C195.553 35.0711 196.132 34.0937 196.884 33.2556ZM204.291 37.627C204.348 36.1888 204.186 34.7503 203.812 33.3599C203.711 32.9742 203.477 32.6359 203.15 32.4048C202.823 32.1736 202.425 32.0643 202.024 32.096C201.598 32.0833 201.181 32.2155 200.841 32.4707C200.501 32.7259 200.259 33.0887 200.155 33.4991C199.758 34.8231 199.565 36.1992 199.583 37.5806L204.291 37.627Z" fill="white"/>
<path d="M209.969 47.3668V46.4855L218.45 32.5712C216.795 32.4585 215.133 32.6431 213.544 33.1161C212.632 33.5104 211.943 34.5771 211.464 36.328H210.588L210.822 31.458H224.069V32.3392L215.74 46.3348C217.352 46.3976 218.962 46.1738 220.495 45.6739C221.202 45.2651 221.816 44.7132 222.295 44.054C222.774 43.3948 223.108 42.643 223.275 41.8474H224.233L223.672 47.3668H209.969Z" fill="white"/>
<path d="M227.656 40.4444C229.892 39.2379 232.27 38.3109 234.735 37.6847V35.1801C234.817 34.3531 234.583 33.5259 234.081 32.8611C233.766 32.5819 233.395 32.3723 232.992 32.2464C232.589 32.1205 232.164 32.081 231.745 32.1305C231.209 32.111 230.677 32.2309 230.203 32.4784C230.032 32.555 229.887 32.6766 229.782 32.8301C229.676 32.9835 229.616 33.1627 229.607 33.3481C229.604 33.464 229.628 33.5791 229.677 33.6843C229.725 33.792 229.792 33.8901 229.876 33.9742L230.074 34.2061C230.235 34.3932 230.365 34.6046 230.46 34.8323C230.558 35.0676 230.61 35.3196 230.612 35.5744C230.626 35.8586 230.575 36.1424 230.462 36.4038C230.348 36.6652 230.176 36.8971 229.957 37.0817C229.525 37.4308 228.984 37.6194 228.427 37.6151C227.805 37.6294 227.199 37.4193 226.721 37.0238C226.482 36.8107 226.295 36.5466 226.174 36.2514C226.052 35.9562 226 35.6375 226.02 35.3193C226.018 34.6756 226.192 34.0435 226.523 33.4902C226.855 32.9369 227.331 32.483 227.901 32.1769C229.318 31.363 230.938 30.9611 232.574 31.0174C234.296 30.9658 236 31.3658 237.516 32.1769C238.836 32.9422 239.49 34.3453 239.49 36.386V44.7462C239.48 44.9716 239.551 45.1932 239.689 45.3724C239.734 45.4482 239.797 45.512 239.872 45.5585C239.947 45.6049 240.033 45.6326 240.121 45.6391C240.247 45.6427 240.371 45.6148 240.483 45.5579C240.668 45.4456 240.837 45.3091 240.986 45.1521L241.511 45.871C240.909 46.6053 240.13 47.1758 239.245 47.5291C238.719 47.7303 238.161 47.8325 237.598 47.8306C237.178 47.8651 236.756 47.8024 236.364 47.6475C235.973 47.4925 235.624 47.2496 235.343 46.9378C235.028 46.4888 234.824 45.9724 234.747 45.4304C233.842 46.3583 232.724 47.0546 231.488 47.4596C230.788 47.6988 230.055 47.8241 229.315 47.8306C228.351 47.8248 227.416 47.5072 226.651 46.9262C226.228 46.5957 225.894 46.1667 225.678 45.6772C225.462 45.1877 225.371 44.6529 225.413 44.1201C225.413 43.3626 225.623 42.6197 226.018 41.9717C226.413 41.3238 226.98 40.7956 227.656 40.4444ZM233.707 44.8506C234.063 44.5677 234.388 44.249 234.677 43.8998V38.8906C233.804 39.0895 232.977 39.4473 232.235 39.9458C231.693 40.2753 231.244 40.7369 230.931 41.2868C230.618 41.8366 230.452 42.4567 230.448 43.0881C230.403 43.7032 230.586 44.3136 230.962 44.8042C231.1 44.9826 231.277 45.1281 231.479 45.2304C231.681 45.3327 231.904 45.3891 232.13 45.3956C232.7 45.3817 233.252 45.1911 233.707 44.8506Z" fill="white"/>
<path d="M242.282 46.5437C242.791 46.5103 243.279 46.3288 243.684 46.0219C243.86 45.8016 243.99 45.5487 244.066 45.2779C244.143 45.0071 244.164 44.7239 244.128 44.4449V34.299C244.18 33.7852 244.052 33.2693 243.766 32.838C243.346 32.498 242.824 32.3062 242.282 32.293V31.4698H248.871V33.9512C249.427 33.1156 250.161 32.411 251.021 31.8872C251.865 31.3427 252.852 31.0564 253.859 31.0639C255.136 30.9775 256.395 31.3941 257.364 32.2235C257.834 32.7765 258.185 33.418 258.398 34.1095C258.611 34.801 258.68 35.5281 258.603 36.247V44.5957C258.603 45.3725 258.731 45.8711 259 46.0915C259.391 46.3669 259.853 46.5277 260.332 46.5553V47.3785H252.154V46.5553C252.593 46.4715 253.006 46.2846 253.357 46.0103C253.643 45.5836 253.763 45.0688 253.696 44.5609V36.2238C253.721 35.6236 253.642 35.0234 253.462 34.4498C253.347 34.1205 253.125 33.8384 252.832 33.6475C252.538 33.4566 252.189 33.3676 251.838 33.3946C251.226 33.3963 250.638 33.6284 250.191 34.0439C249.742 34.4197 249.348 34.857 249.023 35.3426V44.6189C248.956 45.1267 249.076 45.6415 249.362 46.0683C249.737 46.3405 250.175 46.5158 250.635 46.5785V47.4017H242.271L242.282 46.5437Z" fill="white"/>
<path d="M103.331 59.5186C103.701 59.5317 104.068 59.4477 104.394 59.2751C104.558 59.1475 104.639 58.8113 104.639 58.2779V52.086C104.688 51.7384 104.6 51.3856 104.394 51.1004C104.075 50.906 103.705 50.8129 103.331 50.8337V50.5786H107.326V50.8337C106.953 50.8151 106.583 50.908 106.263 51.1004C106.057 51.3856 105.969 51.7384 106.018 52.086V58.2779C106.018 58.8113 106.1 59.1475 106.263 59.2751C106.591 59.4462 106.957 59.5301 107.326 59.5186V59.7853H103.343L103.331 59.5186Z" fill="white"/>
<path d="M107.771 59.5884C108.011 59.5845 108.242 59.4985 108.425 59.3449C108.584 59.1097 108.65 58.8252 108.612 58.5448V55.0662C108.622 54.8627 108.599 54.659 108.542 54.4632C108.49 54.3758 108.414 54.3051 108.323 54.2598C108.232 54.2145 108.129 54.1966 108.028 54.2081H107.899H107.747V53.9646L109.021 53.5472L109.64 53.3385C109.64 53.3385 109.64 53.3385 109.64 53.4429V54.4401C109.924 54.1392 110.242 53.8709 110.586 53.64C110.899 53.425 111.269 53.3079 111.649 53.3037C111.94 53.3054 112.222 53.3988 112.455 53.5704C112.716 53.7949 112.917 54.0793 113.041 54.3986C113.165 54.7179 113.209 55.0626 113.168 55.4025V58.5796C113.143 58.8299 113.21 59.0808 113.355 59.2869C113.439 59.3657 113.538 59.426 113.647 59.464C113.755 59.5019 113.871 59.5167 113.986 59.5072V59.7043H111.182V59.5072C111.427 59.4899 111.66 59.3966 111.848 59.2405C112.013 58.969 112.083 58.651 112.047 58.3361V55.5184C112.06 55.1814 111.987 54.8465 111.836 54.5444C111.758 54.4137 111.644 54.3081 111.508 54.2403C111.371 54.1724 111.217 54.1451 111.065 54.1618C110.781 54.17 110.507 54.2675 110.283 54.4401C110.076 54.5967 109.881 54.7671 109.698 54.9502V58.7651C109.684 58.8838 109.695 59.0042 109.731 59.1182C109.767 59.2323 109.828 59.3372 109.909 59.426C110.108 59.5491 110.34 59.6097 110.575 59.6V59.7971H107.701L107.771 59.5884Z" fill="white"/>
<path d="M117.082 53.4775V53.6862C116.917 53.6955 116.756 53.7307 116.603 53.7906C116.553 53.8228 116.514 53.8681 116.489 53.9214C116.464 53.9747 116.455 54.0338 116.462 54.0921C116.457 54.1615 116.457 54.2313 116.462 54.3008L116.568 54.5907L117.946 57.9997L119.114 54.9849C119.114 54.8342 119.231 54.6834 119.278 54.5211C119.317 54.4008 119.34 54.2762 119.348 54.1501C119.354 54.0687 119.333 53.9876 119.289 53.9188C119.245 53.8499 119.179 53.7969 119.103 53.7674C118.981 53.7165 118.85 53.6889 118.717 53.6862V53.4775H120.575V53.6862C120.487 53.6858 120.4 53.7054 120.321 53.7436C120.242 53.7818 120.173 53.8376 120.119 53.9066C119.951 54.189 119.814 54.4883 119.71 54.7994L117.841 59.6926C117.818 59.7525 117.791 59.8106 117.759 59.8665C117.729 59.8772 117.696 59.8772 117.666 59.8665C117.666 59.8665 117.584 59.8665 117.549 59.7854L117.455 59.5883L115.446 54.6255C115.345 54.3108 115.164 54.0273 114.92 53.8022C114.778 53.7064 114.613 53.6504 114.441 53.6399V53.4312L117.082 53.4775Z" fill="white"/>
<path d="M125.551 54.1271C125.793 54.3746 125.981 54.6695 126.101 54.993C126.222 55.3164 126.273 55.6613 126.252 56.0055H122.082C122.043 56.8334 122.286 57.65 122.771 58.3246C122.947 58.5451 123.171 58.724 123.425 58.8483C123.68 58.9726 123.959 59.0393 124.243 59.0435C124.663 59.0556 125.076 58.9247 125.411 58.6724C125.764 58.3749 126.06 58.0176 126.287 57.6173L126.509 57.6868C126.314 58.2953 125.969 58.8454 125.505 59.287C125.261 59.5114 124.973 59.6837 124.66 59.7934C124.346 59.9031 124.014 59.9478 123.682 59.9247C123.308 59.9396 122.937 59.8589 122.603 59.6904C122.27 59.5219 121.986 59.2712 121.778 58.9623C121.323 58.309 121.086 57.5303 121.1 56.736C121.088 55.8971 121.364 55.0791 121.883 54.417C122.117 54.1021 122.424 53.8474 122.778 53.6739C123.131 53.5005 123.521 53.4133 123.916 53.4198C124.222 53.421 124.526 53.4844 124.807 53.606C125.088 53.7277 125.341 53.905 125.551 54.1271ZM122.409 54.6489C122.252 54.9374 122.149 55.2517 122.105 55.5765H124.85C124.83 55.2283 124.747 54.8866 124.605 54.5677C124.5 54.3776 124.344 54.2204 124.154 54.1138C123.964 54.0072 123.748 53.9556 123.53 53.9647C123.304 53.9584 123.08 54.0133 122.882 54.1236C122.684 54.2339 122.521 54.3954 122.409 54.5909V54.6489Z" fill="white"/>
<path d="M127.456 57.6056H127.677C127.747 58.0123 127.885 58.4043 128.086 58.7652C128.218 59.0019 128.413 59.1977 128.651 59.3308C128.888 59.4638 129.158 59.529 129.43 59.5189C129.571 59.5268 129.712 59.5062 129.844 59.4584C129.977 59.4105 130.098 59.3364 130.201 59.2406C130.297 59.1448 130.372 59.0307 130.423 58.9051C130.473 58.7795 130.497 58.6451 130.493 58.5101C130.489 58.3171 130.433 58.1287 130.329 57.9651C130.177 57.7492 129.978 57.5708 129.745 57.4433L129.009 57.0143C128.571 56.7808 128.176 56.475 127.841 56.1098C127.593 55.8051 127.46 55.4233 127.467 55.0315C127.459 54.7975 127.502 54.5647 127.593 54.3486C127.684 54.1326 127.82 53.9384 127.993 53.7792C128.351 53.4501 128.825 53.275 129.313 53.2922C129.572 53.2964 129.829 53.3435 130.072 53.4313L130.54 53.5705C130.597 53.5863 130.658 53.5863 130.715 53.5705C130.757 53.5424 130.79 53.5019 130.808 53.4545H130.96V55.3561H130.762C130.697 54.9967 130.579 54.6489 130.411 54.3242C130.297 54.1164 130.128 53.9437 129.922 53.825C129.716 53.7064 129.481 53.6464 129.243 53.6516C129.108 53.6445 128.974 53.6667 128.848 53.7168C128.723 53.7669 128.611 53.8436 128.519 53.9415C128.348 54.1285 128.256 54.3733 128.262 54.6256C128.262 55.0431 128.554 55.4141 129.161 55.7852L130.026 56.2722C130.96 56.794 131.428 57.4317 131.428 58.1042C131.437 58.3523 131.389 58.5992 131.288 58.8263C131.187 59.0533 131.035 59.2545 130.843 59.4145C130.419 59.7674 129.877 59.9495 129.325 59.9247C129.024 59.9178 128.725 59.871 128.437 59.7856C128.246 59.7237 128.051 59.6772 127.853 59.6464C127.808 59.6295 127.758 59.6295 127.713 59.6464L127.619 59.7856H127.444L127.456 57.6056Z" fill="white"/>
<path d="M135.365 53.524V54.011H134.021V57.9186C134.01 58.184 134.038 58.4495 134.103 58.7071C134.137 58.8428 134.218 58.9628 134.33 59.0471C134.443 59.1315 134.581 59.1751 134.722 59.1709C134.867 59.1752 135.01 59.1347 135.131 59.0549C135.278 58.9478 135.412 58.8232 135.528 58.6839L135.703 58.8346L135.552 59.0433C135.369 59.3225 135.12 59.5533 134.827 59.7159C134.602 59.8403 134.349 59.908 134.091 59.913C133.862 59.9256 133.635 59.8617 133.446 59.7314C133.258 59.6011 133.119 59.412 133.051 59.1941C132.935 58.8508 132.883 58.4892 132.9 58.1273V54.011H132.175C132.175 54.011 132.175 53.9298 132.175 53.9066C132.229 53.8404 132.292 53.7819 132.362 53.7327C132.597 53.5378 132.816 53.3245 133.016 53.0949C133.157 52.9442 133.46 52.5152 133.963 51.8311H134.068C134.068 51.8311 134.068 51.8311 134.068 51.9354V53.6051L135.365 53.524Z" fill="white"/>
<path d="M135.809 59.6116C136.051 59.6098 136.288 59.5459 136.498 59.426C136.599 59.3229 136.674 59.1981 136.719 59.0614C136.763 58.9248 136.776 58.7797 136.755 58.6375V55.159C136.783 54.9307 136.738 54.6994 136.626 54.498C136.574 54.4403 136.509 54.3955 136.435 54.3673C136.362 54.3392 136.284 54.3283 136.206 54.3357H135.995H135.844V54.127L136.311 53.9646C136.486 53.9646 136.767 53.8023 137.152 53.64L137.771 53.4081C137.779 53.4541 137.779 53.5012 137.771 53.5472V54.4632C138.113 54.1213 138.507 53.8356 138.939 53.6168C139.238 53.459 139.571 53.3754 139.909 53.3733C140.113 53.3646 140.316 53.4031 140.503 53.4856C140.689 53.568 140.854 53.6923 140.984 53.8487C141.144 54.0607 141.263 54.3006 141.334 54.556C141.592 54.2767 141.878 54.0241 142.187 53.8023C142.556 53.5307 143.001 53.3806 143.461 53.3733C143.762 53.3473 144.064 53.4207 144.32 53.5821C144.575 53.7435 144.77 53.9838 144.874 54.2661C145.029 54.7809 145.096 55.3179 145.073 55.8547V58.7651C145.058 58.8838 145.069 59.0042 145.106 59.1182C145.142 59.2323 145.202 59.3372 145.283 59.426C145.507 59.5674 145.765 59.6474 146.031 59.6579V59.8319H143.063V59.6347C143.334 59.6352 143.599 59.5544 143.823 59.4028C143.966 59.1789 144.028 58.9129 143.998 58.6491V55.6807C144.016 55.3501 143.968 55.0192 143.858 54.7067C143.78 54.5266 143.646 54.3757 143.476 54.2756C143.306 54.1756 143.108 54.1317 142.912 54.1502C142.604 54.1596 142.307 54.2606 142.059 54.44C141.844 54.6039 141.645 54.7863 141.463 54.985V58.4636C141.441 58.7541 141.506 59.0444 141.65 59.2985C141.749 59.4074 141.873 59.4923 142.01 59.5466C142.148 59.6009 142.297 59.6231 142.444 59.6116V59.7855H139.43V59.6116C139.724 59.6041 140.006 59.4931 140.225 59.2985C140.37 58.9301 140.426 58.5328 140.388 58.1389V56.2489C140.413 55.766 140.37 55.282 140.26 54.8111C140.208 54.6111 140.088 54.4354 139.919 54.3146C139.75 54.1938 139.544 54.1356 139.337 54.1502C139.059 54.1551 138.789 54.2353 138.554 54.3821C138.29 54.5367 138.057 54.737 137.865 54.9734V58.6839C137.829 58.8125 137.828 58.9482 137.862 59.0772C137.896 59.2062 137.964 59.3239 138.06 59.4182C138.155 59.5125 138.273 59.5801 138.403 59.6141C138.533 59.6481 138.67 59.6472 138.799 59.6116V59.7855H135.809V59.6116Z" fill="white"/>
<path d="M150.692 54.1267C150.934 54.3743 151.121 54.6692 151.242 54.9926C151.363 55.316 151.414 55.6609 151.393 56.0051H147.222C147.184 56.833 147.427 57.6496 147.912 58.3242C148.089 58.5462 148.315 58.726 148.571 58.8504C148.828 58.9748 149.11 59.0406 149.395 59.0431C149.816 59.0562 150.229 58.9251 150.564 58.6721C150.916 58.3745 151.213 58.0173 151.44 57.6169L151.673 57.6865C151.47 58.2934 151.121 58.8424 150.657 59.2866C150.424 59.5283 150.142 59.719 149.83 59.8468C149.519 59.9746 149.183 60.0365 148.846 60.0287C148.472 60.0436 148.101 59.9629 147.767 59.7944C147.434 59.6259 147.15 59.3752 146.942 59.0663C146.492 58.4103 146.256 57.6334 146.264 56.84C146.257 56.002 146.533 55.1857 147.047 54.5209C147.283 54.2052 147.592 53.95 147.948 53.7765C148.303 53.6031 148.695 53.5164 149.092 53.5237C149.684 53.5081 150.259 53.7247 150.692 54.1267ZM147.549 54.6485C147.393 54.937 147.29 55.2513 147.246 55.5761H150.026C149.998 55.228 149.911 54.8871 149.769 54.5673C149.665 54.3772 149.508 54.22 149.319 54.1134C149.129 54.0069 148.912 53.9552 148.694 53.9644C148.464 53.955 148.236 54.0084 148.034 54.1188C147.832 54.2292 147.664 54.3923 147.549 54.5905V54.6485Z" fill="white"/>
<path d="M152.14 59.5883C152.38 59.5826 152.61 59.4968 152.795 59.3448C152.953 59.1096 153.02 58.8251 152.982 58.5447V55.0661C152.996 54.8617 152.968 54.6566 152.9 54.4631C152.849 54.3746 152.774 54.3031 152.682 54.2576C152.59 54.2122 152.487 54.1949 152.386 54.208H152.269H152.117V53.9645L153.39 53.5471L154.01 53.3384V54.4979C154.299 54.2027 154.616 53.9348 154.956 53.6978C155.269 53.4848 155.639 53.3679 156.019 53.3616C156.313 53.3607 156.6 53.4543 156.837 53.6283C157.093 53.8552 157.291 54.1402 157.413 54.4592C157.535 54.7781 157.578 55.1215 157.538 55.4603V58.6374C157.516 58.8892 157.587 59.1402 157.736 59.3448C157.819 59.4248 157.918 59.486 158.027 59.524C158.136 59.5621 158.252 59.5761 158.367 59.5651V59.7622H155.552V59.5651C155.8 59.5502 156.038 59.4567 156.229 59.2984C156.389 59.0252 156.455 58.7076 156.416 58.3939V55.5183C156.429 55.1813 156.357 54.8464 156.206 54.5443C156.128 54.4136 156.014 54.308 155.877 54.2401C155.74 54.1723 155.587 54.145 155.435 54.1616C155.151 54.1715 154.878 54.2688 154.652 54.4399C154.45 54.5973 154.259 54.7678 154.08 54.9501V58.765C154.065 58.8837 154.076 59.0041 154.113 59.1181C154.149 59.2322 154.209 59.3371 154.29 59.4259C154.489 59.549 154.721 59.6096 154.956 59.5998V59.797H152.082L152.14 59.5883Z" fill="white"/>
<path d="M161.977 53.524V54.011H160.645V57.9186C160.637 58.1846 160.669 58.4502 160.739 58.7071C160.771 58.8439 160.851 58.9651 160.964 59.0498C161.077 59.1345 161.216 59.1773 161.358 59.1709C161.503 59.1752 161.646 59.1347 161.767 59.0549C161.914 58.9478 162.047 58.8232 162.164 58.6839L162.327 58.8346L162.187 59.0433C162.004 59.3225 161.756 59.5533 161.463 59.7159C161.236 59.8374 160.984 59.9049 160.727 59.913C160.496 59.9263 160.267 59.8628 160.077 59.7326C159.887 59.6024 159.745 59.4129 159.676 59.1941C159.565 58.8495 159.513 58.4888 159.524 58.1273V54.011H158.811C158.797 53.9775 158.797 53.9401 158.811 53.9066C158.865 53.8404 158.928 53.7819 158.998 53.7327C159.23 53.5347 159.449 53.3217 159.652 53.0949C159.781 52.9442 160.096 52.5152 160.598 51.8311H160.692C160.692 51.8311 160.692 51.8311 160.692 51.9354V53.6051L161.977 53.524Z" fill="white"/>
<path d="M165.739 59.5186C166.129 59.5259 166.507 59.3895 166.802 59.136C167.016 58.7007 167.101 58.2142 167.047 57.7329V52.086C167.088 51.7404 167.005 51.3916 166.814 51.1004C166.499 50.9055 166.132 50.8123 165.762 50.8337V50.5786H168.426L171.51 57.5358L174.524 50.5786H177.199V50.8337C177.029 50.7955 176.852 50.8023 176.686 50.8535C176.519 50.9047 176.369 50.9984 176.251 51.1253C176.133 51.2522 176.05 51.4078 176.011 51.5764C175.973 51.745 175.98 51.9208 176.031 52.086V58.2663C175.987 58.6053 176.061 58.949 176.241 59.2403C176.528 59.4308 176.866 59.5281 177.211 59.5186V59.7853H173.449V59.5186C173.813 59.5406 174.173 59.4337 174.466 59.2171C174.648 58.8592 174.717 58.4551 174.664 58.0576V51.8657L171.159 59.7853H170.973L167.585 52.1904V57.7329C167.523 58.2501 167.638 58.7729 167.912 59.2171C168.182 59.4161 168.51 59.522 168.846 59.5186V59.7853H165.739V59.5186Z" fill="white"/>
<path d="M178.87 56.7825C179.636 56.3413 180.441 55.9725 181.276 55.6809V55.1012C181.295 54.7752 181.251 54.4487 181.148 54.1387C181.057 53.9809 180.92 53.8536 180.756 53.7731C180.592 53.6925 180.407 53.6624 180.225 53.6865C179.999 53.6852 179.777 53.7453 179.582 53.8605C179.491 53.9086 179.415 53.9804 179.361 54.0682C179.308 54.156 179.279 54.2565 179.279 54.3591C179.271 54.4517 179.271 54.5447 179.279 54.6373C179.284 54.7184 179.284 54.7998 179.279 54.8808C179.289 54.9834 179.272 55.0868 179.229 55.1806C179.186 55.2743 179.118 55.355 179.033 55.4142C178.936 55.476 178.822 55.5083 178.706 55.507C178.619 55.5116 178.532 55.495 178.452 55.4587C178.373 55.4223 178.304 55.3672 178.251 55.2983C178.146 55.1751 178.088 55.0191 178.087 54.8577C178.11 54.6619 178.173 54.4727 178.271 54.3014C178.37 54.1301 178.502 53.9802 178.66 53.8605C179.127 53.4781 179.726 53.291 180.33 53.3387C180.671 53.3006 181.016 53.3614 181.323 53.5137C181.629 53.666 181.885 53.9032 182.059 54.1967C182.242 54.629 182.321 55.0971 182.293 55.565V58.2899C182.285 58.4734 182.305 58.6571 182.351 58.8348C182.37 58.9125 182.415 58.9813 182.479 59.0299C182.543 59.0784 182.621 59.1037 182.702 59.1015C182.786 59.1213 182.874 59.1213 182.959 59.1015C183.077 59.0374 183.191 58.9637 183.298 58.8812V59.2291C183.167 59.3959 183.013 59.5441 182.842 59.6697C182.624 59.8272 182.364 59.9161 182.094 59.9248C181.97 59.936 181.845 59.9139 181.732 59.8609C181.619 59.8079 181.522 59.7259 181.452 59.6233C181.309 59.4101 181.232 59.1603 181.23 58.9044C180.963 59.1494 180.678 59.3742 180.377 59.5769C180.031 59.8077 179.626 59.9363 179.209 59.948C179.027 59.9499 178.846 59.9137 178.679 59.8418C178.512 59.7699 178.362 59.6638 178.239 59.5306C178.101 59.3944 177.992 59.2315 177.92 59.052C177.847 58.8725 177.813 58.6802 177.818 58.487C177.821 58.1348 177.92 57.79 178.105 57.4897C178.291 57.1893 178.555 56.9448 178.87 56.7825ZM181.276 56.0172C180.839 56.1584 180.42 56.349 180.026 56.5853C179.763 56.7155 179.537 56.9108 179.371 57.1524C179.206 57.3941 179.105 57.674 179.08 57.9652C179.069 58.1364 179.099 58.3078 179.168 58.4651C179.237 58.6224 179.343 58.7611 179.477 58.8696C179.641 58.9958 179.842 59.0651 180.05 59.0667C180.366 59.0564 180.671 58.9513 180.926 58.7653C181.043 58.7035 181.142 58.6119 181.212 58.4998C181.281 58.3878 181.32 58.2593 181.323 58.1275L181.276 56.0172Z" fill="white"/>
<path d="M183.566 59.5884C183.806 59.5827 184.036 59.4969 184.22 59.3449C184.379 59.1097 184.445 58.8252 184.407 58.5448V55.0662C184.421 54.8618 184.394 54.6567 184.326 54.4632C184.276 54.3767 184.202 54.3065 184.113 54.2612C184.024 54.2158 183.923 54.1974 183.823 54.2081H183.695H183.543V53.9646L184.816 53.5472L185.435 53.3385C185.435 53.3385 185.435 53.3385 185.435 53.4429V54.4401C185.719 54.1429 186.032 53.8748 186.37 53.64C186.684 53.4269 187.053 53.31 187.433 53.3037C187.728 53.3029 188.014 53.3964 188.251 53.5704C188.509 53.7968 188.708 54.0814 188.832 54.4002C188.956 54.719 189.001 55.0628 188.963 55.4025V58.5796C188.939 58.8299 189.005 59.0808 189.15 59.2869C189.234 59.3663 189.333 59.427 189.442 59.465C189.551 59.5031 189.666 59.5174 189.781 59.5072V59.7043H186.977V59.5072C187.222 59.4899 187.455 59.3966 187.643 59.2405C187.803 58.9673 187.869 58.6497 187.83 58.3361V55.5184C187.843 55.1814 187.771 54.8465 187.62 54.5444C187.543 54.4127 187.429 54.3063 187.292 54.2382C187.155 54.1702 187.001 54.1436 186.849 54.1618C186.565 54.1716 186.292 54.2689 186.066 54.4401C185.864 54.5975 185.673 54.7679 185.494 54.9502V58.7651C185.479 58.8838 185.49 59.0042 185.527 59.1183C185.563 59.2323 185.623 59.3372 185.704 59.426C185.903 59.5491 186.135 59.6097 186.37 59.6V59.7971H183.496L183.566 59.5884Z" fill="white"/>
<path d="M191.44 56.7825C192.21 56.3419 193.02 55.9731 193.858 55.6809V55.1012C193.881 54.7741 193.833 54.4461 193.718 54.1387C193.628 53.9798 193.492 53.8516 193.327 53.7709C193.163 53.6902 192.977 53.6608 192.795 53.6865C192.569 53.688 192.348 53.7479 192.153 53.8605C192.063 53.9092 191.988 53.9814 191.937 54.0693C191.885 54.1572 191.859 54.2574 191.861 54.3591C191.861 54.3591 191.861 54.5098 191.861 54.6373C191.866 54.7184 191.866 54.7998 191.861 54.8808C191.871 54.9834 191.854 55.0868 191.811 55.1806C191.768 55.2743 191.7 55.355 191.615 55.4142C191.518 55.4773 191.404 55.5097 191.288 55.507C191.201 55.5106 191.114 55.4936 191.035 55.4573C190.956 55.421 190.886 55.3665 190.833 55.2983C190.736 55.171 190.683 55.0168 190.681 54.8577C190.701 54.6611 190.763 54.471 190.861 54.2994C190.96 54.1277 191.093 53.9783 191.253 53.8605C191.718 53.481 192.312 53.2941 192.912 53.3387C193.253 53.3006 193.598 53.3614 193.905 53.5137C194.211 53.666 194.467 53.9032 194.641 54.1967C194.828 54.6279 194.912 55.0962 194.886 55.565V58.2899C194.861 58.4706 194.861 58.6541 194.886 58.8348C194.906 58.9145 194.952 58.9849 195.019 59.0337C195.085 59.0825 195.166 59.1065 195.249 59.1015C195.329 59.1217 195.413 59.1217 195.494 59.1015C195.616 59.043 195.73 58.9689 195.833 58.8812V59.2291C195.703 59.3929 195.554 59.5408 195.389 59.6697C195.167 59.8275 194.902 59.9163 194.629 59.9248C194.505 59.9325 194.381 59.9089 194.269 59.8561C194.157 59.8034 194.06 59.7233 193.987 59.6233C193.849 59.4077 193.773 59.1594 193.765 58.9044C193.5 59.1521 193.215 59.3771 192.912 59.5769C192.567 59.8094 192.161 59.9382 191.744 59.948C191.56 59.9487 191.378 59.912 191.21 59.8402C191.041 59.7684 190.889 59.663 190.763 59.5306C190.626 59.3938 190.519 59.2306 190.449 59.051C190.378 58.8715 190.346 58.6795 190.354 58.487C190.361 58.1315 190.466 57.7848 190.657 57.4843C190.849 57.1838 191.12 56.9411 191.44 56.7825ZM193.858 56.0172C193.42 56.156 193.001 56.3468 192.608 56.5853C192.345 56.7155 192.119 56.9108 191.953 57.1524C191.788 57.3941 191.687 57.674 191.662 57.9652C191.649 58.1356 191.677 58.3067 191.744 58.4641C191.811 58.6215 191.915 58.7605 192.048 58.8696C192.211 58.9958 192.413 59.0651 192.62 59.0667C192.919 59.0607 193.21 58.9724 193.461 58.8117C193.577 58.7481 193.674 58.6561 193.744 58.5444C193.813 58.4327 193.853 58.3051 193.858 58.1739V56.0172Z" fill="white"/>
<path d="M197.141 56.7705C196.919 56.4239 196.802 56.0217 196.802 55.611C196.815 55.0523 197.031 54.517 197.41 54.1036C197.625 53.8626 197.893 53.6729 198.192 53.5484C198.491 53.424 198.815 53.368 199.139 53.3847C199.506 53.3942 199.868 53.477 200.202 53.6282C200.554 53.7748 200.93 53.8535 201.312 53.8601H202.211V54.4051H201.043C201.113 54.6022 201.183 54.7646 201.218 54.9037C201.295 55.1477 201.335 55.4018 201.335 55.6574C201.325 56.1914 201.102 56.6998 200.716 57.072C200.499 57.2909 200.239 57.4618 199.951 57.5737C199.663 57.6856 199.354 57.7359 199.046 57.7214C198.847 57.737 198.648 57.737 198.45 57.7214C198.321 57.7214 198.158 57.8373 197.947 58.0576C197.782 58.1973 197.67 58.3901 197.632 58.6026C197.632 58.7418 197.784 58.8461 198.088 58.9157C198.31 58.9642 198.537 58.9876 198.765 58.9853C199.549 58.947 200.335 59.0133 201.102 59.1824C201.403 59.2579 201.668 59.4366 201.849 59.6869C202.031 59.9372 202.118 60.243 202.095 60.5506C202.085 60.9174 201.97 61.2739 201.763 61.5779C201.556 61.882 201.266 62.121 200.926 62.2667C200.216 62.6765 199.411 62.8963 198.59 62.9045C197.988 62.9359 197.391 62.7776 196.884 62.4523C196.71 62.356 196.561 62.2193 196.451 62.0537C196.341 61.8881 196.274 61.6987 196.253 61.5014C196.257 61.328 196.318 61.1606 196.429 61.026C196.627 60.7767 196.846 60.544 197.083 60.3303L197.515 59.9245L197.585 59.8433C197.428 59.7858 197.278 59.7078 197.141 59.6114C197.063 59.5563 196.998 59.4833 196.954 59.3987C196.909 59.314 196.885 59.22 196.884 59.1244C196.898 58.9203 196.975 58.7256 197.106 58.5678C197.406 58.2213 197.73 57.8959 198.076 57.5938C197.671 57.4466 197.337 57.1524 197.141 56.7705ZM197.831 61.8261C198.29 61.976 198.772 62.0504 199.256 62.0464C199.872 62.0725 200.485 61.9365 201.032 61.6522C201.221 61.5661 201.383 61.4316 201.502 61.2624C201.621 61.0932 201.693 60.8955 201.709 60.6898C201.709 60.3883 201.522 60.1912 201.16 60.0868C200.732 60.0111 200.298 59.9762 199.863 59.9825H199.349H198.859L198.45 59.9245L197.959 59.8433C197.959 59.8433 197.784 59.9825 197.585 60.2723C197.398 60.4997 197.288 60.7795 197.27 61.0724C197.272 61.2406 197.327 61.4039 197.427 61.5392C197.528 61.6746 197.669 61.7749 197.831 61.8261ZM199.922 57.188C200.068 57.0346 200.178 56.8512 200.245 56.6509C200.311 56.4505 200.333 56.238 200.307 56.0284C200.292 55.5265 200.185 55.0315 199.992 54.5674C199.928 54.3367 199.789 54.1334 199.597 53.9888C199.405 53.8442 199.17 53.7664 198.929 53.7674C198.732 53.759 198.537 53.8161 198.377 53.9294C198.216 54.0428 198.098 54.2061 198.041 54.3935C197.954 54.6592 197.915 54.9377 197.924 55.2168C197.915 55.7369 198.049 56.2498 198.31 56.701C198.401 56.8914 198.542 57.0535 198.719 57.17C198.896 57.2864 199.102 57.3528 199.314 57.3619C199.534 57.3681 199.748 57.2984 199.922 57.1648V57.188Z" fill="white"/>
<path d="M207.258 54.1267C207.496 54.3768 207.679 54.6724 207.798 54.9954C207.916 55.3184 207.967 55.662 207.947 56.0051H203.777C203.738 56.833 203.981 57.6496 204.466 58.3242C204.644 58.5462 204.869 58.726 205.126 58.8504C205.382 58.9748 205.664 59.0406 205.95 59.0431C206.37 59.0562 206.783 58.9251 207.118 58.6721C207.47 58.3745 207.767 58.0173 207.994 57.6169L208.228 57.6865C208.028 58.2954 207.679 58.8454 207.211 59.2866C206.977 59.5034 206.701 59.6714 206.4 59.781C206.099 59.8905 205.779 59.9392 205.459 59.9243C205.083 59.939 204.71 59.8583 204.375 59.6899C204.04 59.5215 203.753 59.2709 203.543 58.9619C203.093 58.3059 202.857 57.529 202.865 56.7356C202.858 55.8976 203.134 55.0813 203.648 54.4166C203.884 54.1008 204.193 53.8456 204.549 53.6721C204.904 53.4987 205.296 53.412 205.693 53.4194C206.286 53.449 206.846 53.7019 207.258 54.1267ZM204.104 54.6485C203.952 54.9392 203.85 55.2525 203.8 55.5761H206.627C206.604 55.2271 206.517 54.8852 206.37 54.5673C206.266 54.3772 206.11 54.22 205.92 54.1134C205.73 54.0068 205.513 53.9552 205.295 53.9644C205.057 53.9462 204.819 53.9954 204.608 54.1062C204.397 54.217 204.222 54.385 204.104 54.5905V54.6485Z" fill="white"/>
<path d="M208.672 59.6113C208.91 59.6102 209.144 59.5462 209.349 59.4258C209.452 59.3237 209.53 59.1994 209.577 59.0627C209.623 58.926 209.637 58.7804 209.618 58.6373V55.1587C209.642 54.9306 209.597 54.7006 209.49 54.4978C209.437 54.44 209.372 54.3953 209.299 54.3671C209.226 54.3389 209.147 54.3281 209.069 54.3354H208.859H208.695V54.1267L209.174 53.9644L210.015 53.6397L210.635 53.4078C210.635 53.4078 210.635 53.4774 210.635 53.547V54.463C210.976 54.121 211.371 53.8353 211.803 53.6165C212.101 53.4574 212.434 53.3737 212.772 53.373C212.976 53.3653 213.179 53.4041 213.366 53.4865C213.552 53.569 213.717 53.6928 213.847 53.8484C214.007 54.0604 214.126 54.3003 214.198 54.5558C214.455 54.2798 214.736 54.0275 215.039 53.8021C215.411 53.5288 215.861 53.3787 216.324 53.373C216.624 53.3477 216.924 53.4216 217.178 53.583C217.431 53.7445 217.624 53.9845 217.726 54.2659C217.892 54.7785 217.963 55.3167 217.936 55.8544V58.7649C217.921 58.8835 217.933 59.004 217.969 59.118C218.005 59.232 218.066 59.337 218.146 59.4258C218.37 59.5687 218.628 59.6488 218.894 59.6577V59.8316H215.973V59.6345C216.241 59.6379 216.503 59.5567 216.721 59.4026C216.875 59.1831 216.942 58.9145 216.908 58.6489V55.6805C216.926 55.3499 216.878 55.019 216.768 54.7065C216.689 54.5243 216.554 54.3719 216.381 54.2718C216.209 54.1716 216.008 54.1289 215.81 54.1499C215.507 54.1617 215.214 54.2626 214.969 54.4398C214.754 54.6037 214.555 54.786 214.373 54.9848V58.4634C214.351 58.7538 214.416 59.0442 214.56 59.2982C214.657 59.407 214.778 59.4918 214.914 59.5462C215.05 59.6005 215.197 59.6228 215.343 59.6113V59.7852H212.328V59.6113C212.624 59.6103 212.907 59.4984 213.123 59.2982C213.28 58.933 213.341 58.5337 213.298 58.1387V56.2487C213.317 55.7659 213.274 55.2827 213.17 54.8108C213.116 54.612 212.995 54.4375 212.827 54.3171C212.659 54.1967 212.454 54.1376 212.247 54.1499C211.966 54.1562 211.692 54.2362 211.452 54.3818C211.192 54.5367 210.963 54.7371 210.775 54.9732V58.6837C210.752 58.9359 210.814 59.1884 210.95 59.4026C211.168 59.564 211.439 59.6385 211.709 59.6113V59.7852H208.719L208.672 59.6113Z" fill="white"/>
<path d="M223.555 54.127C223.797 54.3745 223.984 54.6694 224.105 54.9929C224.226 55.3163 224.277 55.6611 224.256 56.0054H220.086C220.041 56.8339 220.285 57.6524 220.775 58.3245C220.949 58.5469 221.173 58.7271 221.428 58.8516C221.683 58.9761 221.963 59.0417 222.247 59.0434C222.667 59.0555 223.08 58.9246 223.415 58.6723C223.768 58.3748 224.064 58.0175 224.291 57.6171L224.513 57.6867C224.318 58.2951 223.973 58.8453 223.508 59.2869C223.275 59.5285 222.994 59.7193 222.682 59.8471C222.37 59.9748 222.035 60.0368 221.698 60.029C221.324 60.0438 220.952 59.9632 220.619 59.7946C220.285 59.6261 220.001 59.3754 219.793 59.0666C219.338 58.4132 219.101 57.6345 219.116 56.8403C219.103 56.0014 219.379 55.1833 219.899 54.5212C220.133 54.2064 220.44 53.9516 220.793 53.7782C221.147 53.6047 221.537 53.5176 221.931 53.524C222.531 53.5108 223.112 53.7267 223.555 54.127ZM220.413 54.6488C220.256 54.9373 220.153 55.2516 220.109 55.5764H222.878C222.858 55.2282 222.775 54.8865 222.632 54.5676C222.528 54.3775 222.372 54.2202 222.182 54.1137C221.992 54.0071 221.776 53.9555 221.558 53.9646C221.327 53.954 221.098 54.0068 220.896 54.1173C220.694 54.2278 220.527 54.3917 220.413 54.5908V54.6488Z" fill="white"/>
<path d="M225.004 59.5884C225.243 59.5801 225.472 59.4946 225.658 59.3449C225.817 59.1097 225.883 58.8252 225.845 58.5448V55.0662C225.853 54.862 225.825 54.6581 225.763 54.4632C225.712 54.3758 225.636 54.3051 225.544 54.2598C225.453 54.2145 225.351 54.1966 225.249 54.2081H225.132H224.98V53.9646L226.254 53.5472L226.861 53.3385H226.92C226.927 53.3729 226.927 53.4084 226.92 53.4429V54.4401C227.204 54.1392 227.522 53.8709 227.866 53.64C228.179 53.425 228.549 53.3079 228.929 53.3037C229.22 53.3054 229.502 53.3988 229.735 53.5704C229.996 53.7949 230.197 54.0793 230.321 54.3986C230.445 54.7179 230.489 55.0626 230.448 55.4025V58.5796C230.423 58.8299 230.49 59.0808 230.635 59.2869C230.718 59.3657 230.818 59.426 230.926 59.464C231.035 59.5019 231.151 59.5167 231.266 59.5072V59.7043H228.462V59.5072C228.711 59.4923 228.948 59.3989 229.139 59.2405C229.294 58.9653 229.359 58.6495 229.326 58.3361V55.5184C229.339 55.1814 229.267 54.8465 229.116 54.5444C229.038 54.4137 228.924 54.3081 228.787 54.2403C228.651 54.1724 228.497 54.1451 228.345 54.1618C228.061 54.1716 227.788 54.2689 227.562 54.4401C227.358 54.5942 227.166 54.7649 226.99 54.9502V58.7651C226.975 58.8838 226.986 59.0042 227.023 59.1182C227.059 59.2323 227.119 59.3372 227.2 59.426C227.394 59.551 227.623 59.6118 227.854 59.6V59.7971H224.992L225.004 59.5884Z" fill="white"/>
<path d="M234.841 53.524V54.011H233.497V57.9186C233.492 58.1837 233.52 58.4485 233.579 58.7071C233.614 58.8428 233.694 58.9628 233.806 59.0471C233.919 59.1315 234.057 59.1751 234.198 59.1709C234.343 59.1768 234.487 59.1361 234.607 59.0549C234.757 58.9509 234.891 58.826 235.004 58.6839L235.179 58.8346L235.039 59.0433C234.854 59.3202 234.606 59.5505 234.315 59.7159C234.088 59.8374 233.836 59.9049 233.579 59.913C233.348 59.9263 233.119 59.8628 232.929 59.7326C232.739 59.6024 232.597 59.4129 232.528 59.1941C232.411 58.8508 232.36 58.4892 232.376 58.1273V54.011H231.663C231.649 53.9775 231.649 53.9401 231.663 53.9066C231.714 53.8374 231.777 53.7783 231.85 53.7327C232.079 53.5316 232.298 53.3187 232.504 53.0949C232.633 52.9442 232.948 52.5152 233.439 51.8311H233.497C233.497 51.8311 233.497 51.8311 233.497 51.9354V53.6051L234.841 53.524Z" fill="white"/>
<path d="M238.532 59.5186C238.874 59.5188 239.209 59.4266 239.502 59.2519C239.691 58.964 239.769 58.6185 239.724 58.2779V52.086C239.763 51.7495 239.684 51.4099 239.502 51.1236C239.223 50.9162 238.88 50.8135 238.532 50.8337V50.5786H242.329V50.8337C241.981 50.8264 241.637 50.9147 241.336 51.0888C241.232 51.2134 241.155 51.3583 241.111 51.514C241.067 51.6698 241.056 51.833 241.079 51.9932V58.6721C241.076 58.8005 241.104 58.9278 241.161 59.0432C241.2 59.0923 241.25 59.1323 241.306 59.1604C241.363 59.1884 241.425 59.2038 241.488 59.2055H241.815H242.434C243.256 59.2589 244.081 59.1565 244.864 58.904C245.429 58.5232 245.858 57.9754 246.091 57.3387H246.43L245.775 59.7505H238.532V59.5186Z" fill="white"/>
<path d="M249.958 53.524V54.011H248.614V57.9186C248.593 58.2026 248.616 58.4883 248.684 58.765C248.717 58.8999 248.795 59.0196 248.905 59.104C249.016 59.1885 249.152 59.2326 249.292 59.2289C249.437 59.2365 249.581 59.1957 249.701 59.1129C249.852 59.0066 249.989 58.8819 250.11 58.7419L250.273 58.8926L250.133 59.1013C249.947 59.3782 249.699 59.6084 249.409 59.7738C249.182 59.8776 248.934 59.9291 248.684 59.9246C248.454 59.9379 248.225 59.8744 248.034 59.7442C247.844 59.614 247.703 59.4245 247.633 59.2057C247.516 58.8624 247.465 58.5007 247.481 58.1389V54.011H246.769C246.755 53.9775 246.755 53.9401 246.769 53.9066C246.819 53.8374 246.883 53.7783 246.955 53.7327C247.188 53.5347 247.406 53.3217 247.61 53.0949C247.738 52.9442 248.054 52.5152 248.544 51.8311H248.649C248.649 51.8311 248.649 51.8311 248.649 51.9354V53.6051L249.958 53.524Z" fill="white"/>
<path d="M254.269 53.5821C254.461 53.6843 254.634 53.8175 254.783 53.9764V51.808C254.796 51.6103 254.764 51.412 254.689 51.2283C254.689 51.1239 254.49 51.0775 254.269 51.0775H254.128H253.871V50.8456L254.409 50.7065L254.993 50.5442L255.519 50.3702L255.869 50.2427V50.9616C255.869 51.2167 255.869 51.4834 255.869 51.7501C255.869 52.0168 255.869 52.295 255.869 52.5617V58.1159C255.853 58.3262 255.889 58.5371 255.974 58.7304C256.044 58.8464 256.231 58.9044 256.535 58.9044H256.862V59.1247L255.904 59.4609L254.876 59.8668V59.8088V58.9623C254.687 59.1883 254.471 59.3908 254.233 59.5653C253.9 59.7686 253.515 59.8732 253.124 59.8668C252.772 59.8728 252.424 59.7949 252.109 59.6395C251.793 59.4841 251.521 59.2559 251.313 58.9739C250.857 58.382 250.614 57.6552 250.624 56.91C250.603 55.9948 250.895 55.0996 251.453 54.3706C251.683 54.0471 251.987 53.7827 252.341 53.5992C252.694 53.4157 253.087 53.3185 253.486 53.3154C253.765 53.3397 254.033 53.4312 254.269 53.5821ZM254.467 58.8696C254.647 58.7213 254.76 58.5088 254.783 58.2782V55.3562C254.806 55.1287 254.777 54.899 254.698 54.6841C254.619 54.4693 254.492 54.2749 254.327 54.1155C254.077 53.8975 253.76 53.7707 253.427 53.7561C253.164 53.7502 252.904 53.8176 252.676 53.9508C252.449 54.084 252.264 54.2776 252.142 54.5098C251.821 55.0788 251.663 55.7246 251.687 56.3766C251.675 57.0574 251.845 57.7292 252.177 58.3246C252.313 58.5909 252.523 58.8132 252.781 58.9652C253.04 59.1172 253.337 59.1927 253.638 59.1827C253.799 59.1945 253.962 59.1728 254.115 59.1189C254.268 59.065 254.408 58.9801 254.526 58.8696H254.467Z" fill="white"/>
<path d="M258.532 59.716C258.391 59.5692 258.312 59.374 258.312 59.171C258.312 58.9679 258.391 58.7727 258.532 58.626C258.6 58.5553 258.682 58.4992 258.772 58.4613C258.862 58.4234 258.96 58.4045 259.058 58.4057C259.157 58.4023 259.255 58.4202 259.345 58.4582C259.436 58.4963 259.518 58.5535 259.584 58.626C259.725 58.7727 259.804 58.9679 259.804 59.171C259.804 59.374 259.725 59.5692 259.584 59.716C259.517 59.7884 259.436 59.8462 259.345 59.8858C259.255 59.9253 259.157 59.9457 259.058 59.9457C258.959 59.9457 258.861 59.9253 258.771 59.8858C258.68 59.8462 258.599 59.7884 258.532 59.716Z" fill="white"/>
</g>
<defs>
<clipPath id="clip0_4355_34832">
<rect width="269" height="91" fill="white"/>
</clipPath>
</defs>
</svg>
