<svg width="176" height="60" viewBox="0 0 176 60" fill="none" xmlns="http://www.w3.org/2000/svg">
<g clip-path="url(#clip0_4355_34910)">
<g clip-path="url(#clip1_4355_34910)">
<path d="M54.0483 27.4952C54.0033 32.7062 52.4171 37.7872 49.4896 42.0981C46.5621 46.409 42.4244 49.7569 37.5977 51.7199C32.771 53.6829 27.4714 54.1732 22.3666 53.1291C17.2618 52.0849 12.5802 49.553 8.91172 45.8523C5.24324 42.1516 2.75202 37.4478 1.75196 32.3335C0.751895 27.2193 1.28774 21.9234 3.29197 17.1132C5.2962 12.303 8.67915 8.19365 13.0145 5.30303C17.3499 2.41242 22.4438 0.869824 27.6543 0.869629C31.136 0.882441 34.581 1.58154 37.7924 2.92695C41.0038 4.27235 43.9185 6.23767 46.3698 8.71052C48.8212 11.1834 50.7611 14.1153 52.0786 17.3385C53.3961 20.5617 54.0655 24.0131 54.0483 27.4952Z" fill="white"/>
<path fill-rule="evenodd" clip-rule="evenodd" d="M2.07568 27.4191C2.07568 22.3616 3.57523 17.4176 6.3847 13.2124C9.19417 9.00718 13.1874 5.72962 17.8594 3.79418C22.5313 1.85874 27.6722 1.35234 32.632 2.33902C37.5917 3.3257 42.1475 5.76114 45.7233 9.33737C49.2991 12.9136 51.7342 17.47 52.7208 22.4304C53.7073 27.3908 53.201 32.5323 51.2658 37.2049C49.3306 41.8775 46.0535 45.8712 41.8488 48.681C37.6441 51.4908 32.7008 52.9906 27.6439 52.9906C20.8637 52.9877 14.362 50.2926 9.56761 45.4977C4.77327 40.7027 2.07856 34.2002 2.07568 27.4191Z" fill="#711F7E"/>
<path d="M27.6435 53.121C22.5604 53.1232 17.5908 51.6176 13.3632 48.7948C9.13568 45.9719 5.84013 41.9586 3.8934 37.2624C1.94667 32.5662 1.4362 27.398 2.42656 22.4116C3.41692 17.4253 5.86361 12.8446 9.45719 9.24904C13.0508 5.65349 17.6298 3.20454 22.6151 2.21195C27.6005 1.21935 32.7682 1.7277 37.4646 3.67269C42.161 5.61769 46.1752 8.91196 48.9995 13.1388C51.8238 17.3657 53.3313 22.3353 53.3313 27.4192C53.3255 34.2321 50.6176 40.7645 45.8018 45.5829C40.986 50.4014 34.4556 53.1124 27.6435 53.121ZM27.6435 1.96725C22.6094 1.96295 17.687 3.45202 13.4991 6.2461C9.31124 9.04018 6.04604 13.0137 4.11656 17.6641C2.18708 22.3144 1.68001 27.4326 2.65949 32.3712C3.63898 37.3099 6.06101 41.847 9.61921 45.4087C13.1774 48.9704 17.7119 51.3966 22.649 52.3804C27.5862 53.3643 32.7042 52.8615 37.3556 50.9357C42.007 49.01 45.9828 45.7478 48.7801 41.5617C51.5774 37.3757 53.0705 32.454 53.0705 27.4192C53.0676 20.6735 50.3885 14.2047 45.6212 9.4328C40.854 4.66088 34.3883 1.97589 27.6435 1.96725Z" fill="#711F7E"/>
<path d="M11.1377 27.419C11.1377 24.1541 12.1057 20.9624 13.9194 18.2477C15.7331 15.533 18.3109 13.4172 21.327 12.1677C24.343 10.9183 27.6618 10.5914 30.8636 11.2283C34.0654 11.8653 37.0064 13.4375 39.3148 15.7462C41.6232 18.0549 43.1952 20.9963 43.8321 24.1985C44.469 27.4007 44.1421 30.7199 42.8928 33.7363C41.6435 36.7527 39.5279 39.3309 36.8136 41.1448C34.0992 42.9587 30.908 43.9269 27.6435 43.9269C23.2667 43.924 19.0701 42.1839 15.9753 39.0887C12.8805 35.9935 11.1406 31.7963 11.1377 27.419Z" fill="white"/>
<path d="M27.6439 44.0683C24.3505 44.0726 21.1298 43.0998 18.3894 41.273C15.6489 39.4462 13.5118 36.8475 12.2485 33.8056C10.9852 30.7638 10.6525 27.4155 11.2923 24.1844C11.9322 20.9534 13.516 17.9847 15.8432 15.6541C18.1705 13.3235 21.1367 11.7357 24.3665 11.0915C27.5963 10.4474 30.9445 10.7758 33.9877 12.0353C37.0308 13.2948 39.632 15.4287 41.4621 18.1671C43.2923 20.9055 44.2692 24.1254 44.2692 27.4192C44.2663 31.8302 42.5145 36.06 39.3979 39.1811C36.2813 42.3021 32.0543 44.0597 27.6439 44.0683ZM27.6439 11.0308C24.4025 11.0287 21.2333 11.988 18.5372 13.7875C15.8411 15.5869 13.7391 18.1457 12.4972 21.1401C11.2553 24.1345 10.9293 27.43 11.5603 30.6097C12.1913 33.7895 13.7511 36.7106 16.0423 39.0036C18.3336 41.2967 21.2533 42.8586 24.4322 43.4918C27.6111 44.125 30.9064 43.8011 33.9012 42.5611C36.8961 41.321 39.4559 39.2205 41.2569 36.5252C43.0579 33.8299 44.0193 30.6609 44.0193 27.4192C44.0135 23.0764 42.2868 18.9129 39.2173 15.8411C36.1479 12.7692 31.9861 11.0395 27.6439 11.0308Z" fill="#711F7E"/>
<path d="M27.6436 54.8268C22.2207 54.8397 16.916 53.2433 12.4007 50.2395C7.8855 47.2357 4.36284 42.9597 2.27865 37.9526C0.194462 32.9456 -0.357551 27.4327 0.692487 22.1118C1.74252 16.7909 4.3474 11.9011 8.17739 8.06149C12.0074 4.22188 16.8903 1.60503 22.208 0.542184C27.5258 -0.520659 33.0393 0.0182914 38.0506 2.09081C43.0619 4.16334 47.3458 7.67625 50.3599 12.1849C53.3741 16.6935 54.983 21.9952 54.983 27.4188C54.9744 34.6739 52.0934 41.6304 46.9699 46.7667C41.8465 51.903 34.8978 54.801 27.6436 54.8268ZM27.6436 0.814879C22.3816 0.81058 17.2366 2.36721 12.8593 5.28787C8.48198 8.20853 5.06915 12.362 3.05249 17.2228C1.03583 22.0837 0.50595 27.4335 1.52988 32.5956C2.55381 37.7577 5.08554 42.5 8.80482 46.2228C12.5241 49.9456 17.2638 52.4816 22.4244 53.5098C27.585 54.5381 32.9346 54.0125 37.7964 51.9996C42.6583 49.9867 46.814 46.5768 49.7379 42.2013C52.6617 37.8259 54.2224 32.6814 54.2224 27.4188C54.2166 20.3685 51.4152 13.6083 46.4326 8.621C41.45 3.63368 34.693 0.826387 27.6436 0.814879Z" fill="#008641"/>
<path d="M27.6435 43.3616C24.4903 43.3638 21.4072 42.4306 18.7843 40.6801C16.1615 38.9295 14.1166 36.4404 12.9084 33.5274C11.7003 30.6144 11.383 27.4085 11.9969 24.3152C12.6107 21.2219 14.1281 18.3802 16.357 16.1495C18.5859 13.9187 21.4263 12.3992 24.5188 11.7832C27.6112 11.1672 30.817 11.4823 33.7304 12.6886C36.6438 13.895 39.134 15.9384 40.8861 18.5604C42.6382 21.1824 43.5734 24.2652 43.5734 27.4188C43.5705 31.6444 41.8916 35.6962 38.9051 38.6851C35.9186 41.674 31.8685 43.3559 27.6435 43.3616ZM27.6435 12.2803C24.6493 12.2781 21.7217 13.1642 19.2311 14.8263C16.7404 16.4884 14.7987 18.852 13.6513 21.618C12.504 24.3841 12.2027 27.4283 12.7855 30.3656C13.3683 33.3029 14.8091 36.0013 16.9256 38.1196C19.042 40.2378 21.7391 41.6807 24.6756 42.2657C27.6121 42.8507 30.6562 42.5516 33.4227 41.4061C36.1891 40.2606 38.5538 38.3203 40.2175 35.8305C41.8812 33.3407 42.7693 30.4134 42.7693 27.4188C42.7635 23.4075 41.1684 19.5619 38.3333 16.7244C35.4983 13.887 31.6543 12.2889 27.6435 12.2803Z" fill="#008641"/>
<path d="M32.3595 39.4383H22.9168L14.5498 27.647H21.2108L21.2869 27.7339L27.6545 35.6021L34.0655 27.647H40.7374L32.3595 39.4383ZM23.1884 38.9167H32.0879L39.6942 28.1577H34.3372L27.6762 36.428L20.9717 28.1577H15.5386L23.1884 38.9167Z" fill="#008641"/>
<path fill-rule="evenodd" clip-rule="evenodd" d="M32.2293 15.6602L40.2377 26.9407H34.1961L27.622 18.8226L21.0914 26.9407H15.0498L23.0582 15.6602H32.2293Z" fill="#008641"/>
<path d="M40.4873 27.0712H34.1306L27.6108 19.0292L21.1454 27.0712H14.7778L22.971 15.5298H32.2724V15.5841L40.4873 27.0712ZM34.2501 26.8103H39.9874L32.1638 15.7906H23.1231L15.2994 26.8103H21.0259L27.6217 18.6162L34.2501 26.8103Z" fill="#008641"/>
<path fill-rule="evenodd" clip-rule="evenodd" d="M6.08509 35.1131C6.14593 35.2798 6.24666 35.429 6.37847 35.5478C6.53548 35.5896 6.70248 35.5701 6.84572 35.4935L9.49707 34.4719C9.7144 34.385 9.84479 34.298 9.87739 34.2002C9.90367 34.0262 9.87717 33.8483 9.80133 33.6895H9.92086L10.5946 35.45H10.4859C10.4314 35.2832 10.3295 35.1359 10.1925 35.0262C10.0356 34.9833 9.86817 35.0028 9.72527 35.0805L7.17171 36.0912C6.94352 36.1781 6.81312 36.2759 6.78052 36.3629C6.76638 36.5403 6.79238 36.7186 6.85659 36.8845H6.74792L6.07422 35.124L6.08509 35.1131Z" fill="white"/>
<path fill-rule="evenodd" clip-rule="evenodd" d="M7.38919 38.3191C7.55218 38.5365 7.69345 38.6452 7.81297 38.656C8.03003 38.6314 8.23647 38.5488 8.41061 38.4169L10.8012 36.9498V36.8303C10.8249 36.7266 10.8249 36.6188 10.8012 36.5151C10.785 36.4178 10.7479 36.3251 10.6925 36.2434L10.7903 36.1782L11.3771 37.1128L10.0731 40.8187L11.8769 39.7319C12.1812 39.5472 12.3442 39.3842 12.3768 39.2429C12.3824 39.0808 12.3367 38.9211 12.2464 38.7864L12.355 38.7212L13.1483 39.9927L13.0505 40.0471C12.9509 39.8998 12.8059 39.7891 12.6376 39.7319C12.415 39.7473 12.2025 39.8307 12.0291 39.971L9.18212 41.7533L9.11692 41.6555L10.5947 37.4063L8.48668 38.7321C8.19329 38.906 8.01943 39.069 7.98683 39.2211C7.98294 39.3781 8.02445 39.5328 8.10636 39.6667L8.00857 39.7319L7.21533 38.4604L7.38919 38.3191Z" fill="white"/>
<path fill-rule="evenodd" clip-rule="evenodd" d="M14.7778 41.2969L14.7017 41.3947C14.6252 41.3137 14.5373 41.2442 14.441 41.1882C14.4058 41.159 14.3616 41.1431 14.316 41.1431C14.2703 41.1431 14.2261 41.159 14.191 41.1882C14.1395 41.2436 14.1022 41.3108 14.0824 41.3838C14.0824 41.4816 13.9846 41.6446 13.9085 41.8728L13.1261 44.1768L15.4189 43.0357L15.6797 42.8944C15.733 42.8671 15.7809 42.8303 15.821 42.7857C15.8527 42.7455 15.8699 42.6957 15.8699 42.6444C15.8699 42.5932 15.8527 42.5434 15.821 42.5032C15.7747 42.4095 15.7121 42.3249 15.6362 42.2532L15.7123 42.1663L16.6685 43.0574L16.5925 43.1444C16.5121 43.0691 16.4088 43.0231 16.2991 43.0139C16.1067 43.0192 15.9192 43.0755 15.7558 43.177L12.2786 44.894L12.2134 44.8288L13.4521 41.1882C13.5341 40.9869 13.5853 40.7744 13.6043 40.5579C13.5822 40.4335 13.5213 40.3194 13.4304 40.2318L13.5065 40.1558L14.7778 41.2969Z" fill="white"/>
<path fill-rule="evenodd" clip-rule="evenodd" d="M15.1148 46.9699C15.2592 47.0439 15.4197 47.0812 15.582 47.0785C15.6689 47.0785 15.7776 46.9481 15.8971 46.7416L17.2663 44.253C17.3571 44.1267 17.403 43.9737 17.3967 43.8183C17.3228 43.6705 17.2052 43.5491 17.0598 43.4705V43.3618L20.0263 45.0137L19.6025 45.8179L19.4612 45.7418C19.5283 45.5482 19.5283 45.3377 19.4612 45.1441C19.4612 45.0246 19.2222 44.8724 18.8962 44.6877L18.1356 44.2638C18.0795 44.243 18.0178 44.243 17.9617 44.2638C17.918 44.3005 17.8812 44.3446 17.853 44.3942L17.2663 45.644L18.1138 46.1222C18.265 46.2306 18.4502 46.2808 18.6354 46.2635C18.791 46.1842 18.9252 46.0687 19.0266 45.9266L19.157 45.9918L18.4398 47.285L18.3094 47.2089C18.3859 47.0503 18.4124 46.8722 18.3855 46.6982C18.3855 46.5895 18.2551 46.4699 17.9943 46.3395L17.1359 45.8614L16.3752 47.2415C16.347 47.2792 16.3318 47.3249 16.3318 47.372C16.3318 47.419 16.347 47.4647 16.3752 47.5024C16.5597 47.6206 16.7522 47.7259 16.9512 47.8175C17.2243 47.9951 17.5315 48.1135 17.853 48.1653C18.1564 48.1548 18.4458 48.0352 18.668 47.8284L18.831 47.9153L18.0486 48.7195L15.0278 47.0459L15.1148 46.9699Z" fill="white"/>
<path fill-rule="evenodd" clip-rule="evenodd" d="M20.385 48.3066C20.3976 48.5709 20.4526 48.8314 20.5479 49.0782C20.6159 49.2447 20.7206 49.3937 20.8542 49.5142C20.9878 49.6346 21.1468 49.7233 21.3194 49.7737C21.5012 49.8441 21.7027 49.8441 21.8845 49.7737C21.9748 49.728 22.0544 49.6637 22.1181 49.5851C22.1817 49.5064 22.228 49.4151 22.2539 49.3173C22.3118 49.1219 22.2924 48.9118 22.1996 48.7304C22.0593 48.5196 21.9031 48.3198 21.7324 48.1327L21.2977 47.6219C21.1842 47.4985 21.0891 47.3595 21.0152 47.209C20.9088 46.9891 20.8857 46.7382 20.95 46.5026C20.9882 46.3571 21.0563 46.2211 21.1498 46.1032C21.2433 45.9854 21.3603 45.8882 21.4933 45.8179C21.6373 45.7551 21.7926 45.7227 21.9497 45.7227C22.1067 45.7227 22.2621 45.7551 22.4061 45.8179C22.5744 45.8801 22.7321 45.9681 22.8733 46.0787C22.9668 46.1556 23.0689 46.2212 23.1776 46.2744C23.2335 46.2962 23.2955 46.2962 23.3514 46.2744C23.3929 46.2356 23.4294 46.1918 23.4601 46.1439H23.5905L23.3188 47.4807H23.1776C23.2204 47.1447 23.1393 46.8047 22.9494 46.5243C22.8073 46.323 22.606 46.1711 22.3735 46.0896C22.2151 46.035 22.0429 46.035 21.8845 46.0896C21.8097 46.1221 21.7434 46.1713 21.6906 46.2335C21.6379 46.2957 21.6001 46.3692 21.5802 46.4482C21.526 46.5918 21.526 46.7502 21.5802 46.8938C21.6646 47.0744 21.7784 47.2397 21.9171 47.3829L22.3843 47.8176C22.5989 48.0511 22.7783 48.3147 22.9168 48.6C22.9905 48.8223 22.9905 49.0624 22.9168 49.2847C22.8727 49.4382 22.7953 49.5801 22.6901 49.7004C22.585 49.8206 22.4546 49.9161 22.3083 49.9802C21.9851 50.1126 21.6236 50.1165 21.2977 49.9911C21.0962 49.9258 20.9058 49.8306 20.7327 49.7085C20.637 49.6234 20.5311 49.5504 20.4176 49.4912C20.3925 49.4778 20.3645 49.4709 20.3361 49.4709C20.3076 49.4709 20.2797 49.4778 20.2546 49.4912C20.216 49.5275 20.1863 49.5721 20.1676 49.6216H20.0264L20.2437 48.2631L20.385 48.3066Z" fill="white"/>
<path fill-rule="evenodd" clip-rule="evenodd" d="M24.7532 46.5352L28.3499 46.7851V47.8719H28.1978C28.1838 47.6258 28.101 47.3885 27.9587 47.1872C27.7466 47.0463 27.4961 46.9742 27.2415 46.9807H26.8938L26.6656 50.241C26.6316 50.4008 26.6587 50.5676 26.7417 50.7083C26.8961 50.7912 27.0667 50.8394 27.2415 50.8496V50.9691L25.3834 50.8387V50.7192C25.5597 50.7417 25.7386 50.7074 25.8941 50.6214C25.9702 50.5562 26.0137 50.3932 26.0354 50.1106L26.2527 46.9373H25.905C25.6534 46.8951 25.3949 46.9332 25.1661 47.0459C24.9878 47.2165 24.8729 47.4426 24.8401 47.6871H24.688L24.7532 46.5352Z" fill="white"/>
<path fill-rule="evenodd" clip-rule="evenodd" d="M29.5342 50.8602C29.7169 50.8271 29.8823 50.731 30.0014 50.5885C30.0613 50.3753 30.0613 50.1497 30.0014 49.9365L29.5125 47.3934C29.5028 47.2326 29.433 47.0813 29.3169 46.9696C29.1512 46.9141 28.9719 46.9141 28.8062 46.9696V46.8501L29.9906 46.5892L32.0552 49.4691L32.8267 46.035L34.0763 45.7959V45.9046C33.9167 45.9338 33.7693 46.0094 33.6525 46.1219C33.5985 46.2693 33.5985 46.431 33.6525 46.5784L34.1958 49.3605C34.2072 49.5187 34.2724 49.6682 34.3805 49.7843C34.5363 49.8321 34.7028 49.8321 34.8586 49.7843V49.893L33.0983 50.2299V50.1212C33.3482 50.056 33.5004 49.9799 33.5438 49.893C33.5965 49.7231 33.5965 49.5412 33.5438 49.3713L33.0005 46.5566L32.0877 50.4364H32.0008L29.7732 47.3826L30.2622 49.8821C30.2838 50.1189 30.3787 50.3431 30.5339 50.5233C30.686 50.5709 30.849 50.5709 31.0011 50.5233V50.632L29.5342 50.9145V50.8602Z" fill="white"/>
<path fill-rule="evenodd" clip-rule="evenodd" d="M36.2495 49.2848C36.3934 49.2114 36.5167 49.103 36.608 48.9696C36.6282 48.8143 36.5937 48.6567 36.5102 48.5241L35.2606 45.9702C35.1628 45.7637 35.065 45.6441 34.9781 45.6224C34.8147 45.5966 34.6473 45.6232 34.5 45.6985V45.5898L37.5425 44.1118L37.9663 44.9269L37.8142 44.9921C37.7129 44.8144 37.5508 44.6793 37.3578 44.6117C37.1068 44.6067 36.8603 44.6788 36.6515 44.8182L35.88 45.1877C35.7931 45.1877 35.7496 45.2746 35.7387 45.3073C35.7276 45.361 35.7276 45.4165 35.7387 45.4703L36.369 46.7309L37.2491 46.3071C37.4882 46.1875 37.6295 46.068 37.6621 45.9702C37.6868 45.7945 37.6682 45.6154 37.6077 45.4485L37.749 45.3833L38.3901 46.7309L38.2597 46.7961C38.1674 46.6446 38.036 46.5207 37.8794 46.4375C37.7707 46.4375 37.6077 46.4375 37.3578 46.557L36.4776 46.9809L37.1731 48.4045C37.1731 48.5132 37.2926 48.5675 37.3795 48.5567C37.6029 48.4729 37.8207 48.3748 38.0315 48.2632C38.3343 48.1398 38.6082 47.9548 38.8356 47.7199C38.9967 47.4643 39.0657 47.1614 39.0312 46.8613L39.1942 46.7852L39.4007 47.872L36.3038 49.3826L36.2495 49.2848Z" fill="white"/>
<path fill-rule="evenodd" clip-rule="evenodd" d="M40.8568 46.9265C41.0008 46.8133 41.0976 46.6506 41.1285 46.4701C41.0743 46.2551 40.9614 46.0595 40.8025 45.905L38.9878 43.7315H38.8574C38.7536 43.7091 38.6461 43.7091 38.5423 43.7315C38.4517 43.769 38.3674 43.8204 38.2924 43.8836L38.2163 43.7967L39.053 43.0903L42.9105 43.8619L41.5414 42.2317C41.3132 41.96 41.1285 41.8188 40.9763 41.8079C40.8159 41.8232 40.6641 41.8877 40.5417 41.9926L40.4656 41.9057L41.6174 40.9385L41.6935 41.0363C41.5543 41.1473 41.4613 41.3061 41.4327 41.4819C41.4809 41.6992 41.5947 41.8964 41.7587 42.047L43.9319 44.6226L43.845 44.6987L39.4333 43.8293L41.0307 45.7311C41.2625 46.0064 41.4472 46.1477 41.5848 46.1549C41.7446 46.1448 41.8969 46.0839 42.0195 45.981L42.0955 46.068L40.9437 47.0243L40.8568 46.9265Z" fill="white"/>
<path fill-rule="evenodd" clip-rule="evenodd" d="M41.9434 40.5688L44.1166 37.6562L45.0076 38.2648L44.9207 38.3844C44.7033 38.2708 44.4592 38.2182 44.2144 38.2322C44.0623 38.2322 43.8775 38.3952 43.6602 38.7213L43.4538 39.0147L46.0943 40.9274C46.1524 40.9864 46.2218 41.0332 46.2983 41.0649C46.3748 41.0967 46.4569 41.1127 46.5398 41.1121C46.6902 41.0299 46.8202 40.9147 46.9201 40.7752L47.0179 40.8405L45.9313 42.3402L45.8443 42.275C45.9572 42.1363 46.022 41.9647 46.0291 41.7859C46.0291 41.6881 45.8987 41.5686 45.6705 41.4056L43.03 39.5255L42.8127 39.808C42.6463 40.0004 42.5438 40.2396 42.5193 40.4927C42.5683 40.7352 42.6986 40.9537 42.8887 41.1121L42.8127 41.2969L41.9434 40.5688Z" fill="white"/>
<path fill-rule="evenodd" clip-rule="evenodd" d="M47.2791 37.9498C47.5417 37.9757 47.8068 37.9536 48.0614 37.8846C48.2377 37.8397 48.401 37.7545 48.5387 37.6357C48.6764 37.5169 48.7845 37.3677 48.8547 37.1999C48.9244 37.0217 48.9244 36.8239 48.8547 36.6457C48.8238 36.5494 48.7716 36.4613 48.702 36.3879C48.6324 36.3145 48.5472 36.2578 48.4526 36.2218C48.36 36.1818 48.2602 36.1611 48.1592 36.1611C48.0583 36.1611 47.9585 36.1818 47.8659 36.2218C47.6378 36.3335 47.4197 36.4644 47.2139 36.6131L46.7249 36.95C46.587 37.0451 46.4372 37.1218 46.2794 37.1782C46.0455 37.2708 45.7852 37.2708 45.5513 37.1782C45.4148 37.1211 45.2914 37.0367 45.1886 36.9302C45.0858 36.8236 45.0059 36.6973 44.9537 36.5587C44.8927 36.4143 44.8613 36.2591 44.8613 36.1023C44.8613 35.9455 44.8927 35.7903 44.9537 35.6459C45.0333 35.4841 45.1399 35.3371 45.2688 35.2112L45.5079 34.9395C45.5213 34.9124 45.5283 34.8827 45.5283 34.8525C45.5283 34.8224 45.5213 34.7926 45.5079 34.7656C45.4774 34.7144 45.4367 34.67 45.3884 34.6352L45.4427 34.5156L46.7466 34.9395L46.6814 35.0807C46.3494 34.9978 45.9987 35.0364 45.6926 35.1894C45.4766 35.3081 45.3022 35.4902 45.1928 35.7111C45.1389 35.8659 45.1389 36.0344 45.1928 36.1892C45.213 36.2698 45.2521 36.3443 45.3069 36.4067C45.3617 36.4691 45.4306 36.5175 45.5079 36.5479C45.6514 36.6021 45.8098 36.6021 45.9534 36.5479C46.1415 36.4878 46.3179 36.3959 46.475 36.2762L47.0183 35.8958C47.2795 35.7127 47.5647 35.5664 47.8659 35.4611C48.0963 35.4116 48.3365 35.4382 48.5504 35.5372C48.6956 35.6001 48.8252 35.694 48.9303 35.8123C49.0354 35.9305 49.1134 36.0703 49.1589 36.2218C49.2589 36.5612 49.2279 36.9258 49.072 37.2434C48.9882 37.4393 48.8663 37.6166 48.7134 37.765C48.6213 37.8471 48.5376 37.9381 48.4635 38.0367C48.448 38.0611 48.4398 38.0894 48.4398 38.1182C48.4398 38.1471 48.448 38.1754 48.4635 38.1997C48.4979 38.2415 48.5382 38.2781 48.583 38.3084L48.5178 38.428L47.203 38.0585L47.2791 37.9498Z" fill="white"/>
<path fill-rule="evenodd" clip-rule="evenodd" d="M7.68255 23.0286L5.32458 23.4633V23.5502L7.30223 24.8544L7.68255 23.0286ZM8.91043 26.9627C8.92796 26.853 8.91939 26.7407 8.8854 26.635C8.85142 26.5292 8.79298 26.433 8.71484 26.3541C8.50038 26.1472 8.26347 25.9649 8.00853 25.8107L3.3252 22.6374L3.39039 22.3765L8.74743 21.2898C9.1505 21.2238 9.54688 21.1219 9.93185 20.9855C10.0202 20.949 10.0971 20.8893 10.1545 20.8128C10.2118 20.7364 10.2475 20.6458 10.2578 20.5508H10.4969L9.85579 23.5828L9.61673 23.5285C9.65966 23.3286 9.6779 23.1242 9.67106 22.9199C9.67106 22.8112 9.55153 22.746 9.39941 22.7134C9.28092 22.6911 9.1593 22.6911 9.04082 22.7134C8.92748 22.7243 8.81496 22.7424 8.70397 22.7678L8.0846 22.8873L7.63908 24.9848L8.30192 25.4086C8.45704 25.5077 8.62529 25.5845 8.80176 25.6368C8.94303 25.6368 9.05169 25.6368 9.16035 25.4303C9.23392 25.283 9.28519 25.1255 9.31248 24.963L9.55153 25.0174L9.13862 26.9192L8.91043 26.9627Z" fill="white"/>
<path fill-rule="evenodd" clip-rule="evenodd" d="M10.4858 20.2136C10.6006 20.0594 10.6787 19.8809 10.714 19.6919C10.7144 19.5788 10.6843 19.4676 10.627 19.3701C10.5696 19.2726 10.4871 19.1923 10.388 19.1377L6.4979 16.6164C6.41288 16.5455 6.30925 16.5007 6.19941 16.4872C6.08957 16.4737 5.97816 16.4921 5.87853 16.5403C5.71559 16.651 5.57845 16.7956 5.47648 16.9642L5.27002 16.8338L7.09554 14.019L7.29113 14.1495C7.13393 14.3709 7.03661 14.6292 7.00861 14.8993C7.00861 15.0623 7.18247 15.2471 7.50846 15.4427L11.2899 17.9096C11.3501 17.9617 11.4229 17.9972 11.5011 18.0124C11.5792 18.0277 11.66 18.0222 11.7354 17.9966C11.9166 17.8745 12.0657 17.7104 12.1701 17.5184C12.4479 17.0951 12.5987 16.6011 12.6047 16.0948C12.5448 15.4833 12.3025 14.904 11.9093 14.432L12.0614 14.1929L13.6913 15.7035L10.6705 20.3549L10.4858 20.2136Z" fill="white"/>
<path fill-rule="evenodd" clip-rule="evenodd" d="M14.8323 13.8671C15.1474 13.6932 15.3322 13.5193 15.3648 13.3563C15.3906 13.1534 15.3403 12.9482 15.2235 12.7803L13.0503 8.80278C12.9199 8.57457 12.7786 8.45502 12.6373 8.44415C12.4061 8.45094 12.1794 8.51041 11.9745 8.61804L11.855 8.41155L13.963 7.24872L17.7553 10.2047H17.8314L17.299 5.43383L19.407 4.271L19.5265 4.47748C19.3215 4.59218 19.1522 4.76145 19.0375 4.96652C18.9723 5.1078 19.0375 5.33602 19.2223 5.66205L21.2977 9.30269C21.4716 9.60699 21.6346 9.78087 21.7867 9.82434C22.0227 9.84047 22.2579 9.78356 22.4604 9.66132L22.5799 9.86781L19.7656 11.411L19.6461 11.2045C19.8414 11.0964 20.0117 10.9483 20.1459 10.7698C20.1801 10.6698 20.1891 10.563 20.172 10.4587C20.155 10.3544 20.1124 10.256 20.0481 10.1721L17.7879 6.07502H17.7227L18.3964 12.1391L18.1791 12.2587L13.4306 8.61804L15.5386 12.4108C15.6422 12.6322 15.8134 12.8149 16.0276 12.9325C16.3081 12.9821 16.5968 12.9197 16.8317 12.7586L16.9512 13.0411L14.9953 14.1279L14.8323 13.8671Z" fill="white"/>
<path fill-rule="evenodd" clip-rule="evenodd" d="M23.0149 9.92214V9.67219C23.2163 9.66908 23.414 9.61685 23.5908 9.52004C23.6769 9.45327 23.7435 9.36459 23.7836 9.26327C23.8238 9.16195 23.836 9.05171 23.8189 8.94406L23.4712 4.34707C23.4743 4.23617 23.4465 4.1266 23.3908 4.03064C23.3351 3.93467 23.2539 3.85609 23.1561 3.80369C22.9676 3.73903 22.7681 3.71315 22.5693 3.72761V3.46679L28.0676 3.08643L28.198 5.00999H27.9698C27.8816 4.53502 27.6321 4.10508 27.2635 3.79282C26.7598 3.55317 26.1936 3.47717 25.6445 3.57547C25.4514 3.56891 25.2602 3.61392 25.0903 3.70588C25.0469 3.75594 25.0156 3.81526 24.9986 3.8793C24.9817 3.94334 24.9796 4.01041 24.9925 4.07538L25.1555 6.2489C25.3521 6.26351 25.5497 6.23833 25.7364 6.17484C25.9231 6.11135 26.0951 6.01087 26.2421 5.8794C26.4718 5.53811 26.5999 5.13865 26.6116 4.72743H26.8506L27.0788 7.98771H26.8398C26.7859 7.58351 26.6118 7.20485 26.3399 6.90095C26.1745 6.7842 25.9873 6.70191 25.7894 6.65897C25.5915 6.61603 25.387 6.61332 25.1881 6.651L25.3511 8.95493C25.3472 9.03344 25.362 9.11175 25.3941 9.18351C25.4262 9.25526 25.4747 9.31843 25.5358 9.3679C25.7426 9.43471 25.9619 9.45329 26.1769 9.42223C26.6987 9.40853 27.2064 9.25054 27.6439 8.9658C28.0871 8.60122 28.4124 8.11334 28.5784 7.56388H28.9043L28.6544 9.57438L23.0149 9.92214Z" fill="white"/>
<path fill-rule="evenodd" clip-rule="evenodd" d="M29.252 9.57455L29.3172 9.33546C29.5111 9.39144 29.7139 9.40988 29.9148 9.3898C30.0182 9.35288 30.1099 9.28914 30.1805 9.20512C30.2512 9.1211 30.2982 9.01981 30.3168 8.91163L31.5121 4.43418C31.5551 4.33238 31.5667 4.22004 31.5454 4.1116C31.5241 4.00316 31.4709 3.90356 31.3926 3.82559C31.2388 3.70332 31.0611 3.61448 30.871 3.56477L30.9362 3.32568L36.2607 4.76021L35.7499 6.61857L35.5326 6.52076C35.6027 6.04316 35.5068 5.55597 35.261 5.14057C34.863 4.75657 34.36 4.49937 33.8158 4.40158C33.6356 4.33371 33.4406 4.31496 33.2507 4.34724C33.1938 4.37963 33.1454 4.4251 33.1095 4.4799C33.0736 4.5347 33.0512 4.59725 33.0443 4.6624L32.4684 6.83592C32.8165 6.97844 33.2068 6.97844 33.555 6.83592C33.8987 6.59055 34.1692 6.25618 34.3373 5.8687L34.5655 5.93391L33.7288 9.05291L33.5006 8.99857C33.5816 8.5908 33.5438 8.16838 33.392 7.7814C33.2731 7.6162 33.1225 7.47634 32.949 7.36998C32.7755 7.26362 32.5826 7.1929 32.3814 7.16195L31.7838 9.40067C31.7467 9.4671 31.7272 9.54193 31.7272 9.61802C31.7272 9.69412 31.7467 9.76895 31.7838 9.83537C31.9527 9.975 32.1548 10.0686 32.3706 10.1071C32.8746 10.2526 33.4095 10.2526 33.9136 10.1071C34.4492 9.90432 34.9138 9.5492 35.2501 9.08551L35.5 9.16158L34.609 10.9873L29.252 9.57455Z" fill="white"/>
<path fill-rule="evenodd" clip-rule="evenodd" d="M35.424 11.1717L41.8242 8.36783C41.2374 7.95486 40.8752 7.71577 40.7375 7.65057C40.6298 7.5842 40.5172 7.52607 40.4007 7.47669C40.0598 7.32005 39.6735 7.29301 39.3141 7.40061C38.9788 7.53961 38.6614 7.71839 38.3687 7.93312L38.1514 7.78098L39.4445 6.28125L43.5628 9.16116L43.4758 9.29157L37.0648 12.1063C37.7613 12.6576 38.5481 13.0841 39.3901 13.3669C39.7303 13.3762 40.0684 13.3121 40.3816 13.1789C40.6947 13.0458 40.9755 12.8467 41.2048 12.5953L41.4004 12.7366L39.8791 14.4754L35.3262 11.2912L35.424 11.1717Z" fill="white"/>
<path fill-rule="evenodd" clip-rule="evenodd" d="M44.28 16.519L45.5731 14.4976L45.5187 14.4324L43.2151 14.9975L44.28 16.519ZM40.5746 14.7367C40.6432 14.8233 40.7309 14.8928 40.8308 14.94C40.9307 14.9871 41.0401 15.0105 41.1505 15.0084C41.4476 14.9886 41.7423 14.9413 42.0307 14.8671L47.5399 13.6064L47.692 13.8238L44.8016 18.4751C44.5743 18.8194 44.378 19.183 44.2148 19.5619C44.1823 19.6549 44.1743 19.7547 44.1914 19.8518C44.2085 19.9488 44.2502 20.0398 44.3126 20.1161L44.1061 20.2465L42.3349 17.7144L42.5305 17.5731C42.6441 17.7455 42.7833 17.8994 42.9434 18.0296C43.0002 18.0561 43.0637 18.0651 43.1256 18.0555C43.1875 18.0458 43.2452 18.0178 43.2912 17.9752C43.3767 17.897 43.4532 17.8095 43.5194 17.7144C43.5194 17.6383 43.6498 17.5405 43.7149 17.4318L44.0518 16.8993L42.8239 15.1388L42.0524 15.3344C41.8763 15.3775 41.7078 15.4472 41.5526 15.5409C41.4923 15.5862 41.4495 15.6511 41.4317 15.7244C41.4139 15.7977 41.422 15.875 41.4548 15.943C41.5164 16.0971 41.5967 16.2431 41.6938 16.3777L41.4982 16.519L40.4116 14.9106L40.5746 14.7367Z" fill="white"/>
<path fill-rule="evenodd" clip-rule="evenodd" d="M44.4756 20.518C44.505 20.7654 44.6298 20.9915 44.8233 21.1483C45.0093 21.2165 45.2133 21.2165 45.3993 21.1483L49.8327 20.2137C49.9946 20.0058 50.1434 19.7881 50.2782 19.5616C50.3113 19.4666 50.3113 19.3632 50.2782 19.2682L50.5172 19.2139L50.941 21.1918L47.6812 25.2454L50.4629 24.6477C50.706 24.6179 50.9319 24.5068 51.104 24.3325C51.2253 24.1023 51.26 23.8362 51.2018 23.5826H51.4409L51.8646 25.5931L51.6256 25.6475C51.5615 25.4423 51.454 25.2533 51.3105 25.0932C51.1225 25.0159 50.9117 25.0159 50.7237 25.0932L45.2037 26.2561V26.0822L49.3437 20.8983V20.8331L45.6709 21.6156C45.4585 21.6404 45.2582 21.7274 45.095 21.8656C45.0029 21.9797 44.9407 22.115 44.9141 22.2592C44.8875 22.4035 44.8974 22.552 44.9429 22.6915L44.7038 22.7458L44.2583 20.6267L44.4756 20.518Z" fill="white"/>
<path d="M16.8318 56.5117C16.4909 56.6051 16.1275 56.5703 15.8104 56.4139L15.0607 56.1096L14.5282 57.4246L13.7676 57.1094L15.2345 53.4688L16.7993 54.0991C17.1159 54.2139 17.3815 54.4372 17.549 54.7294C17.6234 54.8856 17.6619 55.0563 17.6619 55.2293C17.6619 55.4023 17.6234 55.573 17.549 55.7292C17.4993 55.9068 17.4085 56.0702 17.2839 56.2062C17.1593 56.3421 17.0044 56.4468 16.8318 56.5117ZM16.7775 54.9685C16.6979 54.8368 16.575 54.7369 16.4298 54.6859L15.7452 54.3382L15.3106 55.4249L15.9952 55.7075C16.1426 55.7606 16.304 55.7606 16.4515 55.7075C16.5235 55.6709 16.5875 55.6203 16.6397 55.5587C16.6919 55.4972 16.7314 55.4258 16.7558 55.3488C16.7912 55.2825 16.8115 55.2091 16.8153 55.1339C16.819 55.0588 16.8061 54.9837 16.7775 54.9141V54.9685Z" fill="#711F7E"/>
<path d="M18.6138 55.7617L18.1356 57.4461C18.1127 57.5682 18.1127 57.6935 18.1356 57.8156C18.15 57.8969 18.189 57.9717 18.2473 58.03C18.3056 58.0883 18.3804 58.1273 18.4616 58.1417C18.5663 58.1823 18.6811 58.1895 18.7901 58.1623C18.899 58.135 18.9969 58.0747 19.0701 57.9895C19.1587 57.8642 19.2249 57.7245 19.2657 57.5765L19.6895 56.0551L20.4284 56.2616L19.6352 59.0545L18.9289 58.8589L19.0375 58.4568L18.9615 58.522L18.8419 58.609C18.7221 58.681 18.5877 58.7252 18.4485 58.7384C18.3094 58.7515 18.169 58.7333 18.0378 58.685C17.8648 58.6556 17.7046 58.5744 17.5786 58.4522C17.4525 58.33 17.3664 58.1725 17.3315 58.0004C17.2966 57.7435 17.3265 57.482 17.4185 57.2397L17.8966 55.5552L18.6138 55.7617Z" fill="#711F7E"/>
<path d="M22.4711 56.6093H22.5363L22.3842 57.37H22.2538H22.1668C22.0511 57.3346 21.9278 57.3322 21.8107 57.3629C21.6937 57.3936 21.5875 57.4563 21.504 57.5439C21.4064 57.691 21.3433 57.8581 21.3193 58.033L21.0476 59.4023L20.2979 59.2501L20.8629 56.4028L21.5801 56.5332L21.4823 57.0332C21.5893 56.9075 21.7137 56.7977 21.8517 56.7071C22.0337 56.6176 22.2413 56.5945 22.4385 56.6419L22.4711 56.6093Z" fill="#711F7E"/>
<path d="M24.612 57.0113C24.8025 57.1257 24.9568 57.2914 25.0576 57.4895C25.1572 57.6813 25.2129 57.8929 25.2206 58.1089C25.2329 58.3007 25.2329 58.4931 25.2206 58.6849L23.1234 58.4349C23.1035 58.554 23.1139 58.6763 23.1538 58.7902C23.1937 58.9042 23.2617 59.0063 23.3516 59.087C23.4678 59.1776 23.6071 59.2341 23.7536 59.25C23.9042 59.2746 24.0587 59.2437 24.1883 59.1631C24.2592 59.1152 24.3186 59.0521 24.3621 58.9783L25.1336 59.0761C25.074 59.2668 24.9562 59.434 24.7968 59.5543C24.6391 59.6831 24.4558 59.7769 24.2591 59.8293C24.0623 59.8818 23.8567 59.8918 23.6558 59.8586C23.2871 59.808 22.9443 59.6404 22.6779 59.3804C22.5403 59.215 22.4424 59.0203 22.3916 58.8112C22.3407 58.6022 22.3383 58.3843 22.3845 58.1741C22.3954 57.9664 22.4482 57.7631 22.5397 57.5764C22.6312 57.3896 22.7595 57.2233 22.9169 57.0874C23.0696 56.9698 23.245 56.885 23.4319 56.8382C23.6189 56.7915 23.8135 56.7838 24.0035 56.8157C24.2172 56.8406 24.4239 56.9071 24.612 57.0113ZM23.4059 57.5221C23.2773 57.6312 23.1892 57.7805 23.156 57.9459L24.4491 58.098C24.4593 58.0129 24.452 57.9266 24.4277 57.8444C24.4034 57.7622 24.3626 57.6858 24.3078 57.6199C24.1939 57.499 24.0388 57.4253 23.8731 57.4134C23.792 57.3982 23.7086 57.4001 23.6281 57.4188C23.5477 57.4375 23.4721 57.4726 23.4059 57.5221Z" fill="#711F7E"/>
<path d="M25.4487 59.1196H26.2528V59.913H25.4487V59.1196Z" fill="#711F7E"/>
<path d="M31.0772 58.1089C30.8083 58.3407 30.465 58.468 30.1101 58.4675L29.2842 58.5327L29.3929 59.9347L28.5779 59.9999L28.252 56.0767L29.9905 55.9571C30.328 55.9143 30.6692 55.9996 30.9468 56.1962C31.0787 56.3085 31.1841 56.4485 31.2555 56.6064C31.3269 56.7642 31.3625 56.9359 31.3597 57.1091C31.387 57.2862 31.376 57.4672 31.3272 57.6397C31.2785 57.8123 31.1932 57.9723 31.0772 58.1089ZM30.3491 56.7396C30.2158 56.6578 30.0589 56.6234 29.9036 56.6418L29.1647 56.6961L29.2408 57.8481H29.9797C30.1403 57.8421 30.2939 57.7807 30.4143 57.6742C30.4647 57.6105 30.5014 57.5371 30.522 57.4585C30.5426 57.38 30.5466 57.298 30.5339 57.2178C30.5378 57.1255 30.519 57.0336 30.4793 56.9503C30.4395 56.8669 30.3799 56.7946 30.3057 56.7396H30.3491Z" fill="#711F7E"/>
<path d="M33.2504 56.5114L33.3699 57.283H33.1526C33.0303 57.2851 32.9114 57.3234 32.8109 57.393C32.7103 57.4626 32.6326 57.5605 32.5876 57.6742C32.5485 57.8459 32.5485 58.0242 32.5876 58.1958L32.8049 59.5652L32.0443 59.6847L31.5879 56.8156L32.3051 56.6961L32.3811 57.2069C32.4395 57.0457 32.5239 56.8951 32.631 56.7613C32.7661 56.6122 32.9523 56.5191 33.1526 56.5005L33.2504 56.5114Z" fill="#711F7E"/>
<path d="M36.4452 58.4243C36.2249 58.78 35.8738 59.0351 35.4674 59.1347C35.061 59.2343 34.6318 59.1704 34.272 58.9568C33.955 58.7155 33.7352 58.3684 33.6526 57.9787C33.5528 57.5984 33.5873 57.1953 33.7504 56.8376C33.8453 56.6494 33.9834 56.4863 34.1534 56.3617C34.3233 56.237 34.5204 56.1543 34.7284 56.1204C34.9285 56.0584 35.1402 56.0428 35.3473 56.0748C35.5544 56.1068 35.7515 56.1856 35.9236 56.3051C36.2317 56.5525 36.4463 56.8975 36.5322 57.2832C36.6472 57.661 36.6162 58.0682 36.4452 58.4243ZM35.7607 58.1635C35.8368 57.9379 35.8368 57.6935 35.7607 57.4679C35.7181 57.2336 35.5997 57.0198 35.4238 56.8593C35.3502 56.7961 35.2615 56.7529 35.1664 56.7338C35.0712 56.7148 34.9728 56.7206 34.8805 56.7507C34.784 56.7691 34.6932 56.8103 34.6158 56.8708C34.5383 56.9312 34.4763 57.0093 34.435 57.0984C34.3588 57.324 34.3588 57.5684 34.435 57.794C34.4831 58.0294 34.6004 58.2451 34.7718 58.4134C34.8495 58.4731 34.9404 58.5132 35.0369 58.5302C35.1334 58.5473 35.2326 58.5407 35.326 58.5112C35.4216 58.4938 35.5113 58.4529 35.5872 58.3922C35.663 58.3315 35.7227 58.2529 35.7607 58.1635Z" fill="#711F7E"/>
<path d="M37.3148 54.3379H37.4669L37.6625 54.9247L37.456 54.9899C37.4179 54.9936 37.3812 55.0064 37.3491 55.0272C37.317 55.048 37.2903 55.0762 37.2713 55.1095C37.2495 55.1654 37.2495 55.2275 37.2713 55.2834C37.2713 55.2834 37.2713 55.4138 37.3474 55.5116L37.8146 55.3594L37.9885 55.8702L37.5104 56.0224L38.2384 58.1959L37.5212 58.435L36.7932 56.1962L36.3911 56.3375L36.2173 55.8268L36.6193 55.6963L36.5107 55.5551C36.4316 55.3412 36.4316 55.106 36.5107 54.8921C36.5107 54.6965 36.7823 54.5335 37.1844 54.3922L37.3148 54.3379Z" fill="#711F7E"/>
<path d="M38.6835 54.6097L37.9555 54.8814L37.7056 54.2293L38.4336 53.9468L38.6835 54.6097ZM38.0859 55.2074L38.8031 54.9249L39.8897 57.6418L39.1725 57.9135L38.0859 55.2074Z" fill="#711F7E"/>
<path d="M39.3033 55.3488L39.0859 54.8489L39.4554 54.6859L39.1294 53.9469L39.814 53.6426L40.1508 54.3816L40.5746 54.1968L40.8028 54.6859L40.3682 54.8815L40.9875 56.2834C40.9875 56.3921 41.0745 56.4573 41.1179 56.4682C41.2137 56.4682 41.3077 56.4419 41.3896 56.3921H41.4548H41.5308L41.759 56.9029L41.433 57.0659C41.3226 57.1353 41.1992 57.1818 41.0704 57.2023C40.9415 57.2229 40.8098 57.2171 40.6833 57.1854C40.6164 57.1561 40.5566 57.1128 40.5078 57.0585C40.4591 57.0041 40.4226 56.9399 40.4008 56.8703L39.6727 55.2401L39.3033 55.3488Z" fill="#711F7E"/>
<path d="M41.813 55.9027L42.5302 55.5332L42.8996 56.2505L42.1716 56.6091L41.813 55.9027Z" fill="#711F7E"/>
<path d="M63.2958 16.106H61.894V40.069H63.2958V16.106Z" fill="#008641"/>
<path d="M175.989 16.106H174.587V40.069H175.989V16.106Z" fill="#008641"/>
<path d="M67.8813 30.6465C68.1429 30.634 68.3978 30.5607 68.6261 30.4324C68.8543 30.3041 69.0495 30.1244 69.1962 29.9075C69.5662 29.3019 69.8756 28.6612 70.1198 27.9948L75.1726 15.5405H75.8137L80.8882 27.4949C81.2347 28.3945 81.6564 29.2634 82.1487 30.0922C82.2848 30.2809 82.4674 30.4311 82.6788 30.5282C82.8901 30.6253 83.123 30.6661 83.3548 30.6465V31.2225H75.9984V30.6465C76.495 30.6414 76.9886 30.5683 77.4653 30.4291C77.6935 30.3313 77.8131 30.0814 77.8131 29.6901C77.7898 29.4147 77.7276 29.1439 77.6283 28.8859C77.5631 28.6686 77.4545 28.4078 77.3349 28.1035L76.7156 26.7559H71.6085L70.9673 28.5273C70.8083 28.9353 70.706 29.3631 70.6631 29.7988C70.6631 30.1248 70.8804 30.3639 71.3259 30.5161C71.7066 30.6073 72.0972 30.6511 72.4886 30.6465V31.2225H67.8813V30.6465ZM76.4222 25.8539L74.2489 20.594H74.0642L72.0105 25.8539H76.4222Z" fill="#231F20"/>
<path d="M84.1479 30.679C84.4587 30.6279 84.7508 30.4968 84.9955 30.2986C85.2037 30.0097 85.2932 29.6518 85.2454 29.2988V17.714C85.2873 17.3781 85.2063 17.0384 85.0172 16.7576C84.7639 16.562 84.4646 16.4348 84.1479 16.3881V15.8447H88.4944V29.3423C88.4475 29.6902 88.5328 30.0432 88.7335 30.3312C88.9843 30.535 89.2839 30.6699 89.6028 30.7225V31.2658H84.1697L84.1479 30.679Z" fill="#231F20"/>
<path d="M95.8726 30.6464C96.4753 30.7181 97.0824 30.5546 97.5677 30.19C97.8573 29.799 97.9962 29.3167 97.9589 28.8315V18.0291C97.9899 17.8036 97.9655 17.574 97.8879 17.36C97.8103 17.1461 97.6817 16.9542 97.5134 16.8011C97.0227 16.5595 96.4846 16.4297 95.9378 16.4207V15.8447H101.708L106.185 26.3863H106.369L110.824 15.8447H116.562V16.4207C116.007 16.4192 115.462 16.5695 114.986 16.8554C114.704 17.0728 114.562 17.627 114.562 18.5073V28.5707C114.487 29.1519 114.639 29.7399 114.986 30.2117C115.449 30.5276 116.003 30.6805 116.562 30.6464V31.2224H109.01V30.6464C109.537 30.6618 110.06 30.5461 110.531 30.3095C110.724 30.1495 110.872 29.9424 110.962 29.7082C111.051 29.474 111.079 29.2207 111.042 28.9728V17.8444H110.879L105.294 31.2224H104.685L99.0129 18.1161H98.9042V28.4077C98.8573 28.9936 99.0064 29.5785 99.328 30.0704C99.5861 30.285 99.8841 30.4464 100.205 30.5453C100.526 30.6442 100.863 30.6785 101.197 30.6464V31.2224H95.8726V30.6464Z" fill="#231F20"/>
<path d="M118.822 21.9306C119.251 21.4673 119.773 21.0992 120.353 20.8502C120.933 20.6012 121.559 20.4769 122.191 20.4853C122.934 20.4828 123.664 20.6859 124.299 21.0721C124.956 21.4567 125.488 22.0227 125.831 22.7022C126.125 23.3489 126.312 24.0389 126.385 24.7454C126.43 25.044 126.455 25.3454 126.461 25.6474H120.648C120.684 26.4541 120.834 27.2517 121.093 28.0165C121.214 28.5494 121.512 29.0255 121.938 29.3671C122.364 29.7086 122.894 29.8953 123.44 29.8966C123.987 29.8908 124.518 29.7161 124.962 29.3967C125.356 29.096 125.72 28.7575 126.048 28.386L126.57 28.7012C126.006 29.7258 125.157 30.5641 124.125 31.1138C123.268 31.513 122.31 31.6416 121.378 31.4824C120.446 31.3231 119.585 30.8837 118.909 30.2226C118.38 29.6638 117.976 28.9989 117.723 28.2719C117.47 27.545 117.374 26.7727 117.442 26.006C117.348 24.5189 117.844 23.0546 118.822 21.9306ZM123.658 24.7997C123.692 23.8553 123.59 22.9109 123.353 21.9959C123.287 21.7451 123.134 21.5263 122.921 21.3788C122.707 21.2313 122.449 21.165 122.191 21.1917C121.911 21.183 121.638 21.2698 121.414 21.4377C121.191 21.6057 121.032 21.8447 120.963 22.1154C120.709 22.9872 120.584 23.8917 120.593 24.7997H123.658Z" fill="#231F20"/>
<path d="M128.808 21.9306C129.237 21.4673 129.759 21.0992 130.339 20.8502C130.919 20.6012 131.545 20.4769 132.177 20.4853C132.92 20.4828 133.649 20.6859 134.285 21.0721C134.941 21.4567 135.473 22.0227 135.817 22.7022C136.11 23.3489 136.298 24.0389 136.371 24.7454C136.416 25.044 136.441 25.3454 136.447 25.6474H130.634C130.67 26.4541 130.82 27.2517 131.079 28.0165C131.2 28.5494 131.497 29.0255 131.924 29.3671C132.35 29.7086 132.88 29.8953 133.426 29.8966C133.972 29.8893 134.503 29.7149 134.947 29.3967C135.339 29.093 135.703 28.7547 136.034 28.386L136.556 28.7012C135.992 29.7258 135.143 30.5641 134.111 31.1138C133.254 31.513 132.296 31.6416 131.364 31.4824C130.432 31.3231 129.571 30.8837 128.895 30.2226C128.366 29.6638 127.961 28.9989 127.708 28.2719C127.456 27.545 127.36 26.7727 127.428 26.006C127.379 25.2693 127.476 24.5302 127.712 23.831C127.949 23.1317 128.322 22.486 128.808 21.9306ZM133.643 24.7997C133.681 23.8545 133.575 22.9091 133.328 21.9959C133.262 21.739 133.103 21.5153 132.883 21.3672C132.663 21.219 132.396 21.1566 132.133 21.1917C131.854 21.183 131.58 21.2698 131.357 21.4377C131.134 21.6057 130.974 21.8447 130.905 22.1154C130.651 22.9872 130.527 23.8917 130.536 24.7997H133.643Z" fill="#231F20"/>
<path d="M137.381 31.2225V30.6465L142.923 21.4851C141.824 21.3967 140.717 21.5184 139.663 21.8437C139.066 22.0937 138.577 22.8001 138.305 23.9629H137.718L137.881 20.7026H146.574V21.2786L141.141 30.5052C142.198 30.549 143.255 30.4017 144.26 30.0705C144.722 29.8006 145.122 29.4367 145.434 29.0024C145.747 28.5681 145.965 28.073 146.074 27.5492H146.705L146.346 31.179L137.381 31.2225Z" fill="#231F20"/>
<path d="M148.943 26.6582C150.405 25.8633 151.96 25.2537 153.572 24.8433V23.1914C153.619 22.6599 153.468 22.13 153.149 21.7025C152.943 21.5191 152.702 21.3808 152.44 21.2965C152.178 21.2123 151.901 21.184 151.627 21.2135C151.276 21.2015 150.928 21.2801 150.617 21.4417C150.505 21.493 150.41 21.5738 150.341 21.6753C150.272 21.7768 150.232 21.8952 150.226 22.0177C150.212 22.0895 150.212 22.1632 150.226 22.2351C150.264 22.3059 150.312 22.3716 150.367 22.4307L150.497 22.5828C150.597 22.7098 150.681 22.8485 150.747 22.9958C150.809 23.1511 150.839 23.3176 150.834 23.4848C150.845 23.6712 150.812 23.8576 150.738 24.0292C150.665 24.2008 150.553 24.353 150.41 24.4738C150.134 24.7058 149.782 24.8294 149.421 24.8215C149.025 24.8292 148.64 24.6942 148.335 24.4412C148.184 24.3045 148.065 24.1363 147.986 23.9485C147.907 23.7607 147.87 23.5579 147.878 23.3544C147.874 22.9292 147.986 22.5109 148.202 22.1449C148.419 21.779 148.731 21.4794 149.106 21.2787C150.025 20.7456 151.076 20.482 152.138 20.518C153.27 20.4768 154.394 20.7315 155.398 21.257C155.845 21.5593 156.201 21.9785 156.427 22.4689C156.653 22.9594 156.741 23.5024 156.68 24.0391V29.549C156.675 29.6974 156.721 29.8431 156.81 29.9619C156.84 30.0115 156.881 30.0532 156.93 30.0835C156.98 30.1138 157.035 30.1317 157.093 30.1358C157.176 30.141 157.259 30.1221 157.332 30.0815C157.457 30.0119 157.567 29.9197 157.658 29.8098L158.006 30.2879C157.61 30.766 157.102 31.1392 156.528 31.3747C156.181 31.5066 155.812 31.5729 155.441 31.5703C155.166 31.5945 154.889 31.554 154.633 31.4521C154.376 31.3502 154.147 31.1897 153.963 30.9835C153.753 30.6913 153.619 30.3515 153.572 29.9945C152.963 30.6024 152.218 31.0568 151.399 31.3204C150.941 31.4804 150.461 31.5649 149.976 31.5703C149.343 31.568 148.728 31.358 148.226 30.9726C147.953 30.7524 147.737 30.4694 147.597 30.1477C147.457 29.826 147.397 29.4751 147.422 29.1251C147.421 28.613 147.562 28.1107 147.831 27.6749C148.1 27.239 148.485 26.8869 148.943 26.6582ZM152.909 29.5924C153.136 29.4034 153.347 29.1962 153.54 28.973V25.6366C152.967 25.7691 152.425 26.0088 151.942 26.343C151.585 26.5567 151.29 26.8592 151.084 27.221C150.878 27.5828 150.77 27.9917 150.769 28.4079C150.753 28.7981 150.872 29.182 151.106 29.4946C151.197 29.6129 151.314 29.7093 151.447 29.777C151.581 29.8446 151.728 29.8818 151.877 29.8858C152.243 29.8937 152.603 29.7915 152.909 29.5924Z" fill="#231F20"/>
<path d="M158.516 30.679C158.848 30.6637 159.167 30.546 159.429 30.3421C159.551 30.1914 159.64 30.0169 159.691 29.8298C159.741 29.6426 159.752 29.447 159.722 29.2554V22.6153C159.758 22.2748 159.673 21.9327 159.483 21.6481C159.209 21.4248 158.869 21.2987 158.516 21.2894V20.746H162.863V22.3871C163.224 21.8372 163.698 21.3704 164.254 21.0177C164.807 20.6613 165.453 20.4761 166.112 20.4852C166.937 20.4317 167.751 20.7005 168.383 21.2351C168.687 21.6033 168.914 22.0284 169.053 22.4855C169.191 22.9426 169.236 23.4227 169.187 23.8976V29.3966C169.163 29.5706 169.173 29.7475 169.218 29.9173C169.263 30.0871 169.341 30.2462 169.448 30.3856C169.705 30.562 170.006 30.6636 170.317 30.679V31.2224H164.982V30.679C165.281 30.6478 165.567 30.535 165.807 30.353C165.998 30.073 166.08 29.7326 166.036 29.3966V23.9085C166.039 23.4999 165.965 23.0944 165.818 22.7131C165.747 22.4887 165.599 22.2963 165.4 22.1693C165.202 22.0423 164.965 21.9886 164.732 22.0176C164.329 22.0179 163.942 22.1691 163.645 22.4414C163.347 22.685 163.09 22.9749 162.884 23.2999V29.3966C162.844 29.731 162.921 30.0689 163.102 30.353C163.347 30.5345 163.635 30.647 163.938 30.679V31.2224H158.505L158.516 30.679Z" fill="#231F20"/>
<path d="M67.6096 39.2429C67.8513 39.2463 68.0901 39.1903 68.3051 39.0799C68.4137 38.9929 68.4681 38.7756 68.4681 38.417V34.3416C68.4997 34.1114 68.4414 33.8778 68.3051 33.6896C68.0957 33.5637 67.8536 33.5032 67.6096 33.5157V33.3418H70.1958V33.5157C69.9517 33.5018 69.7092 33.5625 69.5003 33.6896C69.3641 33.8778 69.3057 34.1114 69.3374 34.3416V38.417C69.3374 38.7756 69.3374 38.9929 69.5003 39.0799C69.7147 39.192 69.9539 39.2481 70.1958 39.2429V39.4168H67.5879L67.6096 39.2429Z" fill="#231F20"/>
<path d="M70.5107 39.2866C70.6667 39.2758 70.8168 39.2233 70.9454 39.1344C71.0428 38.9749 71.0849 38.7877 71.0649 38.6019V36.3197C71.0899 36.1868 71.0899 36.0505 71.0649 35.9176C71.0312 35.8602 70.9812 35.814 70.9212 35.785C70.8613 35.756 70.794 35.7454 70.7281 35.7546H70.652H70.5542V35.5916L71.38 35.3199L71.793 35.1786C71.7948 35.2003 71.7948 35.2221 71.793 35.2438V35.8959C71.9829 35.7074 72.1862 35.5331 72.4015 35.3742C72.6047 35.2292 72.8473 35.1496 73.0969 35.146C73.2882 35.1467 73.4745 35.2075 73.6293 35.3199C73.8 35.4697 73.9317 35.6588 74.0131 35.8708C74.0944 36.0829 74.1231 36.3115 74.0966 36.537V38.6345C74.0838 38.7958 74.1259 38.9566 74.2161 39.0909C74.2701 39.1443 74.3349 39.1854 74.4061 39.2117C74.4773 39.2379 74.5533 39.2486 74.629 39.2431V39.3735H72.7818V39.2431C72.9474 39.2357 73.1051 39.1703 73.2273 39.0583C73.3275 38.88 73.3693 38.6748 73.3468 38.4715V36.6023C73.3545 36.3812 73.3099 36.1615 73.2164 35.9611C73.1627 35.8763 73.0865 35.8081 72.9964 35.7639C72.9062 35.7198 72.8056 35.7015 72.7057 35.7111C72.5217 35.7156 72.3435 35.7763 72.195 35.885C72.0615 35.9933 71.9345 36.1094 71.8147 36.2328V38.7323C71.806 38.8106 71.8141 38.8899 71.8384 38.9649C71.8628 39.0399 71.9029 39.1088 71.956 39.167C72.0835 39.254 72.2365 39.2961 72.3906 39.2866V39.417H70.5107V39.2866Z" fill="#231F20"/>
<path d="M76.607 35.2544V35.3957C76.496 35.4033 76.3864 35.4252 76.281 35.4609C76.25 35.4824 76.2256 35.5121 76.2102 35.5465C76.1949 35.581 76.1893 35.6191 76.1941 35.6565C76.1881 35.7034 76.1881 35.7509 76.1941 35.7978C76.2124 35.8641 76.2342 35.9294 76.2593 35.9934L77.1612 38.2321L77.9218 36.2542C77.9645 36.1515 78.0008 36.0463 78.0305 35.9391C78.0401 35.8597 78.0401 35.7794 78.0305 35.7C78.0338 35.6463 78.0197 35.593 77.9904 35.548C77.961 35.503 77.9179 35.4686 77.8675 35.45C77.7817 35.4304 77.6925 35.4304 77.6067 35.45V35.3087H78.8889V35.45C78.8306 35.4479 78.7727 35.4596 78.7198 35.4841C78.667 35.5087 78.6206 35.5454 78.5847 35.5913C78.474 35.7769 78.3829 35.9736 78.313 36.1781L77.0743 39.4384C77.0597 39.4818 77.0376 39.5222 77.0091 39.558C76.9913 39.5631 76.9725 39.5631 76.9547 39.558C76.9547 39.558 76.9547 39.558 76.8787 39.5036C76.8526 39.4624 76.8308 39.4188 76.8135 39.3732L75.4987 36.1129C75.4294 35.9084 75.3141 35.7226 75.1618 35.5696C75.0658 35.5129 74.9579 35.4794 74.8467 35.4717V35.3305L76.607 35.2544Z" fill="#231F20"/>
<path d="M82.1487 35.6457C82.3064 35.8094 82.4284 36.004 82.507 36.2173C82.5856 36.4305 82.619 36.6578 82.6051 36.8846H79.8668C79.8495 37.4246 80.0098 37.9553 80.3232 38.3952C80.4385 38.5421 80.5851 38.6613 80.7525 38.7441C80.9199 38.8268 81.1036 38.871 81.2903 38.8734C81.5652 38.8809 81.8341 38.7926 82.0509 38.6235C82.2827 38.4277 82.4777 38.1922 82.6269 37.9279L82.7681 37.9823C82.646 38.3938 82.4217 38.7676 82.1161 39.069C81.9628 39.2274 81.7785 39.3525 81.5747 39.4366C81.371 39.5208 81.1521 39.5621 80.9317 39.5581C80.6859 39.5673 80.4419 39.5132 80.2231 39.4009C80.0042 39.2886 79.818 39.1219 79.6821 38.9169C79.3849 38.486 79.2292 37.9732 79.2366 37.4498C79.2185 36.8778 79.399 36.3171 79.7473 35.8631C79.9008 35.6598 80.0995 35.495 80.3278 35.3819C80.556 35.2687 80.8074 35.2102 81.0621 35.211C81.4676 35.2064 81.8583 35.3627 82.1487 35.6457ZM80.0842 35.9935C79.9867 36.1846 79.9207 36.39 79.8886 36.6021H81.7032C81.6881 36.3698 81.6329 36.1418 81.5402 35.9283C81.4731 35.8016 81.3706 35.6971 81.2452 35.6277C81.1198 35.5582 80.9769 35.5267 80.8339 35.5371C80.6787 35.535 80.526 35.5767 80.3934 35.6574C80.2608 35.7381 80.1536 35.8546 80.0842 35.9935Z" fill="#231F20"/>
<path d="M83.3871 38.0364H83.5284C83.5797 38.3092 83.6712 38.5729 83.8 38.8189C83.8843 38.9771 84.0117 39.108 84.1676 39.1966C84.3234 39.2851 84.5012 39.3274 84.6802 39.3188C84.8696 39.3236 85.0532 39.2533 85.1909 39.1232C85.2524 39.0601 85.3005 38.9852 85.3322 38.903C85.364 38.8208 85.3787 38.733 85.3756 38.645C85.3717 38.5145 85.3343 38.3873 85.267 38.2755C85.1658 38.1372 85.0361 38.0223 84.8866 37.9386L84.4085 37.6452C84.1119 37.5025 83.8461 37.3031 83.6262 37.0583C83.4362 36.842 83.3398 36.5592 83.3582 36.2719C83.3765 35.9846 83.508 35.7164 83.7239 35.526C83.8381 35.4172 83.9729 35.3324 84.1203 35.2764C84.2677 35.2204 84.4248 35.1944 84.5824 35.2C84.7534 35.2029 84.9226 35.236 85.0822 35.2978L85.3973 35.3847H85.506L85.5712 35.3086H85.669V36.5584H85.5386C85.4967 36.3221 85.4159 36.0945 85.2996 35.8846C85.226 35.7452 85.1145 35.6294 84.978 35.5506C84.8415 35.4718 84.6856 35.4331 84.5281 35.439C84.4415 35.4348 84.3551 35.4491 84.2745 35.4809C84.1939 35.5128 84.121 35.5615 84.0608 35.6238C83.9459 35.7477 83.8836 35.9113 83.8869 36.0802C83.8869 36.3519 84.0825 36.6019 84.4846 36.8192L85.0496 37.1344C85.6581 37.4821 85.9624 37.8842 85.9624 38.3407C85.9689 38.5049 85.938 38.6685 85.8721 38.8191C85.8063 38.9697 85.7071 39.1034 85.5821 39.2101C85.305 39.4399 84.953 39.5598 84.5932 39.547C84.394 39.5429 84.1963 39.5099 84.0065 39.4492L83.6153 39.3622C83.587 39.3531 83.5566 39.3531 83.5284 39.3622C83.5248 39.3947 83.5248 39.4275 83.5284 39.4601H83.4088L83.3871 38.0364Z" fill="#231F20"/>
<path d="M88.5488 35.287V35.6021H87.6795V38.1886C87.6573 38.3582 87.6573 38.5299 87.6795 38.6994C87.6999 38.7894 87.7514 38.8693 87.8249 38.925C87.8985 38.9806 87.9894 39.0085 88.0815 39.0037C88.1763 39.0065 88.2701 38.984 88.3532 38.9385C88.4701 38.8714 88.5764 38.7871 88.6683 38.6885L88.777 38.7863L88.6792 38.9276C88.5641 39.1108 88.403 39.2607 88.2119 39.3623C88.0657 39.4458 87.902 39.4942 87.7338 39.5036C87.5811 39.5131 87.4297 39.4711 87.3037 39.3844C87.1776 39.2978 87.0842 39.1714 87.0384 39.0254C86.9637 38.7977 86.9306 38.5584 86.9406 38.319V35.6021H86.4951C86.4886 35.5772 86.4886 35.551 86.4951 35.5261L86.6146 35.4174C86.7664 35.2872 86.9114 35.1493 87.0492 35.0044C87.1362 34.8957 87.3426 34.6132 87.6577 34.1567H87.7229C87.7229 34.1567 87.7229 34.1567 87.7229 34.2219V35.3087L88.5488 35.287Z" fill="#231F20"/>
<path d="M88.853 39.2972C89.0093 39.2957 89.1625 39.2545 89.2985 39.1777C89.3664 39.1105 89.4175 39.0282 89.4477 38.9376C89.4779 38.847 89.4864 38.7505 89.4724 38.656V36.3412C89.4881 36.1921 89.4617 36.0415 89.3963 35.9065C89.3587 35.8714 89.3141 35.8446 89.2654 35.8277C89.2168 35.8109 89.1651 35.8044 89.1138 35.8087H88.9834H88.8748V35.6457L89.179 35.537C89.2985 35.537 89.4833 35.4283 89.7332 35.3305L90.1352 35.1784V35.863C90.3574 35.6481 90.6056 35.4619 90.8741 35.3088C91.0701 35.2114 91.2855 35.1593 91.5044 35.1566C91.6383 35.1519 91.7716 35.1779 91.894 35.2325C92.0164 35.2871 92.1247 35.369 92.2107 35.4718C92.3104 35.6109 92.3874 35.765 92.4389 35.9282C92.6082 35.7453 92.7937 35.5779 92.9931 35.4283C93.2376 35.2543 93.5296 35.1595 93.8298 35.1566C94.0267 35.1397 94.2238 35.1879 94.3907 35.294C94.5576 35.4 94.685 35.5579 94.7534 35.7435C94.8624 36.0948 94.9066 36.4631 94.8838 36.8303V38.6886C94.8728 38.767 94.8798 38.8469 94.9043 38.9223C94.9287 38.9976 94.97 39.0663 95.025 39.1233C95.1696 39.2208 95.3397 39.2737 95.514 39.2755V39.395H93.6016V39.2646C93.779 39.2725 93.9543 39.223 94.1014 39.1233C94.1972 38.9752 94.2394 38.7988 94.2209 38.6234V36.7107C94.2308 36.4935 94.2014 36.2763 94.134 36.0695C94.0836 35.9499 93.9964 35.8496 93.8849 35.7831C93.7735 35.7166 93.6438 35.6875 93.5146 35.7C93.3104 35.7039 93.1126 35.7724 92.9496 35.8956C92.8124 36.0075 92.6818 36.1273 92.5584 36.2543V38.5473C92.5454 38.7375 92.5909 38.9271 92.6888 39.0907C92.7649 39.2211 92.9387 39.2863 93.2104 39.2972V39.4167H91.2219V39.2972C91.4143 39.2904 91.5985 39.2175 91.7434 39.0907C91.8432 38.8542 91.8807 38.596 91.8521 38.3409V37.0802C91.8644 36.7626 91.8352 36.4448 91.7652 36.1347C91.7323 36.0037 91.6545 35.8883 91.5453 35.8089C91.436 35.7294 91.3023 35.6909 91.1675 35.7C90.9836 35.7057 90.8041 35.7581 90.646 35.8522C90.4753 35.955 90.3245 36.0875 90.2004 36.2434V38.6886C90.1853 38.8569 90.2274 39.0254 90.32 39.1668C90.4593 39.2732 90.6351 39.3201 90.8089 39.2972V39.4167H88.853V39.2972Z" fill="#231F20"/>
<path d="M98.5999 35.6456C98.7562 35.8098 98.8766 36.0047 98.9533 36.2181C99.03 36.4314 99.0614 36.6584 99.0454 36.8845H96.2745C96.2572 37.4244 96.4175 37.9551 96.7309 38.3951C96.8462 38.542 96.9929 38.6612 97.1602 38.7439C97.3276 38.8267 97.5113 38.8709 97.698 38.8733C97.9726 38.879 98.241 38.7908 98.4586 38.6233C98.6904 38.4275 98.8854 38.192 99.0346 37.9278L99.1758 37.9821C99.0491 38.3916 98.8255 38.7644 98.5238 39.0689C98.3705 39.2272 98.1862 39.3524 97.9824 39.4365C97.7787 39.5206 97.5598 39.5619 97.3394 39.5579C97.0936 39.5672 96.8496 39.5131 96.6308 39.4008C96.4119 39.2885 96.2257 39.1218 96.0898 38.9167C95.7926 38.4858 95.6369 37.9731 95.6443 37.4496C95.6386 36.8723 95.8346 36.3111 96.1985 35.8629C96.3529 35.6554 96.5549 35.4878 96.7875 35.3744C97.02 35.2609 97.2764 35.2049 97.535 35.2109C97.933 35.212 98.3149 35.3679 98.5999 35.6456ZM96.5353 35.9934C96.4331 36.1824 96.3668 36.3887 96.3397 36.6019H98.1544C98.1393 36.3696 98.0841 36.1417 97.9914 35.9281C97.9243 35.8014 97.8218 35.697 97.6964 35.6275C97.571 35.5581 97.4281 35.5266 97.2851 35.5369C97.1299 35.5348 96.9772 35.5765 96.8446 35.6573C96.7119 35.738 96.6048 35.8545 96.5353 35.9934Z" fill="#231F20"/>
<path d="M99.5343 39.2866C99.6902 39.2758 99.8404 39.2233 99.969 39.1344C100.066 38.9749 100.108 38.7877 100.088 38.6019V36.3197C100.1 36.1833 100.081 36.046 100.034 35.9176C100 35.8602 99.9504 35.814 99.8904 35.785C99.8305 35.756 99.7633 35.7454 99.6973 35.7546H99.6212H99.5234V35.5916L100.36 35.3199L100.762 35.1786C100.762 35.1786 100.762 35.1786 100.762 35.2438V35.8959C100.953 35.7041 101.16 35.5295 101.382 35.3742C101.583 35.2266 101.827 35.1467 102.077 35.146C102.268 35.1502 102.453 35.2107 102.609 35.3199C102.777 35.472 102.905 35.6617 102.985 35.8733C103.064 36.085 103.092 36.3125 103.066 36.537V38.6345C103.05 38.7976 103.097 38.9606 103.196 39.0909C103.249 39.1461 103.313 39.1885 103.385 39.2149C103.457 39.2413 103.533 39.2509 103.609 39.2431V39.3735H101.816V39.2431C101.978 39.2332 102.131 39.168 102.251 39.0583C102.361 38.8837 102.407 38.6763 102.381 38.4715V36.6023C102.386 36.3804 102.337 36.1606 102.24 35.9611C102.189 35.8763 102.115 35.8077 102.026 35.7635C101.938 35.7192 101.839 35.7011 101.74 35.7111C101.553 35.7141 101.37 35.7748 101.219 35.885C101.087 35.9911 100.963 36.1074 100.849 36.2328V38.7323C100.84 38.8098 100.846 38.8885 100.869 38.9633C100.891 39.0381 100.929 39.1075 100.98 39.167C101.107 39.254 101.26 39.2961 101.414 39.2866V39.417H99.5343V39.2866Z" fill="#231F20"/>
<path d="M105.978 35.287V35.6021H105.098V38.1886C105.091 38.3613 105.113 38.534 105.163 38.6994C105.184 38.7894 105.235 38.8693 105.309 38.925C105.382 38.9806 105.473 39.0085 105.565 39.0037C105.656 39.0051 105.746 38.9826 105.826 38.9385C105.924 38.8672 106.011 38.7832 106.087 38.6885L106.206 38.7863L106.109 38.9276C105.99 39.1116 105.825 39.2614 105.63 39.3623C105.484 39.4458 105.32 39.4942 105.152 39.5036C105.001 39.5125 104.851 39.4701 104.727 39.3834C104.603 39.2966 104.511 39.1705 104.468 39.0254C104.393 38.7977 104.36 38.5584 104.37 38.319V35.6021H103.881C103.875 35.5771 103.875 35.5511 103.881 35.5261L104.011 35.4174C104.16 35.2877 104.302 35.1498 104.435 35.0044L105.055 34.1567H105.12C105.12 34.1567 105.12 34.1567 105.12 34.2219V35.3087L105.978 35.287Z" fill="#231F20"/>
<path d="M108.391 39.2429C108.65 39.2429 108.9 39.1504 109.097 38.9821C109.229 38.6932 109.282 38.3743 109.249 38.0583V34.3416C109.277 34.1131 109.223 33.8822 109.097 33.6896C108.892 33.562 108.653 33.5012 108.412 33.5157V33.3418H110.151L112.172 37.9171L114.15 33.3418H115.899V33.5157C115.674 33.5045 115.452 33.5696 115.269 33.7004C115.149 33.8911 115.099 34.1179 115.128 34.3416V38.417C115.099 38.6406 115.149 38.8674 115.269 39.0582C115.455 39.1833 115.675 39.2478 115.899 39.2429V39.4168H113.433V39.2429C113.669 39.2516 113.902 39.1829 114.095 39.0473C114.209 38.8187 114.254 38.562 114.226 38.3083V34.1895L111.976 39.4168H111.857L109.684 34.4068V38.0366C109.642 38.3765 109.715 38.7206 109.89 39.0147C110.071 39.1454 110.287 39.2175 110.51 39.2212V39.395H108.434L108.391 39.2429Z" fill="#231F20"/>
<path d="M117.029 37.4389C117.53 37.1463 118.057 36.9025 118.605 36.7107V36.3304C118.617 36.1131 118.587 35.8955 118.518 35.6892C118.456 35.5866 118.365 35.5043 118.257 35.4522C118.149 35.4001 118.028 35.3805 117.909 35.3957C117.764 35.3946 117.622 35.4321 117.496 35.5044C117.437 35.5386 117.388 35.5877 117.354 35.6468C117.319 35.7059 117.301 35.773 117.301 35.8413C117.297 35.8992 117.297 35.9573 117.301 36.0152C117.308 36.0693 117.308 36.1241 117.301 36.1782C117.31 36.2462 117.301 36.3154 117.274 36.3785C117.247 36.4416 117.204 36.4963 117.149 36.5368C117.082 36.5727 117.007 36.5914 116.931 36.5912C116.876 36.5946 116.82 36.5846 116.769 36.5619C116.718 36.5392 116.673 36.5045 116.638 36.4608C116.571 36.3775 116.532 36.2744 116.529 36.1673C116.543 36.038 116.584 35.9131 116.65 35.8007C116.715 35.6883 116.804 35.5911 116.91 35.5153C117.214 35.2638 117.603 35.1392 117.996 35.1675C118.212 35.15 118.429 35.1937 118.621 35.2937C118.813 35.3936 118.973 35.5458 119.083 35.7326C119.202 36.0176 119.254 36.3263 119.235 36.6346V38.4278C119.212 38.5462 119.212 38.668 119.235 38.7864C119.245 38.8382 119.274 38.8844 119.316 38.9164C119.358 38.9484 119.411 38.964 119.463 38.9603C119.517 38.9728 119.573 38.9728 119.626 38.9603C119.705 38.9195 119.778 38.8683 119.843 38.8082V39.0364C119.763 39.1499 119.664 39.249 119.55 39.3298C119.409 39.4362 119.238 39.4969 119.061 39.5037C118.978 39.5111 118.895 39.4958 118.821 39.4594C118.746 39.423 118.683 39.3669 118.637 39.2972C118.549 39.1572 118.5 38.9956 118.496 38.8299C118.322 38.9952 118.132 39.1444 117.931 39.2755C117.711 39.4211 117.456 39.5038 117.192 39.5146C117.072 39.5166 116.953 39.4934 116.843 39.4466C116.732 39.3999 116.633 39.3304 116.551 39.2429C116.374 39.0594 116.276 38.8133 116.279 38.5582C116.287 38.3201 116.361 38.089 116.494 37.8911C116.626 37.6931 116.812 37.5365 117.029 37.4389ZM118.605 36.9281C118.318 37.0202 118.044 37.148 117.79 37.3084C117.616 37.3906 117.467 37.5173 117.358 37.6758C117.249 37.8343 117.185 38.0188 117.17 38.2105C117.161 38.3228 117.179 38.4357 117.223 38.5397C117.266 38.6436 117.334 38.7357 117.42 38.8082C117.529 38.8927 117.663 38.9386 117.801 38.9386C117.993 38.9366 118.182 38.8801 118.344 38.7756C118.421 38.7347 118.486 38.6739 118.532 38.5993C118.578 38.5248 118.603 38.4393 118.605 38.3517V36.9281Z" fill="#231F20"/>
<path d="M120.104 39.2866C120.191 39.2946 120.278 39.281 120.358 39.247C120.437 39.2129 120.507 39.1595 120.561 39.0915C120.615 39.0235 120.651 38.9431 120.667 38.8576C120.682 38.7721 120.675 38.6842 120.648 38.6019V36.3197C120.67 36.1866 120.67 36.0507 120.648 35.9176C120.613 35.8611 120.563 35.8158 120.503 35.7869C120.443 35.758 120.377 35.7468 120.311 35.7546H120.18H120.083V35.5916L120.919 35.3199L121.321 35.1786C121.321 35.1786 121.321 35.1786 121.321 35.2438V35.8959C121.512 35.7041 121.719 35.5295 121.941 35.3742C122.143 35.2279 122.386 35.1482 122.636 35.146C122.827 35.1488 123.013 35.2095 123.169 35.3199C123.336 35.472 123.464 35.6617 123.544 35.8733C123.623 36.085 123.651 36.3125 123.625 36.537V38.6345C123.609 38.7976 123.656 38.9606 123.755 39.0909C123.808 39.1461 123.873 39.1885 123.944 39.2149C124.016 39.2413 124.092 39.2509 124.168 39.2431V39.3735H122.354V39.2431C122.516 39.236 122.67 39.1703 122.788 39.0583C122.898 38.8837 122.944 38.6763 122.919 38.4715V36.6023C122.928 36.3798 122.88 36.1587 122.777 35.9611C122.726 35.8763 122.652 35.8077 122.564 35.7635C122.475 35.7192 122.376 35.7011 122.277 35.7111C122.093 35.7119 121.914 35.7729 121.767 35.885C121.631 35.9904 121.504 36.1067 121.386 36.2328V38.7323C121.375 38.8107 121.382 38.8906 121.407 38.966C121.431 39.0413 121.473 39.11 121.528 39.167C121.65 39.2556 121.801 39.298 121.952 39.2866V39.417H120.083L120.104 39.2866Z" fill="#231F20"/>
<path d="M125.244 37.4387C125.746 37.1484 126.273 36.9047 126.819 36.7106V36.3302C126.837 36.1127 126.807 35.8939 126.732 35.689C126.673 35.5863 126.585 35.5036 126.478 35.4513C126.372 35.3991 126.252 35.3797 126.135 35.3956C125.986 35.393 125.84 35.4306 125.711 35.5042C125.652 35.5384 125.603 35.5875 125.568 35.6466C125.534 35.7057 125.516 35.7728 125.515 35.8411C125.515 35.8411 125.515 35.939 125.515 36.015C125.515 36.0911 125.515 36.1563 125.515 36.178C125.524 36.247 125.513 36.3169 125.484 36.3801C125.455 36.4433 125.41 36.4975 125.352 36.5367C125.29 36.5726 125.218 36.5913 125.146 36.591C125.089 36.5936 125.032 36.5832 124.979 36.5606C124.926 36.5381 124.879 36.5039 124.842 36.4606C124.778 36.3763 124.743 36.2731 124.744 36.1672C124.756 36.0385 124.795 35.9139 124.859 35.8015C124.922 35.6891 125.009 35.5915 125.113 35.5151C125.418 35.2656 125.807 35.1413 126.2 35.1674C126.416 35.1498 126.632 35.1935 126.825 35.2935C127.017 35.3935 127.177 35.5456 127.287 35.7325C127.41 36.0165 127.466 36.3252 127.45 36.6345V38.4276C127.433 38.5466 127.433 38.6673 127.45 38.7863C127.46 38.838 127.489 38.8842 127.531 38.9162C127.573 38.9482 127.625 38.9638 127.678 38.9601C127.731 38.9735 127.787 38.9735 127.841 38.9601C127.922 38.9176 127.998 38.8666 128.069 38.808V39.0362C127.985 39.1472 127.887 39.2459 127.776 39.3296C127.633 39.4348 127.463 39.4954 127.287 39.5035C127.204 39.5109 127.121 39.4956 127.046 39.4592C126.971 39.4229 126.908 39.3668 126.863 39.297C126.77 39.1581 126.718 38.9965 126.711 38.8297C126.537 38.992 126.352 39.141 126.157 39.2753C125.935 39.4181 125.681 39.5005 125.418 39.5144C125.298 39.5171 125.178 39.4943 125.068 39.4474C124.957 39.4006 124.858 39.3308 124.777 39.2427C124.687 39.1533 124.616 39.0464 124.57 38.9286C124.523 38.8108 124.501 38.6847 124.505 38.558C124.513 38.3214 124.586 38.0916 124.716 37.894C124.847 37.6965 125.029 37.5389 125.244 37.4387ZM126.819 36.9279C126.535 37.0244 126.261 37.152 126.004 37.3083C125.831 37.3904 125.682 37.5172 125.573 37.6756C125.464 37.8341 125.399 38.0186 125.385 38.2103C125.375 38.3237 125.394 38.4378 125.44 38.5422C125.485 38.6466 125.556 38.7379 125.646 38.808C125.75 38.8925 125.881 38.9386 126.015 38.9384C126.208 38.9383 126.397 38.8816 126.559 38.7754C126.636 38.7346 126.701 38.6737 126.747 38.5991C126.793 38.5246 126.818 38.4391 126.819 38.3516V36.9279Z" fill="#231F20"/>
<path d="M128.982 37.4279C128.833 37.1984 128.758 36.9295 128.764 36.6563C128.772 36.2871 128.911 35.9327 129.156 35.6564C129.294 35.5063 129.462 35.3871 129.649 35.3065C129.836 35.226 130.038 35.186 130.242 35.1891C130.482 35.1961 130.717 35.2477 130.938 35.3413C131.167 35.4423 131.415 35.4942 131.666 35.4934H132.253V35.8629H131.514L131.633 36.189C131.675 36.3487 131.697 36.5129 131.698 36.678C131.692 37.0334 131.548 37.3725 131.296 37.6235C131.155 37.7658 130.985 37.8769 130.798 37.9499C130.611 38.0229 130.41 38.056 130.21 38.0473C130.083 38.0571 129.956 38.0571 129.829 38.0473C129.742 38.0473 129.634 38.1234 129.493 38.2647C129.389 38.3605 129.317 38.4856 129.286 38.6233C129.286 38.7211 129.395 38.7863 129.59 38.8407C129.735 38.8525 129.88 38.8525 130.025 38.8407C130.532 38.8174 131.04 38.8612 131.535 38.9711C131.733 39.0195 131.908 39.1368 132.027 39.3021C132.147 39.4674 132.203 39.6698 132.187 39.8731C132.172 40.1064 132.093 40.3309 131.958 40.5225C131.824 40.714 131.641 40.8652 131.427 40.9598C130.959 41.2254 130.432 41.371 129.895 41.3837C129.51 41.3945 129.131 41.2884 128.808 41.0794C128.694 41.017 128.597 40.9282 128.526 40.8203C128.454 40.7125 128.409 40.5888 128.395 40.4599C128.394 40.3422 128.432 40.2276 128.504 40.1339C128.638 39.972 128.783 39.8195 128.938 39.6775L129.221 39.4166C129.119 39.3752 129.02 39.3243 128.927 39.2645C128.877 39.2257 128.835 39.1766 128.805 39.1203C128.775 39.0641 128.758 39.0021 128.754 38.9385C128.765 38.8059 128.818 38.6803 128.906 38.5798C129.104 38.3477 129.318 38.1299 129.547 37.9278C129.305 37.834 129.104 37.6566 128.982 37.4279ZM129.427 40.7642C129.73 40.8592 130.045 40.9068 130.362 40.9055C130.766 40.922 131.167 40.8321 131.525 40.6447C131.649 40.5899 131.756 40.5023 131.835 40.3912C131.913 40.2802 131.96 40.1499 131.97 40.0143C131.97 39.8079 131.85 39.6775 131.611 39.6123C131.331 39.5686 131.048 39.5468 130.764 39.547H130.101H129.797H129.482C129.482 39.547 129.362 39.6449 129.232 39.8296C129.108 39.9808 129.036 40.1673 129.025 40.3621C129.049 40.4597 129.099 40.549 129.17 40.62C129.24 40.6909 129.33 40.7409 129.427 40.7642ZM130.796 37.6887C130.888 37.5904 130.958 37.4736 131.001 37.3462C131.044 37.2187 131.06 37.0836 131.046 36.9497C131.034 36.6213 130.964 36.2976 130.84 35.9933C130.797 35.8411 130.707 35.7069 130.581 35.6108C130.456 35.5147 130.302 35.4621 130.144 35.4608C130.014 35.4531 129.886 35.4897 129.779 35.5648C129.672 35.6398 129.594 35.7487 129.558 35.8738C129.5 36.049 129.475 36.233 129.482 36.4172C129.479 36.7593 129.566 37.0962 129.732 37.3953C129.79 37.5224 129.884 37.6305 130.001 37.7074C130.118 37.7842 130.254 37.8267 130.394 37.83C130.541 37.8329 130.684 37.7827 130.796 37.6887Z" fill="#231F20"/>
<path d="M135.599 35.6459C135.757 35.8095 135.879 36.0041 135.957 36.2174C136.036 36.4307 136.069 36.6579 136.056 36.8848H133.328C133.303 37.4241 133.46 37.9562 133.774 38.3954C133.889 38.5423 134.036 38.6615 134.203 38.7442C134.37 38.827 134.554 38.8711 134.741 38.8735C135.016 38.8811 135.285 38.7927 135.501 38.6236C135.733 38.4278 135.928 38.1923 136.077 37.9281L136.229 37.9824C136.103 38.3944 135.875 38.7681 135.567 39.0692C135.413 39.2275 135.229 39.3526 135.025 39.4368C134.821 39.5209 134.603 39.5622 134.382 39.5582C134.136 39.5674 133.892 39.5133 133.674 39.401C133.455 39.2888 133.268 39.1221 133.133 38.917C132.835 38.4861 132.68 37.9733 132.687 37.4499C132.675 36.8752 132.863 36.3143 133.22 35.8632C133.375 35.6569 133.577 35.4904 133.81 35.3771C134.042 35.2637 134.298 35.2069 134.556 35.2112C134.946 35.2178 135.32 35.3733 135.599 35.6459ZM133.535 35.9936C133.437 36.1847 133.371 36.3902 133.339 36.6022H135.154C135.139 36.3699 135.083 36.142 134.991 35.9284C134.924 35.8017 134.821 35.6973 134.696 35.6278C134.57 35.5583 134.427 35.5268 134.284 35.5372C134.129 35.5351 133.976 35.5768 133.844 35.6575C133.711 35.7383 133.604 35.8548 133.535 35.9936Z" fill="#231F20"/>
<path d="M136.479 39.2971C136.636 39.2955 136.789 39.2544 136.925 39.1775C136.993 39.1103 137.044 39.0281 137.074 38.9374C137.104 38.8468 137.113 38.7504 137.099 38.6559V36.3411C137.117 36.1906 137.087 36.0382 137.012 35.9064C136.977 35.8703 136.935 35.8427 136.888 35.8257C136.84 35.8088 136.79 35.8029 136.74 35.8086H136.61C136.574 35.7989 136.537 35.7989 136.501 35.8086V35.6455L136.805 35.5369C136.925 35.5369 137.099 35.4282 137.36 35.3304L137.762 35.1782V35.8629C137.982 35.651 138.227 35.4651 138.49 35.3087C138.69 35.2124 138.909 35.1605 139.131 35.1565C139.265 35.1518 139.398 35.1777 139.52 35.2323C139.643 35.287 139.751 35.3688 139.837 35.4717C139.937 35.6108 140.014 35.7649 140.065 35.9281C140.232 35.7425 140.418 35.575 140.62 35.4282C140.863 35.2529 141.156 35.1579 141.456 35.1565C141.653 35.1414 141.849 35.1904 142.016 35.2962C142.182 35.402 142.31 35.5588 142.38 35.7434C142.489 36.0947 142.533 36.4629 142.51 36.8301V38.6885C142.501 38.766 142.507 38.8447 142.53 38.9195C142.552 38.9943 142.59 39.0637 142.641 39.1232C142.787 39.2174 142.956 39.27 143.13 39.2753V39.3949H141.195V39.2645C141.37 39.2668 141.542 39.2136 141.684 39.1123C141.78 38.9642 141.822 38.7878 141.804 38.6124V36.7106C141.814 36.4933 141.784 36.2761 141.717 36.0694C141.665 35.9489 141.575 35.8482 141.462 35.7818C141.349 35.7154 141.217 35.6867 141.087 35.6999C140.886 35.7053 140.692 35.7737 140.533 35.8955C140.395 36.0074 140.265 36.1271 140.141 36.2541V38.5472C140.128 38.7374 140.174 38.927 140.272 39.0906C140.348 39.221 140.522 39.2862 140.783 39.2971V39.4166H138.816V39.2971C139.008 39.2903 139.192 39.2174 139.337 39.0906C139.432 38.8525 139.469 38.5957 139.446 38.3407V37.0801C139.458 36.7625 139.429 36.4446 139.359 36.1346C139.326 36.0035 139.248 35.8882 139.139 35.8087C139.03 35.7293 138.896 35.6907 138.761 35.6999C138.577 35.7056 138.398 35.758 138.24 35.852C138.069 35.9549 137.918 36.0874 137.794 36.2433V38.6885C137.779 38.8568 137.821 39.0253 137.914 39.1666C138.053 39.2731 138.229 39.32 138.403 39.2971V39.4166H136.479V39.2971Z" fill="#231F20"/>
<path d="M146.259 35.6456C146.417 35.8092 146.539 36.0038 146.617 36.2171C146.696 36.4304 146.729 36.6576 146.715 36.8845H143.988C143.971 37.4244 144.131 37.9551 144.444 38.3951C144.559 38.5426 144.706 38.6622 144.873 38.745C145.041 38.8278 145.225 38.8717 145.411 38.8733C145.686 38.879 145.954 38.7908 146.172 38.6233C146.403 38.4299 146.595 38.1938 146.737 37.9278L146.889 37.9821C146.763 38.3916 146.539 38.7644 146.237 39.0689C146.082 39.2275 145.896 39.3528 145.69 39.4369C145.485 39.5209 145.264 39.5622 145.042 39.5579C144.798 39.5663 144.556 39.5118 144.339 39.3995C144.122 39.2872 143.937 39.1209 143.803 38.9167C143.506 38.4858 143.35 37.9731 143.358 37.4496C143.34 36.8776 143.52 36.317 143.868 35.8629C144.023 35.6554 144.225 35.4878 144.457 35.3744C144.69 35.2609 144.946 35.2049 145.205 35.2109C145.6 35.2125 145.978 35.3685 146.259 35.6456ZM144.205 35.9934C144.103 36.1824 144.037 36.3887 144.01 36.6019H145.824C145.809 36.3696 145.754 36.1417 145.661 35.9281C145.594 35.8014 145.492 35.697 145.366 35.6275C145.241 35.5581 145.098 35.5266 144.955 35.5369C144.8 35.5348 144.647 35.5765 144.514 35.6573C144.382 35.738 144.275 35.8545 144.205 35.9934Z" fill="#231F20"/>
<path d="M147.205 39.2866C147.361 39.2758 147.511 39.2233 147.639 39.1344C147.737 38.9749 147.779 38.7877 147.759 38.6019V36.3197C147.784 36.1868 147.784 36.0505 147.759 35.9176C147.725 35.8602 147.675 35.814 147.615 35.785C147.555 35.756 147.488 35.7454 147.422 35.7546H147.346H147.248V35.5916L148.074 35.3199L148.487 35.1786C148.489 35.2003 148.489 35.2221 148.487 35.2438V35.8959C148.677 35.7074 148.88 35.5331 149.095 35.3742C149.302 35.2277 149.548 35.1481 149.802 35.146C149.989 35.149 150.171 35.2097 150.323 35.3199C150.494 35.4697 150.626 35.6588 150.707 35.8708C150.788 36.0829 150.817 36.3115 150.79 36.537V38.6345C150.775 38.7976 150.822 38.9606 150.921 39.0909C150.973 39.1461 151.038 39.1885 151.11 39.2149C151.181 39.2413 151.258 39.2509 151.334 39.2431V39.3735H149.519V39.2431C149.681 39.2332 149.834 39.168 149.954 39.0583C150.059 38.882 150.101 38.675 150.073 38.4715V36.6023C150.081 36.3812 150.036 36.1615 149.943 35.9611C149.889 35.8763 149.813 35.8081 149.723 35.7639C149.633 35.7198 149.532 35.7015 149.432 35.7111C149.248 35.7156 149.07 35.7763 148.921 35.885C148.789 35.9911 148.666 36.1074 148.552 36.2328V38.7323C148.543 38.8098 148.549 38.8885 148.572 38.9633C148.594 39.0381 148.632 39.1075 148.682 39.167C148.81 39.254 148.963 39.2961 149.117 39.2866V39.417H147.237L147.205 39.2866Z" fill="#231F20"/>
<path d="M153.648 35.287V35.6021H152.779V38.1886C152.772 38.3613 152.794 38.534 152.844 38.6994C152.864 38.7894 152.916 38.8693 152.99 38.925C153.063 38.9806 153.154 39.0085 153.246 39.0037C153.337 39.0051 153.427 38.9826 153.507 38.9385C153.605 38.8672 153.692 38.7832 153.768 38.6885L153.887 38.7863L153.789 38.9276C153.671 39.1116 153.506 39.2614 153.311 39.3623C153.165 39.4458 153.001 39.4942 152.833 39.5036C152.682 39.5125 152.532 39.4701 152.408 39.3834C152.284 39.2966 152.192 39.1705 152.149 39.0254C152.074 38.7977 152.041 38.5584 152.051 38.319V35.6021H151.584C151.578 35.5771 151.578 35.5511 151.584 35.5261L151.714 35.4174C151.863 35.2877 152.004 35.1498 152.138 35.0044L152.757 34.1567H152.779C152.779 34.1567 152.779 34.1567 152.779 34.2219V35.3087L153.648 35.287Z" fill="#231F20"/>
<path d="M156.039 39.2429C156.26 39.2385 156.477 39.1787 156.669 39.069C156.798 38.8779 156.852 38.6456 156.821 38.417V34.3416C156.848 34.1166 156.794 33.8894 156.669 33.7004C156.486 33.5696 156.263 33.5045 156.039 33.5157V33.3418H158.527V33.5157C158.299 33.51 158.074 33.5663 157.875 33.6787C157.81 33.7626 157.762 33.8586 157.734 33.9612C157.706 34.0638 157.698 34.171 157.712 34.2764V38.6887C157.692 38.7634 157.692 38.8421 157.712 38.9169C157.712 38.9821 157.821 39.0147 157.929 39.0364H158.549C159.086 39.0761 159.626 39.0058 160.135 38.8299C160.519 38.5694 160.802 38.1862 160.939 37.7432H161.167L160.733 39.3407H156.039V39.2429Z" fill="#231F20"/>
<path d="M163.536 35.287V35.6021H162.656V38.1886C162.628 38.3577 162.628 38.5303 162.656 38.6994C162.676 38.7894 162.728 38.8693 162.802 38.925C162.875 38.9806 162.966 39.0085 163.058 39.0037C163.153 39.0055 163.246 38.9831 163.33 38.9385C163.428 38.8672 163.515 38.7832 163.591 38.6885L163.699 38.7863L163.601 38.9276C163.483 39.1084 163.323 39.2576 163.134 39.3623C162.985 39.4475 162.817 39.4959 162.645 39.5036C162.494 39.5125 162.344 39.4701 162.22 39.3834C162.096 39.2966 162.004 39.1705 161.961 39.0254C161.886 38.7977 161.853 38.5584 161.863 38.319V35.6021H161.472C161.466 35.5903 161.463 35.5773 161.463 35.5641C161.463 35.5509 161.466 35.5379 161.472 35.5261L161.591 35.4174C161.74 35.2877 161.881 35.1498 162.015 35.0044L162.634 34.1567H162.7C162.7 34.1567 162.7 34.1567 162.7 34.2219V35.3087L163.536 35.287Z" fill="#231F20"/>
<path d="M166.362 35.3305C166.485 35.3923 166.596 35.4772 166.688 35.5805V34.1568C166.7 34.031 166.681 33.9042 166.633 33.7873C166.633 33.7112 166.503 33.6786 166.362 33.6786H166.09V33.5374L166.449 33.4395L166.829 33.3309L167.177 33.2113L167.405 33.1353V33.6895C167.405 33.8525 167.405 34.0373 167.405 34.2111V38.406C167.394 38.5433 167.417 38.6812 167.47 38.8081C167.524 38.8951 167.644 38.9277 167.84 38.9277H167.992V39.069L167.361 39.2972L166.688 39.5689V38.9059C166.571 39.0564 166.431 39.1883 166.275 39.2972C166.057 39.4336 165.804 39.5052 165.547 39.5037C165.316 39.5068 165.088 39.4541 164.881 39.35C164.675 39.2459 164.497 39.0936 164.362 38.9059C164.061 38.5177 163.9 38.0389 163.906 37.5475C163.892 36.9442 164.084 36.3541 164.449 35.8739C164.603 35.6621 164.803 35.489 165.035 35.3683C165.267 35.2476 165.524 35.1826 165.786 35.1784C165.988 35.1787 166.186 35.2311 166.362 35.3305ZM166.481 38.8081C166.54 38.7598 166.588 38.7003 166.624 38.6331C166.659 38.566 166.681 38.4925 166.688 38.4169V36.4933C166.704 36.3441 166.686 36.1932 166.635 36.052C166.584 35.9107 166.502 35.783 166.394 35.6783C166.233 35.5327 166.025 35.4481 165.808 35.4392C165.635 35.4362 165.466 35.4814 165.318 35.5698C165.17 35.6581 165.05 35.786 164.971 35.9391C164.755 36.3111 164.649 36.7372 164.667 37.1671C164.66 37.6159 164.772 38.0585 164.993 38.4495C165.079 38.6251 165.214 38.7719 165.382 38.8722C165.549 38.9725 165.743 39.022 165.938 39.0146C166.038 39.0207 166.138 39.0055 166.232 38.9699C166.325 38.9343 166.411 38.8791 166.481 38.8081Z" fill="#231F20"/>
<path d="M169.143 39.3731C169.097 39.324 169.06 39.266 169.036 39.2026C169.011 39.1391 169 39.0715 169.002 39.0036C169.001 38.9391 169.013 38.875 169.037 38.8153C169.062 38.7555 169.098 38.7013 169.143 38.6558C169.188 38.6085 169.242 38.5707 169.302 38.545C169.362 38.5192 169.426 38.5059 169.491 38.5059C169.556 38.5059 169.621 38.5192 169.681 38.545C169.74 38.5707 169.794 38.6085 169.839 38.6558C169.885 38.7013 169.921 38.7555 169.945 38.8153C169.969 38.875 169.981 38.9391 169.98 39.0036C169.982 39.0715 169.971 39.1391 169.947 39.2026C169.923 39.266 169.886 39.324 169.839 39.3731C169.794 39.4205 169.74 39.4582 169.681 39.484C169.621 39.5098 169.556 39.5231 169.491 39.5231C169.426 39.5231 169.362 39.5098 169.302 39.484C169.242 39.4582 169.188 39.4205 169.143 39.3731Z" fill="#231F20"/>
</g>
</g>
<defs>
<clipPath id="clip0_4355_34910">
<rect width="176" height="60" fill="white"/>
</clipPath>
<clipPath id="clip1_4355_34910">
<rect width="176" height="60" fill="white"/>
</clipPath>
</defs>
</svg>
